<svg width="28" height="28" viewBox="0 0 28 28" fill="none" xmlns="http://www.w3.org/2000/svg">
<path d="M14 28C21.7 28 28 21.7 28 14C28 6.3 21.7 0 14 0C6.3 0 0 6.3 0 14C0 21.8 6.3 28 14 28ZM14 1.9C20.7 1.9 26.1 7.4 26.1 14C26.1 20.7 20.6 26.1 14 26.1C7.3 26.1 1.9 20.6 1.9 14C1.9 7.4 7.3 1.9 14 1.9Z" fill="white"/>
<path d="M8.3001 13.1L19.7001 13.1C20.2001 13.1 20.6001 13.5 20.6001 14C20.6001 14.5 20.2001 14.9 19.7001 14.9L8.4001 14.9C7.9001 14.9 7.5001 14.5 7.5001 14C7.4001 13.5 7.8001 13.1 8.3001 13.1Z" fill="white"/>
<path d="M11.7 9.29999L7.70005 13.3C7.30005 13.7 7.30005 14.2 7.70005 14.6C8.10005 15 8.60005 15 9.00005 14.6L13 10.6C13.4 10.2 13.4 9.69999 13 9.29999C12.7 8.99999 12.1 8.99999 11.7 9.29999Z" fill="white"/>
<path d="M11.7 18.7L7.70005 14.7C7.30005 14.3 7.30005 13.8 7.70005 13.4C8.10005 13 8.60005 13 9.00005 13.4L13 17.4C13.4 17.8 13.4 18.3 13 18.7C12.7 19.1 12.1 19.1 11.7 18.7Z" fill="white"/>
</svg>
