<svg width="33" height="32" viewBox="0 0 33 32" fill="none" xmlns="http://www.w3.org/2000/svg">
<path d="M8.78977e-07 0V10.5021C8.78977e-07 14.8282 1.71899 18.889 4.84784 21.9475C7.9767 25.006 12.1309 26.6863 16.5565 26.6863H26.8403C27.0514 26.6863 27.157 26.9369 27.0062 27.0843L24.1714 29.8554C24.0809 29.9438 24.0809 30.0912 24.1714 30.1796L25.9657 31.9337C26.0562 32.0221 26.207 32.0221 26.2975 31.9337L32.9321 25.4556C33.0226 25.3671 33.0226 25.2197 32.9321 25.1313L26.2975 18.6458C26.207 18.5573 26.0562 18.5573 25.9657 18.6458L24.1714 20.3998C24.0809 20.4883 24.0809 20.6357 24.1714 20.7241L26.8554 23.3478C27.0062 23.4952 26.9006 23.7457 26.6895 23.7457H16.8053C9.19054 23.7457 3.01576 17.7098 3.01576 10.2662V0" fill="#FC8763"/>
</svg>
