<svg width="28" height="28" viewBox="0 0 28 28" fill="none" xmlns="http://www.w3.org/2000/svg">
<path d="M14 0C6.3 0 0 6.3 0 14C0 21.7 6.3 28 14 28C21.7 28 28 21.7 28 14C28 6.2 21.7 0 14 0ZM14 26.1C7.3 26.1 1.9 20.6 1.9 14C1.9 7.3 7.4 1.9 14 1.9C20.7 1.9 26.1 7.4 26.1 14C26.1 20.6 20.7 26.1 14 26.1Z" fill="white"/>
<path d="M19.7 14.9H8.30002C7.80002 14.9 7.40002 14.5 7.40002 14C7.40002 13.5 7.80002 13.1 8.30002 13.1H19.6C20.1 13.1 20.5 13.5 20.5 14C20.6 14.5 20.2 14.9 19.7 14.9Z" fill="white"/>
<path d="M16.3001 18.7L20.3001 14.7C20.7001 14.3 20.7001 13.8 20.3001 13.4C19.9001 13 19.4001 13 19.0001 13.4L15.0001 17.4C14.6001 17.8 14.6001 18.3 15.0001 18.7C15.3001 19 15.9001 19 16.3001 18.7Z" fill="white"/>
<path d="M16.3001 9.3L20.3001 13.3C20.7001 13.7 20.7001 14.2 20.3001 14.6C19.9001 15 19.4001 15 19.0001 14.6L15.0001 10.6C14.6001 10.2 14.6001 9.7 15.0001 9.3C15.3001 8.9 15.9001 8.9 16.3001 9.3Z" fill="white"/>
</svg>
