<svg width="80" height="80" viewBox="0 0 80 80" fill="none" xmlns="http://www.w3.org/2000/svg">
<path d="M57.5576 37.9587C56.5899 37.9587 55.6334 38.106 54.7107 38.4006L50.8624 29.2677L51.6951 25.9476C51.8188 25.4604 51.5263 24.9732 51.0424 24.8485C50.9749 24.8258 50.8961 24.8145 50.8174 24.8145H47.2166C47.1716 24.8145 47.1153 24.8145 47.0703 24.8258C46.5752 23.4095 45.0449 22.6616 43.6383 23.1488C42.2318 23.6474 41.4891 25.1884 41.973 26.6048C42.4681 28.0212 43.9984 28.7691 45.405 28.2819C46.1814 28.0099 46.8003 27.3867 47.0703 26.6048C47.1153 26.6162 47.1716 26.6162 47.2166 26.6162H49.6696L49.0732 28.9957L42.5468 40.9388C41.6804 42.3212 40.3751 43.3523 38.8335 43.8736V43.8849C38.2822 43.7829 37.7083 43.8169 37.1682 43.9869L33.2298 31.4206C33.4661 31.3526 33.7024 31.2506 33.9275 31.1373L37.7195 29.2337C38.1696 29.0071 38.3497 28.4632 38.1246 28.0212C37.427 26.6048 35.9867 25.6983 34.4113 25.7097H28.3013C27.8062 25.7097 27.4011 26.1176 27.4011 26.6162V27.0921C27.4011 29.3923 29.1114 31.3299 31.3844 31.5906L33.4661 38.2193L33.4436 38.242C32.6785 37.5054 31.812 36.8596 30.8893 36.3383C30.9681 36.123 31.0131 35.9077 31.0131 35.6811V33.8795C31.0131 32.8823 30.2029 32.0665 29.2127 32.0665H19.2993C18.3091 32.0665 17.4989 32.8823 17.4989 33.8795V35.6924C17.4989 36.0777 17.6227 36.4516 17.8478 36.7576C15.7323 38.1286 14.0669 40.1003 13.0767 42.4345C12.8742 42.8877 13.088 43.4316 13.5381 43.6243C13.9882 43.8282 14.5283 43.6129 14.7196 43.1597V43.1484C14.9896 42.5251 15.3047 41.9359 15.676 41.3694L16.79 42.2645C13.9319 46.661 15.1472 52.5646 19.5131 55.4427C23.8791 58.3208 29.7416 57.097 32.5997 52.7005C33.4436 51.4088 33.9612 49.9244 34.1075 48.372H34.7151C35.2103 50.3097 37.1794 51.4768 39.1036 50.9782C40.3976 50.6383 41.3991 49.6185 41.7029 48.3154C43.3908 48.0548 44.8536 46.9896 45.6187 45.4373L48.6006 39.4204C49.1858 38.2306 50.3898 37.4828 51.7063 37.4828H52.3702L53.0454 39.0918C48.4544 41.6073 46.7665 47.3862 49.2533 51.998C49.287 52.066 49.3208 52.134 49.3658 52.1906C51.8639 56.5645 57.4113 58.2188 61.8673 55.9186C66.5145 53.5164 68.3374 47.7828 65.9519 43.103C64.3315 39.953 61.0908 37.9587 57.5576 37.9587ZM44.5048 26.6275C44.0097 26.6275 43.6046 26.2196 43.6046 25.721C43.6046 25.2224 44.0097 24.8145 44.5048 24.8145C44.9999 24.8145 45.405 25.2224 45.405 25.721C45.405 26.2196 44.9999 26.6275 44.5048 26.6275ZM30.698 29.5396C29.9104 29.1544 29.3702 28.4065 29.2352 27.534H34.3888C34.9627 27.534 35.5028 27.738 35.9417 28.1119L33.1173 29.5396C32.3521 29.9249 31.4632 29.9249 30.698 29.5396ZM32.1046 39.4771L31.0581 40.4289C29.3477 38.8652 27.131 37.9813 24.813 37.9587L24.7005 36.5423C26.1746 36.5423 27.6261 36.8369 28.9764 37.4261C30.1354 37.9247 31.1931 38.6159 32.1046 39.4771ZM23.5977 44.9953C23.4852 45.0407 23.3839 45.0973 23.2827 45.1653L19.3443 41.9926C20.4021 40.9388 21.7298 40.2249 23.1814 39.9303L23.5977 44.9953ZM25.3869 44.848L24.9705 39.783C26.7259 39.8397 28.3913 40.5082 29.7191 41.664L25.9833 45.086C25.792 44.984 25.5894 44.9047 25.3869 44.848ZM19.2993 33.8795H29.2015V35.5565C26.1858 34.4007 22.8438 34.446 19.8619 35.6924H19.2993V33.8795ZM20.4021 37.4261C21.201 37.0749 22.0449 36.8256 22.9001 36.6896L23.0126 38.106C21.0659 38.4573 19.2881 39.4204 17.9153 40.8481L16.8013 39.953C17.8252 38.8765 19.0405 38.0153 20.4021 37.4261ZM24.7005 55.1821C20.4696 55.1821 17.0488 51.7261 17.0488 47.4769C17.0488 46.0378 17.4539 44.6327 18.2078 43.409L22.1462 46.5817C21.6511 47.9981 22.3937 49.5505 23.8003 50.049C25.2068 50.5476 26.7484 49.7998 27.2435 48.3834H32.2959C31.8345 52.2586 28.5713 55.1821 24.7005 55.1821ZM27.2435 46.5704C27.221 46.5251 27.2098 46.4684 27.1873 46.4231L30.9231 43.0011C31.677 44.0549 32.1496 45.2786 32.2959 46.5704H27.2435ZM34.7151 46.5704H34.1075C33.9387 44.8367 33.3086 43.171 32.2621 41.7773L33.3086 40.8141C34.3101 42.1286 35.0077 43.6583 35.334 45.2786C35.0415 45.6639 34.8389 46.1058 34.7151 46.5704ZM38.2034 49.2899C37.2132 49.2899 36.403 48.474 36.403 47.4769C36.403 46.4797 37.2132 45.6639 38.2034 45.6639C39.1936 45.6639 40.0038 46.4797 40.0038 47.4769C40.0038 48.474 39.1936 49.2899 38.2034 49.2899ZM46.9915 38.6272L44.0097 44.6441C43.5483 45.5846 42.6819 46.2644 41.6691 46.4911C41.5116 45.9358 41.2191 45.4146 40.8252 44.9953C42.153 44.2701 43.2782 43.205 44.0772 41.9133L44.0997 41.8679L49.8047 31.4319L51.605 35.7038C49.6471 35.7264 47.8692 36.8596 46.9915 38.6272ZM57.5576 55.1821C53.3267 55.1821 49.9059 51.7261 49.9059 47.4769C49.9059 44.7121 51.38 42.1739 53.7543 40.7915L55.7347 45.4713C54.6319 46.4911 54.5644 48.2021 55.5659 49.3125C56.5786 50.423 58.2777 50.491 59.3805 49.4825C60.4832 48.4627 60.5507 46.7517 59.5493 45.6412C59.0429 45.0747 58.3115 44.7574 57.5576 44.7574C57.5013 44.7574 57.4451 44.7574 57.3888 44.7687L55.4196 40.0776C59.4705 38.8765 63.7239 41.2221 64.9167 45.3126C66.1094 49.3918 63.7802 53.675 59.718 54.8761C59.0204 55.0801 58.289 55.1821 57.5576 55.1821Z" fill="white" stroke="white" stroke-width="0.01"/>
</svg>
