<svg width="80" height="80" viewBox="0 0 80 80" fill="none" xmlns="http://www.w3.org/2000/svg">
<path d="M59.284 40.9606L58.709 41.546C57.6999 42.5734 56.374 43.2066 54.9542 43.35C58.1458 42.0597 60.6099 39.4194 61.7129 36.1101C61.7129 36.0982 61.7129 36.0862 61.7247 36.0743C61.7247 36.0623 61.7364 36.0504 61.7364 36.0384C61.7364 36.0265 61.7364 36.0026 61.7364 35.9907C61.7481 35.9429 61.7481 35.8831 61.7481 35.8234C61.7481 35.7995 61.7481 35.7756 61.7481 35.7398C61.7364 35.68 61.7247 35.6203 61.7012 35.5606C61.7012 35.5486 61.6895 35.5247 61.6895 35.5128C61.666 35.4411 61.6191 35.3814 61.5839 35.3216L61.5721 35.3097C61.5604 35.2977 61.5487 35.2858 61.5369 35.2858C61.49 35.238 61.4431 35.1902 61.3844 35.1544C61.3727 35.1544 61.3727 35.1424 61.3727 35.1424L50.7534 28.3924C49.7678 27.7711 48.5944 27.5322 47.4562 27.7114L47.4914 27.6756L44.2059 25.1667C43.8773 24.9158 43.4197 24.9517 43.1381 25.2503L40.6739 27.7592C40.4979 28.0698 40.4979 28.4402 40.6857 28.715C40.9203 29.0614 41.4249 29.1689 41.8356 28.9419C42.4927 28.2729 43.1381 27.6158 43.7952 26.9468L45.6726 28.3804C45.4497 28.5238 45.2384 28.6791 45.0507 28.8464L43.5018 30.2203C40.9673 32.6097 37.3767 33.4579 34.056 32.4544L23.4367 29.1928C23.3546 29.1689 23.2842 29.157 23.202 29.157C22.4159 29.157 21.6884 29.599 21.3129 30.3039C20.9374 31.0088 20.9843 31.869 21.4185 32.538L21.6884 32.9561C21.7588 33.0756 21.8644 33.1592 21.9817 33.2309L24.5163 34.6168L22.5215 38.6787L17.382 39.1685C17.1121 39.1924 16.8774 39.3597 16.7484 39.5986C16.6193 39.8376 16.6076 40.1363 16.7366 40.3752L17.8514 42.6571C16.9713 43.123 15.9974 43.3739 15 43.3739V45.0465C16.7953 45.0465 18.5319 44.4252 19.9165 43.2664C22.7796 45.6438 26.8865 45.6438 29.7613 43.2664C32.6244 45.6438 36.743 45.6438 39.6061 43.2664C42.4692 45.6438 46.5879 45.6438 49.4509 43.2664C52.314 45.6438 56.4327 45.6438 59.2957 43.2664C60.6803 44.4252 62.417 45.0584 64.2123 45.0465V43.3739C62.5813 43.3739 61.0206 42.7168 59.8707 41.546L59.284 40.9606ZM44.5813 31.4389L46.1185 30.0889C47.1745 29.157 48.7 29.0375 49.8851 29.7902L58.4274 35.226L36.2268 37.2212L43.361 32.4424C43.7834 32.1437 44.1941 31.8092 44.5813 31.4389ZM22.7914 31.6181C22.6975 31.4747 22.6858 31.2955 22.7444 31.1402C22.8031 30.9849 22.9439 30.8654 23.1082 30.8415L33.5631 34.0314C34.7717 34.4017 36.0155 34.557 37.2711 34.5092L32.9882 37.3765L27.5201 34.3778L26.0886 33.4698C25.9595 33.3862 25.807 33.3504 25.6544 33.3623L22.9439 31.869L22.7914 31.6181ZM26.7105 35.8234L29.7261 37.7469L24.5984 38.2247L25.9713 35.4172L26.7105 35.8234ZM49.4392 40.9606L48.8642 41.546C46.4588 43.9832 42.5866 43.9832 40.1811 41.546L39.6061 40.9606L39.0312 41.546C36.6257 43.9832 32.7535 43.9832 30.348 41.546L29.7731 40.9606L29.1981 41.546C26.7926 43.9832 22.9204 43.9832 20.515 41.546L19.94 40.9606L19.365 41.546C19.3181 41.5938 19.2712 41.6296 19.2242 41.6774L18.7549 40.7217L59.683 36.7911C58.0871 40.1004 54.872 42.2748 51.2697 42.4898C50.8238 42.227 50.4249 41.9044 50.0494 41.534L49.4392 40.9606Z" fill="white"/>
<path d="M59.2488 45.9609L58.6738 46.4828C56.2684 48.6557 52.3962 48.6557 49.9907 46.4828L49.4157 45.9609L48.8408 46.4828C46.4353 48.6557 42.5631 48.6557 40.1576 46.4828L39.5827 45.9609L39.0077 46.4828C36.6022 48.6557 32.73 48.6557 30.3246 46.4828L29.7496 45.9609L29.1746 46.4828C26.7692 48.6557 22.897 48.6557 20.4915 46.4828L19.9165 45.9609L19.3416 46.4828C18.1916 47.5267 16.631 48.1231 15 48.1125V49.6036C16.7953 49.6036 18.5319 49.0498 19.9165 48.0166C22.7796 50.1362 26.8982 50.1362 29.7613 48.0166C32.6244 50.1362 36.743 50.1362 39.6061 48.0166C42.4692 50.1362 46.5878 50.1362 49.4509 48.0166C52.314 50.1362 56.4326 50.1362 59.2957 48.0166C60.6803 49.0498 62.417 49.6143 64.2123 49.6036V48.1125C62.5813 48.1125 61.0206 47.5267 59.8707 46.4828L59.2488 45.9609Z" fill="white"/>
<path d="M59.2488 51.4287L58.6738 51.9506C56.2684 54.1235 52.3962 54.1235 49.9907 51.9506L49.4157 51.4287L48.8408 51.9506C46.4353 54.1235 42.5631 54.1235 40.1576 51.9506L39.5827 51.4287L39.0077 51.9506C36.6022 54.1235 32.73 54.1235 30.3246 51.9506L29.7496 51.4287L29.1746 51.9506C26.7692 54.1235 22.897 54.1235 20.4915 51.9506L19.9165 51.4287L19.3416 51.9506C18.1916 52.9944 16.631 53.5909 15 53.5802V55.0714C16.7953 55.0714 18.5319 54.5175 19.9165 53.4844C22.7796 55.604 26.8982 55.604 29.7613 53.4844C32.6244 55.604 36.743 55.604 39.6061 53.4844C42.4692 55.604 46.5878 55.604 49.4509 53.4844C52.314 55.604 56.4326 55.604 59.2957 53.4844C60.6803 54.5175 62.417 55.0821 64.2123 55.0714V53.5802C62.5813 53.5802 61.0206 52.9944 59.8707 51.9506L59.2488 51.4287Z" fill="white"/>
</svg>
