<svg width="26" height="26" viewBox="0 0 26 26" fill="none" xmlns="http://www.w3.org/2000/svg">
<path d="M20.5672 10.6641C20.5672 11.1974 20.1349 11.6297 19.6016 11.6297C19.0683 11.6297 18.6359 11.1974 18.6359 10.6641C18.6359 10.1308 19.0683 9.69844 19.6016 9.69844C20.1349 9.69844 20.5672 10.1308 20.5672 10.6641Z" fill="white" stroke="#FC8763" stroke-width="0.1"/>
<path d="M20.5672 2.03125V2.08125H20.6172H21.9375C24.1493 2.08125 25.95 3.88191 25.95 6.09375V11.8828C25.95 12.4138 25.5154 12.8484 24.9844 12.8484C24.4534 12.8484 24.0187 12.4138 24.0187 11.8828V6.09375C24.0187 4.94387 23.0874 4.0125 21.9375 4.0125H20.6172H20.5672V4.0625V5.07812C20.5672 5.6091 20.1325 6.04375 19.6016 6.04375C19.0706 6.04375 18.6359 5.6091 18.6359 5.07812V4.0625V4.0125H18.5859H13.9648H13.9148V4.0625V5.07812C13.9148 5.6091 13.4802 6.04375 12.9492 6.04375C12.4182 6.04375 11.9836 5.6091 11.9836 5.07812V4.0625V4.0125H11.9336H7.36328H7.31328V4.0625V5.07812C7.31328 5.6091 6.87864 6.04375 6.34766 6.04375C5.81668 6.04375 5.38203 5.6091 5.38203 5.07812V4.0625V4.0125H5.33203H4.0625C2.91262 4.0125 1.98125 4.94387 1.98125 6.09375V21.9375C1.98125 23.0874 2.91262 24.0187 4.0625 24.0187H11.832C12.363 24.0187 12.7977 24.4534 12.7977 24.9844C12.7977 25.5154 12.363 25.95 11.832 25.95H4.0625C1.85066 25.95 0.05 24.1493 0.05 21.9375V6.09375C0.05 3.88191 1.85066 2.08125 4.0625 2.08125H5.33203H5.38203V2.03125V1.01562C5.38203 0.484645 5.81668 0.05 6.34766 0.05C6.87864 0.05 7.31328 0.484645 7.31328 1.01562V2.03125V2.08125H7.36328H11.9336H11.9836V2.03125V1.01562C11.9836 0.484645 12.4182 0.05 12.9492 0.05C13.4802 0.05 13.9148 0.484645 13.9148 1.01562V2.03125V2.08125H13.9648H18.5859H18.6359V2.03125V1.01562C18.6359 0.484645 19.0706 0.05 19.6016 0.05C20.1325 0.05 20.5672 0.484645 20.5672 1.01562V2.03125Z" fill="white" stroke="#FC8763" stroke-width="0.1"/>
<path d="M13.7609 19.8555C13.7609 16.496 16.496 13.7609 19.8555 13.7609C23.215 13.7609 25.95 16.496 25.95 19.8555C25.95 23.215 23.215 25.95 19.8555 25.95C16.496 25.95 13.7609 23.215 13.7609 19.8555ZM15.6922 19.8555C15.6922 22.153 17.5579 24.0188 19.8555 24.0188C22.153 24.0188 24.0188 22.153 24.0188 19.8555C24.0188 17.5579 22.153 15.6922 19.8555 15.6922C17.5579 15.6922 15.6922 17.5579 15.6922 19.8555Z" fill="white" stroke="#FC8763" stroke-width="0.1"/>
<path d="M20.8211 18.8398V18.8898H20.8711H21.3281C21.8591 18.8898 22.2938 19.3245 22.2938 19.8555C22.2938 20.3864 21.8591 20.8211 21.3281 20.8211H19.8555C19.3245 20.8211 18.8898 20.3864 18.8898 19.8555V17.7734C18.8898 17.2425 19.3245 16.8078 19.8555 16.8078C20.3864 16.8078 20.8211 17.2425 20.8211 17.7734V18.8398Z" fill="white" stroke="#FC8763" stroke-width="0.1"/>
<path d="M16.1492 10.6641C16.1492 11.1974 15.7169 11.6297 15.1836 11.6297C14.6503 11.6297 14.218 11.1974 14.218 10.6641C14.218 10.1308 14.6503 9.69844 15.1836 9.69844C15.7169 9.69844 16.1492 10.1308 16.1492 10.6641Z" fill="white" stroke="#FC8763" stroke-width="0.1"/>
<path d="M11.7313 15.082C11.7313 15.6153 11.2989 16.0477 10.7656 16.0477C10.2323 16.0477 9.8 15.6153 9.8 15.082C9.8 14.5487 10.2323 14.1164 10.7656 14.1164C11.2989 14.1164 11.7313 14.5487 11.7313 15.082Z" fill="white" stroke="#FC8763" stroke-width="0.1"/>
<path d="M7.31328 10.6641C7.31328 11.1974 6.88096 11.6297 6.34766 11.6297C5.81436 11.6297 5.38203 11.1974 5.38203 10.6641C5.38203 10.1308 5.81436 9.69844 6.34766 9.69844C6.88096 9.69844 7.31328 10.1308 7.31328 10.6641Z" fill="white" stroke="#FC8763" stroke-width="0.1"/>
<path d="M7.31328 15.082C7.31328 15.6153 6.88096 16.0477 6.34766 16.0477C5.81436 16.0477 5.38203 15.6153 5.38203 15.082C5.38203 14.5487 5.81436 14.1164 6.34766 14.1164C6.88096 14.1164 7.31328 14.5487 7.31328 15.082Z" fill="white" stroke="#FC8763" stroke-width="0.1"/>
<path d="M7.31328 19.5C7.31328 20.0333 6.88096 20.4656 6.34766 20.4656C5.81436 20.4656 5.38203 20.0333 5.38203 19.5C5.38203 18.9667 5.81436 18.5344 6.34766 18.5344C6.88096 18.5344 7.31328 18.9667 7.31328 19.5Z" fill="white" stroke="#FC8763" stroke-width="0.1"/>
<path d="M11.7313 19.5C11.7313 20.0333 11.2989 20.4656 10.7656 20.4656C10.2323 20.4656 9.8 20.0333 9.8 19.5C9.8 18.9667 10.2323 18.5344 10.7656 18.5344C11.2989 18.5344 11.7313 18.9667 11.7313 19.5Z" fill="white" stroke="#FC8763" stroke-width="0.1"/>
<path d="M11.7313 10.6641C11.7313 11.1974 11.2989 11.6297 10.7656 11.6297C10.2323 11.6297 9.8 11.1974 9.8 10.6641C9.8 10.1308 10.2323 9.69844 10.7656 9.69844C11.2989 9.69844 11.7313 10.1308 11.7313 10.6641Z" fill="white" stroke="#FC8763" stroke-width="0.1"/>
</svg>
