<svg width="80" height="80" viewBox="0 0 80 80" fill="none" xmlns="http://www.w3.org/2000/svg">
<path d="M54.529 44.0625C55.2721 44.0625 55.8711 44.6615 55.8711 45.4046C55.8711 46.1478 55.2721 46.7468 54.529 46.7468C53.7858 46.7468 53.1868 46.1478 53.1868 45.4046C53.1868 44.6615 53.7858 44.0625 54.529 44.0625Z" fill="black"/>
<path d="M18.7575 33.7474L28.2078 29.9539C29.7829 29.3217 31.4356 29 33.1327 29H38.9227C40.9969 29 43.0711 29.4991 44.9235 30.442L53.4865 34.8011L59.6315 35.6996C61.1178 35.9214 62.4821 36.6646 63.4693 37.807C64.4565 38.9384 65 40.3915 65 41.9V45.5271C65 46.0817 64.5452 46.5364 63.9906 46.5364H59.6426C59.4207 47.5236 58.9216 48.4221 58.1895 49.1431C57.2023 50.097 55.9157 50.6294 54.5402 50.6294C53.1759 50.6294 51.8782 50.1081 50.891 49.1431C50.1478 48.4221 49.6487 47.5125 49.4379 46.5364H31.2581C31.0363 47.5236 30.5372 48.4221 29.8051 49.1431C28.829 50.097 27.5312 50.6294 26.1558 50.6294C24.7804 50.6294 23.4937 50.1081 22.5066 49.1431C21.7634 48.4221 21.2643 47.5236 21.0535 46.5364H16.4281C15.8735 46.5364 15.4188 46.0817 15.4188 45.5271V38.7166C15.3855 36.5204 16.7054 34.5682 18.7575 33.7474ZM28.9621 31.8396L21.6636 34.7678H27.1652L29.5943 31.6066C29.3836 31.6843 29.1729 31.7619 28.9621 31.8396ZM37.9799 31.0409H33.1327C32.9441 31.0409 32.7667 31.0409 32.5781 31.052L29.7275 34.7678H37.9799V31.0409ZM44.0139 32.261C42.7716 31.6288 41.3962 31.2295 40.0097 31.0964V34.7678H48.9499L44.0139 32.261ZM59.5095 37.7294C59.931 39.1381 61.1733 40.2029 62.6818 40.3471C62.1494 39.0272 60.9625 38.0067 59.5095 37.7294ZM54.5292 48.5996C56.2928 48.5996 57.7347 47.1687 57.7347 45.394C57.7347 43.6193 56.3039 42.1884 54.5292 42.1884C52.7544 42.1884 51.3236 43.6193 51.3236 45.394C51.3347 47.1687 52.7655 48.5996 54.5292 48.5996ZM26.1336 48.5996C27.8973 48.5996 29.3392 47.1687 29.3392 45.394C29.3392 43.6193 27.9084 42.1884 26.1336 42.1884C24.37 42.1884 22.9281 43.6193 22.9281 45.394C22.9281 47.1687 24.37 48.5996 26.1336 48.5996ZM17.4153 44.5177H20.9759C21.3974 42.0553 23.5492 40.1807 26.1226 40.1807C28.707 40.1807 30.8477 42.0553 31.2692 44.5177H49.3825C49.804 42.0553 51.9558 40.1807 54.5292 40.1807C57.1136 40.1807 59.2543 42.0553 59.6758 44.5177H62.9702V42.3991C60.0973 42.3769 57.7237 40.214 57.3687 37.4188L53.0983 36.7977H27.6643H21.2421V38.1176C21.2421 39.97 19.7336 41.4896 17.8701 41.4896H17.4042L17.4153 44.5177ZM17.4153 39.4598H17.8812C18.6133 39.4598 19.2233 38.8608 19.2233 38.1176V36.7977H18.0365C17.6483 37.3523 17.4264 38.0178 17.4264 38.7277L17.4153 39.4598Z" fill="white"/>
<path d="M26.1335 44.0625C26.8766 44.0625 27.4756 44.6615 27.4756 45.4046C27.4756 46.1478 26.8766 46.7468 26.1335 46.7468C25.3903 46.7468 24.7913 46.1478 24.7913 45.4046C24.7913 44.6615 25.3903 44.0625 26.1335 44.0625Z" fill="black"/>
<path d="M54.529 44.0635C55.2721 44.0635 55.8711 44.6624 55.8711 45.4056C55.8711 46.1488 55.2721 46.7477 54.529 46.7477C53.7858 46.7477 53.1868 46.1488 53.1868 45.4056C53.1868 44.6624 53.7858 44.0635 54.529 44.0635Z" fill="black"/>
<path d="M26.1335 44.0635C26.8766 44.0635 27.4756 44.6624 27.4756 45.4056C27.4756 46.1488 26.8766 46.7477 26.1335 46.7477C25.3903 46.7477 24.7913 46.1488 24.7913 45.4056C24.7913 44.6624 25.3903 44.0635 26.1335 44.0635Z" fill="black"/>
<path d="M54.529 44.0635C55.2721 44.0635 55.8711 44.6624 55.8711 45.4056C55.8711 46.1488 55.2721 46.7477 54.529 46.7477C53.7858 46.7477 53.1868 46.1488 53.1868 45.4056C53.1868 44.6624 53.7858 44.0635 54.529 44.0635Z" fill="white"/>
<path d="M26.1335 44.0635C26.8766 44.0635 27.4756 44.6624 27.4756 45.4056C27.4756 46.1488 26.8766 46.7477 26.1335 46.7477C25.3903 46.7477 24.7913 46.1488 24.7913 45.4056C24.7913 44.6624 25.3903 44.0635 26.1335 44.0635Z" fill="white"/>
</svg>
