<?xml version="1.0" encoding="utf-8"?>
<!-- Generator: Adobe Illustrator 23.0.2, SVG Export Plug-In . SVG Version: 6.00 Build 0)  -->
<svg version="1.1" id="Слой_1" xmlns="http://www.w3.org/2000/svg" xmlns:xlink="http://www.w3.org/1999/xlink" x="0px" y="0px"
	 viewBox="0 0 10 10" style="enable-background:new 0 0 10 10;" xml:space="preserve">
<style type="text/css">
	.st0{fill:#FFFFFF;stroke:#FFFFFF;stroke-miterlimit:10;}
</style>
<path class="st0" d="M9.6,0.4C9.2,0,8.7,0,8.3,0.4L5,3.7L1.7,0.4C1.3,0,0.8,0,0.4,0.4S0,1.3,0.4,1.7L3.7,5L0.4,8.3
	C0,8.7,0,9.2,0.4,9.6c0.2,0.2,0.4,0.3,0.7,0.3c0.3,0,0.5-0.1,0.7-0.3l3.3-3.3l3.3,3.3c0.2,0.2,0.4,0.3,0.7,0.3
	c0.2,0,0.5-0.1,0.7-0.3c0.4-0.4,0.4-0.9,0-1.3L6.5,5l3.3-3.3C9.9,1.3,9.9,0.7,9.6,0.4z"/>
</svg>
