<svg width="28" height="28" viewBox="0 0 28 28" fill="none" xmlns="http://www.w3.org/2000/svg">
<path d="M14 0C6.3 0 0 6.3 0 14C0 21.7 6.3 28 14 28C21.7 28 28 21.7 28 14C28 6.2 21.7 0 14 0ZM14 26.1C7.3 26.1 1.9 20.6 1.9 14C1.9 7.3 7.4 1.9 14 1.9C20.7 1.9 26.1 7.4 26.1 14C26.1 20.6 20.7 26.1 14 26.1Z" fill="white"/>
<path d="M18.6 9.40001C18.2 9.00001 17.7 9.00001 17.3 9.40001L14 12.7L10.7 9.40001C10.3 9.00001 9.80001 9.00001 9.40001 9.40001C9.00001 9.80001 9.00001 10.3 9.40001 10.7L12.7 14L9.40001 17.3C9.00001 17.7 9.00001 18.2 9.40001 18.6C9.60001 18.8 9.80001 18.9 10.1 18.9C10.4 18.9 10.6 18.8 10.8 18.6L14.1 15.3L17.4 18.6C17.6 18.8 17.8 18.9 18.1 18.9C18.3 18.9 18.6 18.8 18.8 18.6C19.2 18.2 19.2 17.7 18.8 17.3L15.5 14L18.8 10.7C18.9 10.3 18.9 9.70001 18.6 9.40001Z" fill="white"/>
</svg>
