<svg width="108" height="106" viewBox="0 0 108 106" fill="none" xmlns="http://www.w3.org/2000/svg">
<path d="M69.3167 34.8202L93.2133 57.5427C101.072 65.0154 101.358 77.5681 93.7737 85.5446L88.5977 90.988C81.0302 98.9465 68.4975 99.3445 60.6031 91.8379L36.7065 69.1155C28.8476 61.6428 28.5616 49.09 36.1461 41.1136L41.3392 35.6522C48.8896 27.7116 61.4579 27.3475 69.3167 34.8202ZM90.873 60.0039L66.9764 37.2814C60.4511 31.0767 50.0272 31.3932 43.758 37.9864L38.582 43.4298C32.3128 50.0229 32.5214 60.4496 39.0468 66.6543L62.9434 89.3767C69.4687 95.5815 79.8926 95.265 86.1618 88.6718L91.3548 83.2104C97.6241 76.6173 97.4161 66.2255 90.873 60.0039Z" fill="white"/>
<path d="M25.6548 7.7085C26.7205 6.58782 28.4696 6.54383 29.5903 7.60952C30.7111 8.67522 30.7374 10.443 29.6896 11.545C28.624 12.6657 26.8748 12.7097 25.7541 11.644C24.6342 10.6147 24.5892 8.82919 25.6548 7.7085Z" fill="white"/>
<path d="M29.7885 15.4807C30.8542 14.36 32.495 14.2128 33.4802 15.1496C34.4654 16.0865 34.3669 17.7356 33.3189 18.8377C32.2532 19.9584 30.6125 20.1056 29.6273 19.1688C28.6585 18.2476 28.7406 16.5828 29.7885 15.4807Z" fill="white"/>
<path d="M60.9766 43.2157L81.7184 62.9384C82.2609 63.4542 82.1484 64.4417 81.496 65.1278C80.826 65.8324 79.8631 65.976 79.3206 65.4601L58.5788 45.7374C58.0363 45.2216 58.1488 44.2341 58.8012 43.548C59.4354 42.8448 60.416 42.6826 60.9766 43.2157Z" fill="white"/>
<path d="M33.4181 22.7733C34.4838 21.6525 36.2329 21.6085 37.3537 22.6742C38.4744 23.7399 38.5007 25.5077 37.4528 26.6098C36.3871 27.7305 34.6379 27.7746 33.5172 26.7089C32.4151 25.661 32.3524 23.894 33.4181 22.7733Z" fill="white"/>
<path d="M37.2875 29.8135C38.2199 28.8329 39.8625 28.901 40.9832 29.9667C42.104 31.0324 42.2391 32.6858 41.3222 33.65C40.3898 34.6306 38.7286 34.5448 37.6265 33.4969C36.5089 32.4653 36.3551 30.7941 37.2875 29.8135Z" fill="white"/>
<path d="M42.2645 41.7488C43.3302 40.628 45.098 40.6018 46.2001 41.6497C47.3208 42.7154 47.3471 44.4832 46.2992 45.5853C45.2335 46.7061 43.4844 46.7501 42.3636 45.6844C41.2428 44.6187 41.1988 42.8696 42.2645 41.7488Z" fill="white"/>
<path d="M53.6127 50.6187L70.1559 66.3491C70.604 66.7752 70.4159 67.6909 69.7635 68.3769C69.0935 69.0815 68.2061 69.2969 67.7581 68.8708L51.2148 53.1405C50.7668 52.7144 50.9549 51.7987 51.6072 51.1127C52.2772 50.4081 53.1646 50.1927 53.6127 50.6187Z" fill="white"/>
<path d="M29.8542 37.631C30.9199 36.5102 32.669 36.4662 33.7898 37.5319C34.9105 38.5976 34.9368 40.3654 33.8889 41.4675C32.841 42.5696 31.0554 42.6146 29.9533 41.5666C28.8512 40.5187 28.8062 38.7331 29.8542 37.631Z" fill="white"/>
<path d="M22.3882 34.3732C23.4539 33.2524 25.203 33.2084 26.3238 34.2741C27.4445 35.3398 27.4708 37.1076 26.4229 38.2097C25.3572 39.3305 23.608 39.3745 22.4873 38.3088C21.3852 37.2609 21.3225 35.494 22.3882 34.3732Z" fill="white"/>
<path d="M47.3171 58.0773L73.1106 82.6034C73.795 83.2543 73.7888 84.3429 73.1365 85.0289C72.4665 85.7335 71.3972 85.776 70.7128 85.1251L44.9193 60.599C44.2348 59.9481 44.241 58.8595 44.8933 58.1735C45.5457 57.4874 46.6326 57.4264 47.3171 58.0773Z" fill="white"/>
<path d="M15.162 30.8631C16.0945 29.8825 17.6286 29.8475 18.6138 30.7843C19.599 31.7211 19.6093 33.2558 18.6924 34.22C17.76 35.2006 16.2259 35.2357 15.2407 34.2988C14.2563 33.394 14.2296 31.8437 15.162 30.8631Z" fill="white"/>
<path d="M7.19156 27.1258C8.12404 26.1451 9.76663 26.2132 10.8874 27.2788C12.0082 28.3445 12.1432 29.998 11.2263 30.9623C10.2938 31.943 8.65122 31.8749 7.53046 30.8092C6.44392 29.745 6.25908 28.1065 7.19156 27.1258Z" fill="white"/>
</svg>
