<svg width="76" height="92" viewBox="0 0 76 92" fill="none" xmlns="http://www.w3.org/2000/svg">
<path d="M68.7445 46H43H68.7445Z" fill="white" stroke="white" stroke-width="3" stroke-miterlimit="10" stroke-linecap="round" stroke-linejoin="round"/>
<path d="M70.0823 38.5932H43.569V32.6751H63.092C64.8977 32.6751 66.6318 31.9218 67.7224 30.6665L74.7128 22.5963C76.286 20.7671 76.286 18.2205 74.7128 16.3912L67.7224 8.32107C66.6318 7.06571 64.8977 6.31249 63.092 6.31249H43.569V5.2006C43.569 2.40294 41.2985 0.107422 38.4916 0.107422H37.4905C34.7015 0.107422 32.4131 2.385 32.4131 5.2006V6.31249H20.0235C19.2905 6.31249 18.6827 6.92224 18.6827 7.65752C18.6827 8.3928 19.2905 9.00255 20.0235 9.00255H63.092C64.1468 9.00255 65.1122 9.41502 65.7022 10.0965L72.6925 18.1667C73.3898 18.9737 73.3898 20.0318 72.6925 20.8388L65.7022 28.909C65.1122 29.5905 64.1289 30.0029 63.092 30.0029H5.91766C4.18348 30.0029 2.77111 28.909 2.77111 27.5819V11.4057C2.77111 10.0606 4.18348 8.98461 5.91766 8.98461C14.8389 8.98461 23.7422 8.98461 32.6634 8.98461C32.574 8.46454 32.4846 7.87272 32.4488 7.22711C32.431 6.9043 32.431 6.5815 32.431 6.29456C23.5991 6.29456 14.7495 6.29456 5.91766 6.29456C2.6996 6.29456 0.089386 8.59007 0.089386 11.4057V27.5639C0.089386 30.3795 2.6996 32.6751 5.91766 32.6751H32.431V38.5932H12.908C11.1023 38.5932 9.36814 39.3464 8.27758 40.6018L1.28722 48.6719C-0.286055 50.5012 -0.286055 53.0478 1.28722 54.877L8.27758 62.9472C9.36814 64.2025 11.1023 64.9558 12.908 64.9558H32.431V81.0602H30.8577C28.2475 81.0602 26.12 83.1944 26.12 85.8127V90.5651C26.12 91.3004 26.7278 91.9101 27.4608 91.9101C34.1115 91.9101 40.78 91.9101 47.4307 91.9101C47.4486 91.4618 47.4486 90.9417 47.395 90.3858C47.3592 89.9554 47.2877 89.5788 47.2162 89.2201C41.084 89.2201 34.9339 89.2201 28.8017 89.2201V85.8127C28.8017 84.6829 29.7314 83.7503 30.8577 83.7503H45.1602C46.2865 83.7503 47.2162 84.6829 47.2162 85.8127V89.2201H40.5119C39.7789 89.2201 39.171 89.8298 39.171 90.5651C39.171 91.3004 39.7789 91.9101 40.5119 91.9101H48.557C49.29 91.9101 49.8979 91.3004 49.8979 90.5651V85.8127C49.8979 83.1944 47.7704 81.0602 45.1602 81.0602H43.5869V64.9737H70.0823C73.3004 64.9737 75.9106 62.6782 75.9106 59.8626V43.7043C75.9106 40.8887 73.3004 38.5932 70.0823 38.5932ZM35.1127 5.18266C35.1127 3.85557 36.1854 2.77955 37.5083 2.77955H38.5095C39.8325 2.77955 40.9052 3.85557 40.9052 5.18266V6.29456H35.1306V5.18266H35.1127ZM40.8873 32.6751V38.5753H35.1127V32.6751H40.8873ZM40.8873 81.0602H35.1127V64.9737H40.8873V81.0602ZM73.2289 59.8626C73.2289 61.2076 71.8165 62.2836 70.0823 62.2836H12.908C11.8711 62.2836 10.8878 61.8712 10.2978 61.1897L3.30745 53.1195C2.6102 52.3125 2.6102 51.2544 3.30745 50.4474L10.2978 42.3772C10.8878 41.6957 11.8711 41.2832 12.908 41.2832H70.0823C71.8165 41.2832 73.2289 42.3772 73.2289 43.7043V59.8626Z" fill="white"/>
<path d="M7.43732 13.4861H35.1127H7.43732Z" fill="white" stroke="white" stroke-width="3" stroke-miterlimit="10" stroke-linecap="round" stroke-linejoin="round"/>
<path d="M7.43732 18.2566H41.4058H7.43732Z" fill="white" stroke="white" stroke-width="3" stroke-miterlimit="10" stroke-linecap="round" stroke-linejoin="round"/>
<path d="M69.108 51H38H69.108Z" fill="white" stroke="white" stroke-width="3" stroke-miterlimit="10" stroke-linecap="round" stroke-linejoin="round"/>
</svg>
