<svg width="28" height="28" viewBox="0 0 28 28" fill="none" xmlns="http://www.w3.org/2000/svg">
<path d="M14 0C6.3 0 0 6.3 0 14C0 21.7 6.3 28 14 28C21.7 28 28 21.7 28 14C28 6.2 21.7 0 14 0ZM14 26.1C7.3 26.1 1.9 20.6 1.9 14C1.9 7.3 7.4 1.9 14 1.9C20.7 1.9 26.1 7.4 26.1 14C26.1 20.6 20.7 26.1 14 26.1Z" fill="white"/>
<path d="M18.0475 19.9051C18.5726 20.2347 19.1797 19.6475 18.95 19.0364L14.5853 7.43137C14.4868 7.17375 14.2571 7 14 7C13.7429 7 13.5132 7.16775 13.4147 7.43137L9.04999 19.0364C8.82027 19.6475 9.42739 20.2347 9.95248 19.9051L14 17.3768L18.0475 19.9051ZM14 15.8251V9.41447L17.156 17.7962L14.6126 16.2085L14 15.8251Z" fill="white"/>
</svg>
