<svg width="86" height="86" viewBox="0 0 86 86" fill="none" xmlns="http://www.w3.org/2000/svg">
<path d="M57.7462 47.2504C60.8962 45.7903 64.0133 44.7403 67.0977 44.084C67.9836 43.9036 68.5578 43.0177 68.361 42.1317C68.1805 41.2458 67.311 40.6716 66.4086 40.8685C62.8485 41.6231 59.2392 42.8864 55.6298 44.6254C53.6119 42.2137 51.2986 39.7036 48.8049 37.2099C46.1635 34.5685 43.4729 32.124 40.93 30.0076C43.1284 27.2186 44.9331 24.1178 46.2784 20.7054C48.3948 15.3898 49.4776 9.31955 49.4776 2.65868C49.4776 1.75634 48.7393 1.01807 47.8369 1.01807C46.9346 1.01807 46.1963 1.75634 46.1963 2.65868C46.1963 12.9289 43.5714 21.4272 38.3706 27.9733C37.3863 27.2186 36.4347 26.5295 35.5324 25.9225C30.6762 22.6413 27.7723 21.8702 26.1481 23.4288C26.1317 23.4452 26.1317 23.4452 26.1153 23.4616C25.7051 23.8717 25.4426 24.3803 25.3442 24.9874L1.12882 82.7204C0.866327 83.3274 1.01398 84.0493 1.48976 84.5086C1.78507 84.8368 2.21163 85.0008 2.63818 85.0008C2.85146 85.0008 3.06474 84.9516 3.27802 84.8696L61.011 60.6542C61.5524 60.5722 62.0282 60.3425 62.422 59.9815C62.4548 59.9651 62.4712 59.9323 62.504 59.8995C62.5204 59.8831 62.5204 59.8831 62.5368 59.8667C62.5532 59.8503 62.5532 59.8503 62.5696 59.8339C64.1282 58.2097 63.3571 55.3222 60.0759 50.4496C59.3868 49.4488 58.5993 48.366 57.7462 47.2504ZM14.0076 73.3197C13.6631 75.4525 12.9084 76.8634 12.5311 77.4376L5.68972 80.3087L12.6459 63.7385C14.0076 67.1346 14.4834 70.3994 14.0076 73.3197ZM24.1137 67.758C23.4575 71.5314 21.7021 73.3525 21.1935 73.7955L16.8623 75.6001C17.8302 72.1713 18.0763 66.7409 14.3685 59.6206L19.2904 47.8903C24.3927 57.5863 24.77 63.9846 24.1137 67.758ZM29.9543 70.1205L26.4106 71.5971C26.7551 70.7439 27.0504 69.776 27.2637 68.6768C28.5762 61.9667 26.427 53.6816 20.8982 44.0348L22.67 39.8021C24.0809 41.4919 25.6723 43.8872 26.3286 45.3965C26.5911 46.02 27.1981 46.3973 27.8379 46.3973C28.0512 46.3973 28.2809 46.3481 28.4778 46.2661C29.3145 45.9051 29.6918 44.9372 29.3309 44.1169C28.3629 41.8856 25.9348 38.3911 24.0645 36.4716L26.7715 30.0076C27.2473 30.8771 27.8379 31.8287 28.5434 32.8787C29.0356 33.6006 29.5606 34.3388 30.1348 35.1099C35.7457 43.6247 35.6144 52.3363 34.5152 58.1605C33.3668 64.3456 30.8731 68.8736 29.9543 70.1205ZM42.6034 64.8213L34.8105 68.0862C35.9425 65.6252 37.0746 62.3768 37.7636 58.7675C38.5183 54.7316 38.8628 49.416 37.4519 43.6903C38.223 44.5106 39.0269 45.3309 39.8472 46.1512C42.3081 48.6121 44.7854 50.8762 47.1479 52.8777C46.9182 60.6214 43.3581 64.1487 42.6034 64.8213ZM48.2471 62.4589C49.133 60.6378 49.9041 58.3081 50.2486 55.3714C51.233 56.1261 52.201 56.8152 53.1197 57.4386C54.1697 58.1441 55.1213 58.7347 55.9908 59.2105L48.2471 62.4589ZM54.022 54.0754C50.4619 51.5488 46.2456 47.9067 42.1604 43.838C38.0753 39.7528 34.4496 35.5529 31.923 31.9764C29.4785 28.5311 28.8223 26.7592 28.6418 26.0045C29.3965 26.185 31.1684 26.8412 34.6136 29.2858C35.1222 29.6467 35.6472 30.0404 36.1886 30.4342C36.0738 30.549 35.9589 30.6803 35.8441 30.7951C35.2043 31.435 35.2043 32.4685 35.8441 33.1084C36.1722 33.4365 36.5824 33.5841 37.0089 33.5841C37.4355 33.5841 37.8456 33.4201 38.1738 33.1084C38.387 32.8951 38.5839 32.6982 38.7808 32.4849C41.2745 34.5357 43.8995 36.9474 46.4752 39.5232C48.6901 41.738 50.7736 44.002 52.6275 46.1676C52.3322 46.3317 52.0369 46.4957 51.7416 46.6762C50.9541 47.1356 50.6916 48.1363 51.1346 48.9238C51.4463 49.4488 51.9877 49.7441 52.5619 49.7441C52.8408 49.7441 53.1197 49.6785 53.3822 49.5309C53.8416 49.2684 54.3009 49.0223 54.7439 48.7762C55.4494 49.6785 56.122 50.5645 56.7126 51.4012C59.1571 54.8464 59.8134 56.6183 59.9939 57.373C59.2392 57.1761 57.4673 56.5199 54.022 54.0754Z" fill="white" stroke="#FC8763" stroke-width="0.3"/>
<path d="M62.2579 26.3802C62.586 26.7083 62.9962 26.8559 63.4227 26.8559C63.8493 26.8559 64.2595 26.6919 64.5876 26.3802C68.2461 22.7216 74.1851 21.0318 78.5327 20.6872C79.4351 20.6216 80.1077 19.8177 80.0421 18.9154C79.9765 18.0131 79.1726 17.3404 78.2702 17.406C73.3484 17.7998 66.5727 19.7521 62.2743 24.0505C61.6181 24.7067 61.6181 25.7403 62.2579 26.3802Z" fill="white" stroke="#FC8763" stroke-width="0.3"/>
<path d="M83.7827 17.7342C83.7335 17.7178 83.6842 17.7013 83.635 17.7013C82.7491 17.4881 81.8632 18.0131 81.6499 18.899C81.4366 19.7849 81.9616 20.6708 82.8475 20.8841L82.9296 20.9005C83.0772 20.9333 83.2085 20.9498 83.3561 20.9498C84.078 20.9498 84.7506 20.474 84.9475 19.7357C85.1772 18.8662 84.6522 17.9638 83.7827 17.7342Z" fill="white" stroke="#FC8763" stroke-width="0.3"/>
<path d="M13.0561 14.7155H14.6967V16.3561C14.6967 17.2585 15.435 17.9967 16.3373 17.9967C17.2396 17.9967 17.9779 17.2585 17.9779 16.3561V14.7155H19.6185C20.5208 14.7155 21.2591 13.9772 21.2591 13.0749C21.2591 12.1726 20.5208 11.4343 19.6185 11.4343H17.9779V9.79368C17.9779 8.89135 17.2396 8.15308 16.3373 8.15308C15.435 8.15308 14.6967 8.89135 14.6967 9.79368V11.4343H13.0561C12.1537 11.4343 11.4155 12.1726 11.4155 13.0749C11.4155 13.9772 12.1537 14.7155 13.0561 14.7155Z" fill="white" stroke="#FC8763" stroke-width="0.3"/>
<path d="M51.4463 30.6293H53.0869V32.2699C53.0869 33.1723 53.8252 33.9105 54.7275 33.9105C55.6298 33.9105 56.3681 33.1723 56.3681 32.2699V30.6293H58.0087C58.911 30.6293 59.6493 29.8911 59.6493 28.9887C59.6493 28.0864 58.911 27.3481 58.0087 27.3481H56.3681V25.7075C56.3681 24.8052 55.6298 24.0669 54.7275 24.0669C53.8252 24.0669 53.0869 24.8052 53.0869 25.7075V27.3481H51.4463C50.5439 27.3481 49.8057 28.0864 49.8057 28.9887C49.8057 29.8911 50.5439 30.6293 51.4463 30.6293Z" fill="white" stroke="#FC8763" stroke-width="0.3"/>
<path d="M74.2508 69.5118H72.6102V67.8712C72.6102 66.9689 71.8719 66.2306 70.9696 66.2306C70.0673 66.2306 69.329 66.9689 69.329 67.8712V69.5118H67.6884C66.786 69.5118 66.0478 70.2501 66.0478 71.1524C66.0478 72.0548 66.786 72.793 67.6884 72.793H69.329V74.4336C69.329 75.336 70.0673 76.0742 70.9696 76.0742C71.8719 76.0742 72.6102 75.336 72.6102 74.4336V72.793H74.2508C75.1531 72.793 75.8914 72.0548 75.8914 71.1524C75.8914 70.2501 75.1531 69.5118 74.2508 69.5118Z" fill="white" stroke="#FC8763" stroke-width="0.3"/>
<path d="M64.9814 10.8437C67.6884 10.8437 69.9032 8.62883 69.9032 5.92183C69.9032 3.21482 67.6884 1 64.9814 1C62.2744 1 60.0595 3.21482 60.0595 5.92183C60.0595 8.62883 62.258 10.8437 64.9814 10.8437ZM64.9814 4.28122C65.8837 4.28122 66.622 5.01949 66.622 5.92183C66.622 6.82416 65.8837 7.56243 64.9814 7.56243C64.079 7.56243 63.3408 6.82416 63.3408 5.92183C63.3408 5.01949 64.079 4.28122 64.9814 4.28122Z" fill="white" stroke="#FC8763" stroke-width="0.3"/>
<path d="M75.2351 29.481C72.5281 29.481 70.3133 31.6958 70.3133 34.4028C70.3133 37.1098 72.5281 39.3246 75.2351 39.3246C77.9422 39.3246 80.157 37.1098 80.157 34.4028C80.157 31.6958 77.9422 29.481 75.2351 29.481ZM75.2351 36.0434C74.3328 36.0434 73.5945 35.3051 73.5945 34.4028C73.5945 33.5004 74.3328 32.7622 75.2351 32.7622C76.1375 32.7622 76.8758 33.5004 76.8758 34.4028C76.8758 35.3051 76.1375 36.0434 75.2351 36.0434Z" fill="white" stroke="#FC8763" stroke-width="0.3"/>
<path d="M33.5637 16.6841C36.2707 16.6841 38.4855 14.4693 38.4855 11.7623C38.4855 9.05528 36.2707 6.84045 33.5637 6.84045C30.8567 6.84045 28.6418 9.05528 28.6418 11.7623C28.6418 14.4693 30.8567 16.6841 33.5637 16.6841ZM33.5637 10.1217C34.466 10.1217 35.2043 10.8599 35.2043 11.7623C35.2043 12.6646 34.466 13.4029 33.5637 13.4029C32.6613 13.4029 31.9231 12.6646 31.9231 11.7623C31.9231 10.8599 32.6613 10.1217 33.5637 10.1217Z" fill="white" stroke="#FC8763" stroke-width="0.3"/>
<path d="M74.6937 49.2502C74.6937 48.3479 73.9554 47.6096 73.0531 47.6096C72.1507 47.6096 71.4124 48.3479 71.4124 49.2502C71.4124 50.1526 72.1507 50.8908 73.0531 50.8908C73.9554 50.8908 74.6937 50.1526 74.6937 49.2502Z" fill="white" stroke="#FC8763" stroke-width="0.3"/>
<path d="M55.9908 16.6023C56.8931 16.6023 57.6314 15.864 57.6314 14.9617C57.6314 14.0593 56.8931 13.321 55.9908 13.321C55.0885 13.321 54.3502 14.0593 54.3502 14.9617C54.3502 15.864 55.0885 16.6023 55.9908 16.6023Z" fill="white" stroke="#FC8763" stroke-width="0.3"/>
<path d="M77.9749 59.9142C77.0726 59.9142 76.3343 60.6525 76.3343 61.5548C76.3343 62.4571 77.0726 63.1954 77.9749 63.1954C78.8773 63.1954 79.6155 62.4571 79.6155 61.5548C79.6155 60.6525 78.8773 59.9142 77.9749 59.9142Z" fill="white" stroke="#FC8763" stroke-width="0.3"/>
<path d="M23.8349 5.92172C24.7372 5.92172 25.4755 5.18345 25.4755 4.28111C25.4755 3.37878 24.7372 2.6405 23.8349 2.6405C22.9325 2.6405 22.1943 3.37878 22.1943 4.28111C22.1943 5.18345 22.9325 5.92172 23.8349 5.92172Z" fill="white" stroke="#FC8763" stroke-width="0.3"/>
</svg>
