<svg width="80" height="80" viewBox="0 0 80 80" fill="none" xmlns="http://www.w3.org/2000/svg">
<path d="M59.485 37.2156C58.5946 37.2156 57.7161 37.3447 56.8614 37.5912L55.1876 33.4589H56.6359C57.0988 33.4589 57.4906 33.1302 57.5737 32.6724L58.5234 27.0375C58.6065 26.5209 58.2622 26.0396 57.7399 25.9574C57.6924 25.9457 57.6331 25.9457 57.5856 25.9457H53.7868C52.9439 25.9457 52.1248 26.2274 51.46 26.7557L48.8602 26.1101C48.4328 25.1592 47.3051 24.7365 46.3435 25.1709C45.3819 25.5935 44.9546 26.7088 45.3938 27.6597C45.833 28.6106 46.9489 29.0332 47.9105 28.5988C48.2073 28.4697 48.4685 28.2584 48.6584 28.0001L50.2373 28.3875C50.0711 28.8101 49.988 29.2562 49.988 29.7023C49.988 29.761 49.9998 29.8197 50.0117 29.8784C49.7031 29.761 49.3707 29.7023 49.0383 29.7023H42.3429C41.6069 29.7023 40.8827 29.8784 40.2179 30.1954L37.4163 31.5806H28.1449C27.8244 31.5806 27.5038 31.6393 27.1952 31.7567V30.6415C27.1952 30.1249 26.7678 29.7023 26.2455 29.7023H16.7485C16.2262 29.7023 15.7988 30.1249 15.7988 30.6415V36.2764H12.9497C12.4274 36.2764 12 36.699 12 37.2156V42.8505C12 43.367 12.4274 43.7896 12.9497 43.7896H14.3505C14.1487 44.4001 14.0181 45.034 13.9469 45.668H12.9497C12.4274 45.668 12 46.0906 12 46.6071V50.3637C12 50.8803 12.4274 51.3029 12.9497 51.3029H15.2052C17.805 55.7756 23.5745 57.3252 28.0974 54.766C29.5576 53.9443 30.7566 52.7468 31.5994 51.3029H31.9556C33.1546 51.3029 34.2348 50.5516 34.6266 49.4246H44.8477C46.0586 49.4246 47.1389 48.6733 47.5425 47.5463L52.5996 33.2476C52.7777 33.3063 52.9439 33.3533 53.1339 33.3885L55.1163 38.2838C50.4747 40.6904 48.6821 46.3606 51.1157 50.939C53.5493 55.5173 59.2832 57.3017 63.9129 54.8952C68.5546 52.4886 70.3471 46.8184 67.9135 42.24C66.2634 39.1408 63.0226 37.2038 59.485 37.2156ZM56.4697 27.824L55.8405 31.5806H54.4397L52.9914 28.0118C53.2407 27.8944 53.5137 27.8358 53.7986 27.824H56.4697ZM41.0608 31.8741C41.4525 31.6745 41.8918 31.5806 42.331 31.5806H49.0383C49.5606 31.5806 49.988 32.0033 49.988 32.5198V34.3981C49.988 34.9146 49.5606 35.3373 49.0383 35.3373H37.903L38.4491 33.1655L41.0608 31.8741ZM43.5775 41.9113H42.3904V37.2156H44.9308L43.5775 41.9113ZM36.6922 41.9113V37.2156H40.491V41.9113H36.6922ZM19.7282 45.668C19.8113 45.3393 19.9419 45.0223 20.1199 44.7288H21.2952C21.0459 44.9988 20.8559 45.3158 20.7254 45.668H19.7282ZM17.6982 35.3373H20.5473V36.2764H22.4467V35.3373H25.2958V42.8505H17.6982V35.3373ZM34.7928 38.5539L30.994 40.8078L30.7091 40.6435C29.7594 39.5048 28.5604 38.6126 27.1833 38.0256V37.2156H34.7809V38.5539H34.7928ZM26.0674 45.668C25.9487 45.3158 25.7469 44.9988 25.4976 44.7288H26.2336C26.3642 44.7288 26.4829 44.7053 26.6016 44.6584C26.8034 44.9753 26.9578 45.3158 27.0527 45.668H26.0674ZM28.9996 45.668C28.7859 44.4118 28.1449 43.2731 27.1952 42.4161V40.1152C28.0262 40.5848 28.7741 41.2187 29.3676 41.9583C30.2224 43.0266 30.7566 44.3062 30.9228 45.6562H28.9996V45.668ZM33.8431 44.7288V46.3958C33.5582 46.1375 33.2258 45.9497 32.8578 45.8206C32.7509 44.6466 32.4304 43.5079 31.9081 42.4513L34.7928 40.7374V42.6274C34.1873 43.1675 33.8431 43.9305 33.8431 44.7288ZM28.1449 33.4589H36.431L35.9562 35.3373H27.1952V34.3981C27.1952 33.8698 27.6226 33.4589 28.1449 33.4589ZM17.6982 31.5806H25.2958V33.4589H22.4467V32.5198H20.5473V33.4589H17.6982V31.5806ZM13.8994 38.1547H15.7988V41.0074C15.5732 41.3009 15.3714 41.5944 15.1934 41.9113H13.8994V38.1547ZM16.1193 44.4823C16.2855 44.6349 16.5111 44.7288 16.7485 44.7288H18.0306C17.9237 45.034 17.8407 45.351 17.7813 45.668H15.8582C15.9175 45.2571 16.0006 44.8697 16.1193 44.4823ZM23.3964 54.1204C21.0934 54.1204 18.9209 53.0873 17.4845 51.3029H29.2964C27.8718 53.0755 25.6994 54.1204 23.3964 54.1204ZM31.9437 49.4246H13.8994V47.5463H31.9437C32.466 47.5463 32.8934 47.9689 32.8934 48.4854C32.8934 49.002 32.466 49.4246 31.9437 49.4246ZM36.6922 47.5463C36.1698 47.5463 35.7425 47.1236 35.7425 46.6071V44.7288C35.7425 44.2123 36.1698 43.7896 36.6922 43.7896H44.2898C44.8121 43.7896 45.2395 44.2123 45.2395 44.7288V46.6071C45.2395 47.1236 44.8121 47.5463 44.2898 47.5463H36.6922ZM46.9133 43.6136C46.6284 42.9679 46.1179 42.4631 45.4769 42.1696L46.9133 37.2156H49.0501C49.0976 37.2156 49.1451 37.2038 49.1926 37.2038L46.9133 43.6136ZM58.5709 44.3531C58.5827 44.3531 58.5827 44.3414 58.5946 44.3414C58.8795 44.224 59.1763 44.1653 59.4731 44.1653C60.8383 44.1536 61.9423 45.2453 61.9542 46.5954C61.9661 47.9454 60.862 49.0372 59.4968 49.0489C58.1316 49.0607 57.0276 47.9689 57.0157 46.6189C57.0157 45.6445 57.5974 44.764 58.4997 44.3649C58.5234 44.3649 58.5471 44.3649 58.5709 44.3531ZM67.0826 46.6071C67.0826 50.7511 63.6874 54.1204 59.485 54.1204C55.2825 54.1204 51.8874 50.7629 51.8874 46.6071C51.8874 42.4514 55.2825 39.0939 59.485 39.0939C63.6874 39.0939 67.0826 42.4631 67.0826 46.6071Z" fill="white"/>
</svg>
