<svg width="80" height="80" viewBox="0 0 80 80" fill="none" xmlns="http://www.w3.org/2000/svg">
<path d="M31.8375 59.9963C33.2689 59.9963 34.4294 58.8358 34.4294 57.4044C34.4294 55.9729 33.2689 54.8125 31.8375 54.8125C30.406 54.8125 29.2456 55.9729 29.2456 57.4044C29.2456 58.8358 30.406 59.9963 31.8375 59.9963Z" fill="white"/>
<path d="M40.0025 59.9963C41.434 59.9963 42.5944 58.8358 42.5944 57.4044C42.5944 55.9729 41.434 54.8125 40.0025 54.8125C38.5711 54.8125 37.4106 55.9729 37.4106 57.4044C37.4106 58.8358 38.5711 59.9963 40.0025 59.9963Z" fill="white"/>
<path d="M48.1676 59.9963C49.599 59.9963 50.7595 58.8358 50.7595 57.4044C50.7595 55.9729 49.599 54.8125 48.1676 54.8125C46.7361 54.8125 45.5757 55.9729 45.5757 57.4044C45.5757 58.8358 46.7361 59.9963 48.1676 59.9963Z" fill="white"/>
<path d="M39.4116 35.1645C39.4116 35.5812 39.7477 35.9173 40.1645 35.9173C40.5812 35.9173 40.9173 35.5812 40.9173 35.1645C40.9173 34.7477 40.5812 34.4116 40.1645 34.4116C39.7477 34.4116 39.4116 34.7477 39.4116 35.1645Z" fill="white"/>
<path d="M44.6545 27.5154C44.6411 27.5019 44.6276 27.5019 44.6142 27.4885C44.6008 27.475 44.5873 27.475 44.5739 27.4616C43.2833 26.7222 41.7776 26.292 40.1778 26.292C38.578 26.292 37.0857 26.7222 35.7817 27.4616C35.7683 27.475 35.7548 27.475 35.7414 27.4885C35.7279 27.5019 35.7145 27.5019 35.701 27.5154C33.0661 29.0614 31.2915 31.9115 31.2915 35.1648C31.2915 38.4182 33.0526 41.2817 35.6876 42.8143C35.701 42.8277 35.7145 42.8277 35.7279 42.8412C35.7414 42.8546 35.7548 42.8546 35.7683 42.8681C37.0588 43.6075 38.5645 44.0377 40.1643 44.0377C41.7641 44.0377 43.2564 43.6209 44.5604 42.8681C44.5739 42.8546 44.5873 42.8546 44.6008 42.8412C44.6142 42.8277 44.6276 42.8277 44.6411 42.8143C47.2626 41.2683 49.0237 38.4182 49.0237 35.1648C49.0372 31.9115 47.2761 29.0614 44.6545 27.5154ZM40.1643 27.8111C41.2398 27.8111 42.2481 28.0397 43.1623 28.4564L41.1726 31.898C40.85 31.8039 40.5139 31.7501 40.1509 31.7501C39.8014 31.7501 39.4518 31.8039 39.1292 31.898L37.1664 28.4564C38.0806 28.0397 39.1023 27.8111 40.1643 27.8111ZM42.0868 35.1648C42.0868 36.2269 41.2264 37.0738 40.1778 37.0738C39.1157 37.0738 38.2688 36.2134 38.2688 35.1648C38.2688 34.1028 39.1292 33.2558 40.1778 33.2558C41.2264 33.2558 42.0868 34.1162 42.0868 35.1648ZM35.8489 29.2093L37.8386 32.6509C37.3412 33.1079 36.9782 33.7264 36.8169 34.412H32.851C33.0661 32.2744 34.2088 30.4058 35.8489 29.2093ZM32.851 35.9311H36.8303C36.9916 36.6167 37.3546 37.2217 37.852 37.6922L35.8624 41.1338C34.2088 39.9239 33.0661 38.0552 32.851 35.9311ZM40.1643 42.532C39.0888 42.532 38.0806 42.3034 37.1664 41.8867L39.1561 38.4451C39.4787 38.5392 39.8148 38.593 40.1778 38.593C40.5273 38.593 40.8769 38.5392 41.1995 38.4451L43.1892 41.8867C42.2481 42.3034 41.2398 42.532 40.1643 42.532ZM44.4798 41.1204L42.4901 37.6788C42.9875 37.2217 43.3505 36.6033 43.5118 35.9177H47.4912C47.2626 38.0552 46.1333 39.9239 44.4798 41.1204ZM43.5118 34.412C43.3505 33.7264 42.9875 33.1214 42.4901 32.6509L44.4798 29.2093C46.1333 30.4058 47.2626 32.2744 47.4912 34.412H43.5118Z" fill="white"/>
<path d="M40.1645 20C31.8025 20 25 26.8025 25 35.1645C25 43.5265 31.8025 50.329 40.1645 50.329C48.5265 50.329 55.329 43.5265 55.329 35.1645C55.329 26.8025 48.5265 20 40.1645 20ZM40.1645 48.8233C32.636 48.8233 26.5057 42.693 26.5057 35.1645C26.5057 27.636 32.636 21.5191 40.1645 21.5191C47.693 21.5191 53.8233 27.6495 53.8233 35.1779C53.8233 42.7064 47.693 48.8233 40.1645 48.8233Z" fill="white"/>
</svg>
