<svg width="25" height="25" viewBox="0 0 25 25" fill="none" xmlns="http://www.w3.org/2000/svg">
<path d="M22.9017 2.09325C21.4444 0.635582 19.071 0.635582 17.6137 2.09325L2.58225 17.1281C2.58225 17.1281 2.58225 17.1281 2.58225 17.1698C2.58225 17.1698 2.58225 17.1698 2.54062 17.2114C2.49898 17.2531 2.49898 17.2947 2.49898 17.2947C2.49898 17.2947 2.49898 17.2947 2.49898 17.3364L1 23.5002C1 23.5419 1 23.5419 1 23.5835C1 23.6252 1 23.6668 1.04164 23.7085C1.04164 23.7085 1.04164 23.7085 1.04164 23.7501C1.04164 23.7918 1.08328 23.8334 1.12491 23.8751C1.16655 23.9167 1.20819 23.9584 1.24983 23.9584C1.29147 23.9584 1.33311 24 1.41638 24C1.45802 24 1.49966 24 1.49966 24L7.70376 22.5423H7.7454H7.78704C7.82868 22.5423 7.82868 22.5007 7.87032 22.5007C7.87032 22.5007 7.87032 22.5007 7.91195 22.459L22.9434 7.42417C24.3591 5.9665 24.3591 3.55093 22.9017 2.09325ZM22.3188 2.67632C23.3598 3.71752 23.443 5.34178 22.6103 6.46627L18.5297 2.38479C19.6539 1.55183 21.2778 1.67678 22.3188 2.67632ZM20.2785 8.88185L16.1563 4.75871L16.7393 4.17565L20.8615 8.29878L20.2785 8.88185ZM3.08191 21.9593C2.91536 21.7927 2.66553 21.7927 2.49898 21.9593L2.16587 22.2508L3.24847 17.7945L5.08055 17.5862L4.83072 19.7103V19.7519V19.7936V19.8352C4.83072 19.8769 4.83072 19.8769 4.87236 19.9185C4.87236 19.9602 4.914 19.9602 4.914 20.0018L4.95564 20.0435C4.95564 20.0851 4.99727 20.0851 5.03891 20.0851L5.08055 20.1268C5.12219 20.1268 5.12219 20.1268 5.16383 20.1684H5.20547H5.2471H5.28874L7.41229 19.9185L7.2041 21.751L2.74881 22.8755L3.08191 22.5423C3.24847 22.3757 3.24847 22.1258 3.08191 21.9593ZM8.2867 19.6686L17.6137 10.3395C17.7802 10.1729 17.7802 9.92304 17.6137 9.75645C17.4471 9.58986 17.1973 9.58986 17.0307 9.75645L7.70376 19.0856L5.70513 19.2938L5.91332 17.2947L15.2403 7.9656C15.4068 7.799 15.4068 7.54912 15.2403 7.38253C15.0737 7.21594 14.8239 7.21594 14.6574 7.38253L5.33038 16.7116L3.99796 16.8782L15.5318 5.34178L19.6539 9.46492L8.16178 21.0014L8.2867 19.6686ZM21.4444 7.71571L17.3222 3.59258L17.9051 3.00951L22.0273 7.13264L21.4444 7.71571Z" fill="white" stroke="white" stroke-width="0.3"/>
</svg>
