<svg width="51" height="88" viewBox="0 0 51 88" fill="none" xmlns="http://www.w3.org/2000/svg">
<path d="M50.198 10.0181C50.198 5.04617 46.1738 1 41.1907 1H10.0074C5.0242 1 1 5.02902 1 10.0181V77.6543C1 82.6262 5.0242 86.6724 10.0074 86.6724H41.1907C46.1567 86.6724 50.198 82.6434 50.198 77.6543V10.0181ZM5.28107 16.636H45.9341V66.5445H5.28107V16.636ZM9.95599 5.28619H41.242C43.8449 5.28619 45.9341 7.46358 45.9341 10.0696V12.3498H5.28107V10.0696C5.28107 7.46358 7.3531 5.28619 9.95599 5.28619ZM41.242 82.3862H9.95599C7.38735 82.4034 5.28107 80.3289 5.26394 77.7571V70.8135H45.917V77.7057C45.9341 80.2774 43.862 82.3691 41.2934 82.3862H41.242Z" fill="white" stroke="#FC8763"/>
<path d="M29.786 74.4653H21.4123C20.2307 74.4653 19.2717 75.4254 19.2717 76.6084C19.2717 77.7914 20.2307 78.7515 21.4123 78.7515H29.786C30.9676 78.7515 31.9266 77.7914 31.9266 76.6084C31.9266 75.4254 30.9676 74.4653 29.786 74.4653Z" fill="white" stroke="#FC8763"/>
</svg>
