<svg width="83" height="62" viewBox="0 0 83 62" fill="none" xmlns="http://www.w3.org/2000/svg">
<path d="M41.4999 18.5498C33.2987 18.5498 26.6499 25.1986 26.6499 33.3998C26.6499 41.6011 33.2987 48.2498 41.4999 48.2498C49.7012 48.2329 56.333 41.6011 56.3499 33.3998C56.3499 25.1986 49.7012 18.5498 41.4999 18.5498ZM41.4999 45.5498C34.7837 45.5498 29.3499 40.1161 29.3499 33.3998C29.3499 26.6836 34.7837 21.2498 41.4999 21.2498C48.1993 21.2498 53.6499 26.7004 53.6499 33.3998C53.6499 40.1161 48.2162 45.5498 41.4999 45.5498Z" fill="white" stroke="white" stroke-width="0.4"/>
<path d="M75.25 10.45V7.75C75.25 7.0075 74.6425 6.4 73.9 6.4H65.8C65.0575 6.4 64.45 7.0075 64.45 7.75V10.45H61.1763L57.7169 4.40875C56.5188 2.29938 54.2912 1 51.8612 1H31.1388C28.7088 1 26.4812 2.29938 25.2831 4.40875L21.8238 10.45H21.25V6.4C21.25 5.6575 20.6425 5.05 19.9 5.05H9.1C8.3575 5.05 7.75 5.6575 7.75 6.4V10.45C4.02062 10.45 1 13.4706 1 17.2V55C1 58.7294 4.02062 61.75 7.75 61.75H75.25C78.9794 61.75 82 58.7294 82 55V17.2C82 13.4706 78.9794 10.45 75.25 10.45ZM67.15 9.1H72.55V10.45H67.15V9.1ZM10.45 7.75H18.55V10.45H10.45V7.75ZM79.3 55C79.3 57.2444 77.4944 59.05 75.25 59.05H7.75C5.50563 59.05 3.7 57.2444 3.7 55V17.2C3.7 14.9556 5.50563 13.15 7.75 13.15H22.6C23.0894 13.15 23.5281 12.8969 23.7644 12.475L27.6119 5.74188C28.3375 4.47625 29.6875 3.7 31.1388 3.7H51.8781C53.3294 3.7 54.6625 4.47625 55.3881 5.74188L59.2356 12.475C59.4719 12.8969 59.9275 13.15 60.4 13.15H75.25C77.4944 13.15 79.3 14.9556 79.3 17.2V55Z" fill="white" stroke="white" stroke-width="0.4"/>
<path d="M41.5 13.1501C30.3119 13.1501 21.25 22.212 21.25 33.4001C21.25 44.5883 30.3119 53.6501 41.5 53.6501C52.6881 53.6501 61.75 44.5883 61.75 33.4001C61.7331 22.2289 52.6712 13.167 41.5 13.1501ZM41.5 50.9501C31.8138 50.9501 23.95 43.0864 23.95 33.4001C23.95 23.7139 31.8138 15.8501 41.5 15.8501C51.1863 15.8501 59.05 23.7139 59.05 33.4001C59.0331 43.0864 51.1863 50.9333 41.5 50.9501Z" fill="white" stroke="white" stroke-width="0.4"/>
<path d="M14.4999 17.2002C13.7574 17.2002 13.1499 17.8077 13.1499 18.5502V50.9502C13.1499 51.6927 13.7574 52.3002 14.4999 52.3002C15.2424 52.3002 15.8499 51.6927 15.8499 50.9502V18.5502C15.8499 17.8077 15.2424 17.2002 14.4999 17.2002Z" fill="white" stroke="white" stroke-width="0.4"/>
<path d="M68.5 15.8503C66.2556 15.8503 64.45 17.656 64.45 19.9003C64.45 22.1447 66.2556 23.9503 68.5 23.9503C70.7443 23.9503 72.55 22.1447 72.55 19.9003C72.55 17.656 70.7443 15.8503 68.5 15.8503ZM68.5 21.2503C67.7575 21.2503 67.15 20.6428 67.15 19.9003C67.15 19.1578 67.7575 18.5503 68.5 18.5503C69.2425 18.5503 69.85 19.1578 69.85 19.9003C69.85 20.6428 69.2425 21.2503 68.5 21.2503Z" fill="white" stroke="white" stroke-width="0.4"/>
</svg>
