<svg width="28" height="28" viewBox="0 0 28 28" fill="none" xmlns="http://www.w3.org/2000/svg">
<path d="M14 0C6.3 0 0 6.3 0 14C0 21.7 6.3 28 14 28C21.7 28 28 21.7 28 14C28 6.2 21.7 0 14 0ZM14 26.1C7.3 26.1 1.9 20.6 1.9 14C1.9 7.3 7.4 1.9 14 1.9C20.7 1.9 26.1 7.4 26.1 14C26.1 20.6 20.7 26.1 14 26.1Z" fill="white"/>
<path d="M9.01924 12.942C9.05786 13.0287 9.14419 13.085 9.24414 13.085H11.8975V18.8586C11.8975 18.9864 12.0065 19.0903 12.1406 19.0903H16.0161C16.1501 19.0903 16.2591 18.9864 16.2591 18.8586V13.0828H18.9238C19.0215 13.0828 19.1101 13.0265 19.1487 12.9399C19.1851 12.8532 19.1646 12.7536 19.0965 12.6886L14.2623 8.06713C14.2169 8.02382 14.1556 8 14.0897 8C14.0261 8 13.9647 8.02382 13.917 8.06713L9.06922 12.6908C9.00107 12.7558 8.98062 12.8554 9.01924 12.942Z" fill="white"/>
</svg>
