<svg width="80" height="80" viewBox="0 0 80 80" fill="none" xmlns="http://www.w3.org/2000/svg">
<path d="M15.9265 33.0288L17.1014 32.5045C18.2089 32.0191 19.403 31.7667 20.6068 31.7667H24.4877V31.5822C24.4877 31.4172 24.4974 31.2619 24.5263 31.0968L25.1426 29.66C25.7397 28.8736 26.6545 28.4173 27.6368 28.4173H27.6946C28.2628 28.4173 28.8213 28.6017 29.2932 28.9221C29.8806 29.3202 30.5644 29.5338 31.277 29.5338H36.7566C37.6329 29.5338 38.49 29.2037 39.1353 28.6017C39.1642 28.5726 39.193 28.5435 39.2316 28.5241C40.1561 27.6115 41.3984 27.0969 42.6984 27.0969H47.1572L46.5987 25.0193H46.1942C45.366 25.0193 44.6245 24.5048 44.3259 23.7281H40.8976C40.5027 23.7281 40.185 23.4077 40.185 23.0097C40.185 22.6116 40.5027 22.2912 40.8976 22.2912H44.3259C44.6245 21.5145 45.366 21 46.1942 21H48.8714C49.7766 21 50.5759 21.6213 50.8071 22.5048H51.8279C52.9835 22.5048 53.9946 23.2912 54.3028 24.4077L55.0251 27.126C55.2369 27.9027 55.0732 28.7279 54.5917 29.3687C54.5147 29.4755 54.428 29.5726 54.3317 29.66L52.2708 31.0968C52.319 31.3201 52.3479 31.5434 52.3575 31.7667H56.7874C57.3748 31.7667 57.9719 31.8347 58.5401 31.9803C58.9157 32.0774 59.2046 32.1356 59.5513 32.3104C60.2735 32.6793 60.9669 33.3589 60.8321 33.6501C60.755 33.8249 60.3891 33.8249 60.0231 33.8152C59.9172 33.8152 59.6283 33.8055 59.0216 33.6404C58.6171 33.5336 58.4823 33.4463 58.2319 33.3783C57.7601 33.2618 57.2785 33.2036 56.7874 33.2036H49.9885C47.0513 33.223 44.5474 35.3685 44.0659 38.3005C43.9889 38.7956 43.5651 39.1549 43.074 39.1549L36.3672 38.8635C35.9723 38.8635 36.8107 38.6986 36.8107 38.3005C36.8107 37.9025 36.6618 37.718 37.0566 37.718H42.7273C43.4592 34.2521 46.4831 31.7764 49.9981 31.7667H50.9322C50.7589 29.9415 49.2373 28.5435 47.4076 28.5435H42.6888C41.8125 28.5435 40.965 28.8736 40.3198 29.4658L40.9168 30.6502C41.4754 31.7473 41.042 33.0968 39.9442 33.6501L36.2366 35.553C36.6796 36.3394 36.9877 37.1937 37.1226 38.0869C37.19 38.4753 36.9536 38.7825 36.5684 38.8505C36.1831 38.9184 35.7936 38.7374 35.7262 38.349C35.7262 38.3393 35.7262 38.3296 35.7165 38.3199C35.235 35.3977 32.7312 33.2424 29.794 33.223H20.6068C19.5956 33.223 18.6037 33.4366 17.6792 33.8443L16.5043 34.3686C16.4465 34.3977 16.4176 34.4657 16.4465 34.5239L17.6118 37.2034C17.6214 37.2326 17.6503 37.252 17.6792 37.2714C17.7081 37.2811 17.737 37.2811 17.7659 37.2714L18.9407 36.7569C19.4704 36.5239 20.0386 36.4074 20.6164 36.4074H29.8132C31.3252 36.4074 32.5675 37.5918 32.6638 39.1063L32.8949 42.912C33.0297 45.1353 34.8595 46.8634 37.0648 46.8731H42.737C44.9423 46.8731 46.7624 45.145 46.9068 42.9314L47.1572 38.9995C47.1572 38.9898 47.1572 38.9801 47.1572 38.9607C47.3209 37.5044 48.544 36.3976 49.9981 36.3976H56.7874C58.3668 36.3976 59.6476 37.6889 59.6476 39.2811V39.9218C59.6476 39.9898 59.6957 40.0383 59.7631 40.0383H62.6618C62.7292 40.0383 62.7774 39.9801 62.7774 39.9218V39.2811C62.7774 38.5821 62.6618 37.8927 62.4211 37.2326C62.1996 36.6112 61.8818 36.0384 61.4773 35.5239C60.2543 33.9608 58.5305 33.5336 58.5882 33.3783C58.6557 33.2036 60.6684 33.9705 60.8321 33.6501C60.9862 33.3492 59.3683 32.3298 59.4261 32.2521C59.4646 32.1939 61.2462 32.8735 62.6137 34.621C63.6537 35.9316 64.2219 37.5724 64.2123 39.2616V39.9024C64.2123 40.7665 63.5189 41.4558 62.6618 41.4655H59.7631C59.715 41.4655 59.6765 41.4655 59.6283 41.4558V42.4169C59.6283 42.9217 59.5609 43.4363 59.4357 43.9217C63.0567 46.6013 63.8367 51.737 61.1788 55.3874C58.5208 59.0378 53.4265 59.8242 49.8055 57.1447C47.0705 55.1156 45.8668 51.5914 46.7913 48.2905H33.0201C33.2223 48.9992 28.8887 43.7664 25.1907 43.7664C21.4927 43.7664 17.737 46.7663 18.883 45.3586C18.3726 44.4654 18.1029 43.4557 18.1029 42.4169V39.5626C18.1029 39.2422 18.1318 38.9316 18.18 38.6209C17.4288 38.8636 16.6102 38.4947 16.2924 37.7568L15.1272 35.0773C14.7901 34.2909 15.1465 33.3686 15.9265 33.0288ZM48.8618 22.4466H46.1846C45.8668 22.4563 45.626 22.7281 45.6356 23.0485C45.6453 23.3495 45.886 23.5922 46.1846 23.6019H48.8618C49.1796 23.6116 49.4396 23.3689 49.4588 23.0485C49.4781 22.7281 49.2277 22.466 48.9099 22.4466C48.9003 22.4466 48.881 22.4466 48.8618 22.4466ZM51.2404 28.9512H52.5501C53.1761 28.9512 53.6865 28.4367 53.6865 27.8056C53.6865 27.7086 53.6769 27.6018 53.648 27.5047L52.9161 24.7863C52.7812 24.2912 52.3286 23.9417 51.8182 23.9417H50.6337C50.2967 24.6116 49.6129 25.029 48.8618 25.029H48.0624L48.6692 27.2717C49.6803 27.5435 50.5856 28.126 51.2404 28.9512ZM34.6283 33.5725C34.9076 33.8152 35.1676 34.0773 35.4084 34.3589L39.299 32.3589C39.6842 32.155 39.8383 31.6793 39.6457 31.291L39.1641 30.3396C38.4226 30.757 37.5944 30.9803 36.747 30.9803H31.2674C30.2755 30.9803 29.3028 30.6794 28.4843 30.1163C28.2531 29.9512 27.9739 29.8638 27.685 29.8541H27.6272C26.6834 29.8541 25.913 30.6308 25.913 31.5822V31.7667H29.8036C31.5756 31.7667 33.2897 32.4075 34.6283 33.5725ZM54.6206 57.2903C58.3282 57.2903 61.3329 54.2612 61.3329 50.5235C61.3329 46.7857 58.3282 43.7567 54.6206 43.7567C50.913 43.7567 47.9084 46.7857 47.9084 50.5235C47.918 54.2612 50.913 57.2806 54.6206 57.2903ZM47.3498 46.844C49.3336 42.8441 54.1391 41.1839 58.1453 43.1256C58.1838 42.8926 58.203 42.6499 58.203 42.4072L58.2223 39.2519C58.2223 38.4558 57.5771 37.8054 56.7874 37.8054H49.9885C49.2662 37.8054 48.6499 38.349 48.5632 39.0772L48.3225 42.98C48.2262 44.4654 47.5617 45.844 46.4542 46.8343L47.3498 46.844ZM25.2004 42.3198C28.282 42.3198 31.094 44.0771 32.4712 46.844H33.3283C32.2208 45.8537 31.5563 44.4654 31.46 42.9703L31.2289 39.1549C31.1807 38.3976 30.5548 37.8054 29.794 37.8054H20.6068C20.3468 37.8054 20.0964 37.8442 19.846 37.9122C19.6438 38.4364 19.5378 38.9898 19.5378 39.5529V42.4072C19.5378 43.048 19.6726 43.6887 19.9423 44.2712C21.4061 43.0091 23.2743 42.3198 25.2004 42.3198Z" fill="white"/>
<path d="M60.8321 33.6501C60.9669 33.3589 60.2735 32.6793 59.5513 32.3104C59.2046 32.1356 58.9157 32.0774 58.5401 31.9803C57.9719 31.8347 57.3748 31.7667 56.7874 31.7667H52.3575C52.3479 31.5434 52.319 31.3201 52.2708 31.0968L54.3317 29.66C54.428 29.5726 54.5147 29.4755 54.5917 29.3687C55.0732 28.7279 55.2369 27.9027 55.0251 27.126L54.3028 24.4077C53.9946 23.2912 52.9835 22.5048 51.8279 22.5048H50.8071C50.5759 21.6213 49.7766 21 48.8714 21H46.1942C45.366 21 44.6245 21.5145 44.3259 22.2912H40.8976C40.5027 22.2912 40.185 22.6116 40.185 23.0097C40.185 23.4077 40.5027 23.7281 40.8976 23.7281H44.3259C44.6245 24.5048 45.366 25.0193 46.1942 25.0193H46.5987L47.1572 27.0969H42.6984C41.3984 27.0969 40.1561 27.6115 39.2316 28.5241C39.193 28.5435 39.1642 28.5726 39.1353 28.6017C38.49 29.2037 37.6329 29.5338 36.7566 29.5338H31.277C30.5644 29.5338 29.8806 29.3202 29.2932 28.9221C28.8213 28.6017 28.2628 28.4173 27.6946 28.4173H27.6368C26.6545 28.4173 25.7397 28.8736 25.1426 29.66L24.5263 31.0968C24.4974 31.2619 24.4877 31.4172 24.4877 31.5822V31.7667H20.6068C19.403 31.7667 18.2089 32.0191 17.1014 32.5045L15.9265 33.0288C15.1465 33.3686 14.7901 34.2909 15.1272 35.0773L16.2924 37.7568C16.6102 38.4947 17.4288 38.8636 18.18 38.6209C18.1318 38.9316 18.1029 39.2422 18.1029 39.5626V42.4169C18.1029 43.4557 18.3726 44.4654 18.883 45.3586C17.737 46.7663 21.4927 43.7664 25.1907 43.7664C28.8887 43.7664 33.2223 48.9992 33.0201 48.2905H46.7913C45.8668 51.5914 47.0705 55.1156 49.8055 57.1447C53.4265 59.8242 58.5208 59.0378 61.1788 55.3874C63.8367 51.737 63.0567 46.6013 59.4357 43.9217C59.5609 43.4363 59.6283 42.9217 59.6283 42.4169V41.4558C59.6765 41.4655 59.715 41.4655 59.7631 41.4655H62.6618C63.5189 41.4558 64.2123 40.7665 64.2123 39.9024V39.2616C64.2219 37.5724 63.6537 35.9316 62.6137 34.621C61.2462 32.8735 59.4646 32.1939 59.4261 32.2521C59.3683 32.3298 60.9862 33.3492 60.8321 33.6501ZM60.8321 33.6501C60.755 33.8249 60.3891 33.8249 60.0231 33.8152C59.9172 33.8152 59.6283 33.8055 59.0216 33.6404C58.6171 33.5336 58.4823 33.4463 58.2319 33.3783C57.7601 33.2618 57.2785 33.2036 56.7874 33.2036H49.9885C47.0513 33.223 44.5474 35.3685 44.0659 38.3005C43.9889 38.7956 43.5651 39.1549 43.074 39.1549L36.3672 38.8635C35.9723 38.8635 36.8107 38.6986 36.8107 38.3005C36.8107 37.9025 36.6618 37.718 37.0566 37.718H42.7273C43.4592 34.2521 46.4831 31.7764 49.9981 31.7667H50.9322C50.7589 29.9415 49.2373 28.5435 47.4076 28.5435H42.6888C41.8125 28.5435 40.965 28.8736 40.3198 29.4658L40.9168 30.6502C41.4754 31.7473 41.042 33.0968 39.9442 33.6501L36.2366 35.553C36.6796 36.3394 36.9877 37.1937 37.1226 38.0869C37.19 38.4753 36.9536 38.7825 36.5684 38.8505C36.1831 38.9184 35.7936 38.7374 35.7262 38.349C35.7262 38.3393 35.7262 38.3296 35.7165 38.3199C35.235 35.3977 32.7312 33.2424 29.794 33.223H20.6068C19.5956 33.223 18.6037 33.4366 17.6792 33.8443L16.5043 34.3686C16.4465 34.3977 16.4176 34.4657 16.4465 34.5239L17.6118 37.2034C17.6214 37.2326 17.6503 37.252 17.6792 37.2714C17.7081 37.2811 17.737 37.2811 17.7659 37.2714L18.9407 36.7569C19.4704 36.5239 20.0386 36.4074 20.6164 36.4074H29.8132C31.3252 36.4074 32.5675 37.5918 32.6638 39.1063L32.8949 42.912C33.0297 45.1353 34.8595 46.8634 37.0648 46.8731H42.737C44.9423 46.8731 46.7624 45.145 46.9068 42.9314L47.1572 38.9995C47.1572 38.9898 47.1572 38.9801 47.1572 38.9607C47.3209 37.5044 48.544 36.3976 49.9981 36.3976H56.7874C58.3668 36.3976 59.6476 37.6889 59.6476 39.2811V39.9218C59.6476 39.9898 59.6957 40.0383 59.7631 40.0383H62.6618C62.7292 40.0383 62.7774 39.9801 62.7774 39.9218V39.2811C62.7774 38.5821 62.6618 37.8927 62.4211 37.2326C62.1996 36.6112 61.8818 36.0384 61.4773 35.5239C60.2543 33.9608 58.5305 33.5336 58.5882 33.3783C58.6557 33.2036 60.6684 33.9705 60.8321 33.6501ZM48.8618 22.4466H46.1846C45.8668 22.4563 45.626 22.7281 45.6356 23.0485C45.6453 23.3495 45.886 23.5922 46.1846 23.6019H48.8618C49.1796 23.6116 49.4396 23.3689 49.4588 23.0485C49.4781 22.7281 49.2277 22.466 48.9099 22.4466C48.9003 22.4466 48.881 22.4466 48.8618 22.4466ZM51.2404 28.9512H52.5501C53.1761 28.9512 53.6865 28.4367 53.6865 27.8056C53.6865 27.7086 53.6769 27.6018 53.648 27.5047L52.9161 24.7863C52.7812 24.2912 52.3286 23.9417 51.8182 23.9417H50.6337C50.2967 24.6116 49.6129 25.029 48.8618 25.029H48.0624L48.6692 27.2717C49.6803 27.5435 50.5856 28.126 51.2404 28.9512ZM34.6283 33.5725C34.9076 33.8152 35.1676 34.0773 35.4084 34.3589L39.299 32.3589C39.6842 32.155 39.8383 31.6793 39.6457 31.291L39.1641 30.3396C38.4226 30.757 37.5944 30.9803 36.747 30.9803H31.2674C30.2755 30.9803 29.3028 30.6794 28.4843 30.1163C28.2531 29.9512 27.9739 29.8638 27.685 29.8541H27.6272C26.6834 29.8541 25.913 30.6308 25.913 31.5822V31.7667H29.8036C31.5756 31.7667 33.2897 32.4075 34.6283 33.5725ZM54.6206 57.2903C58.3282 57.2903 61.3329 54.2612 61.3329 50.5235C61.3329 46.7857 58.3282 43.7567 54.6206 43.7567C50.913 43.7567 47.9084 46.7857 47.9084 50.5235C47.918 54.2612 50.913 57.2806 54.6206 57.2903ZM47.3498 46.844C49.3336 42.8441 54.1391 41.1839 58.1453 43.1256C58.1838 42.8926 58.203 42.6499 58.203 42.4072L58.2223 39.2519C58.2223 38.4558 57.5771 37.8054 56.7874 37.8054H49.9885C49.2662 37.8054 48.6499 38.349 48.5632 39.0772L48.3225 42.98C48.2262 44.4654 47.5617 45.844 46.4542 46.8343L47.3498 46.844ZM25.2004 42.3198C28.282 42.3198 31.094 44.0771 32.4712 46.844H33.3283C32.2208 45.8537 31.5563 44.4654 31.46 42.9703L31.2289 39.1549C31.1807 38.3976 30.5548 37.8054 29.794 37.8054H20.6068C20.3468 37.8054 20.0964 37.8442 19.846 37.9122C19.6438 38.4364 19.5378 38.9898 19.5378 39.5529V42.4072C19.5378 43.048 19.6726 43.6887 19.9423 44.2712C21.4061 43.0091 23.2743 42.3198 25.2004 42.3198Z" stroke="white" stroke-width="0.4" stroke-miterlimit="10"/>
<path d="M53.7833 50.5238C53.7833 50.9898 54.1589 51.3685 54.6212 51.3685C55.0834 51.3685 55.459 50.9898 55.459 50.5238C55.459 50.0578 55.0834 49.6792 54.6212 49.6792C54.1589 49.6792 53.7833 50.0578 53.7833 50.5238Z" fill="white" stroke="white" stroke-width="3" stroke-miterlimit="10"/>
<path d="M24.3634 50.5238C24.3634 50.9898 24.739 51.3685 25.2012 51.3685C25.6635 51.3685 26.0391 50.9898 26.0391 50.5238C26.0391 50.0578 25.6635 49.6792 25.2012 49.6792C24.739 49.6792 24.3634 50.0578 24.3634 50.5238Z" fill="white" stroke="white" stroke-width="3" stroke-miterlimit="10"/>
<path d="M25.2011 57.8339C21.1962 57.8339 17.9496 54.5608 17.9496 50.5234C17.9496 46.4859 21.1962 43.2129 25.2011 43.2129C29.206 43.2129 32.4526 46.4859 32.4526 50.5234C32.4526 54.5608 29.206 57.8339 25.2011 57.8339Z" stroke="white" stroke-width="2" stroke-miterlimit="10"/>
</svg>
