<svg width="80" height="80" viewBox="0 0 80 80" fill="none" xmlns="http://www.w3.org/2000/svg">
<path d="M55.3616 50.1385V47.4091C56.6873 45.3885 56.1272 42.6803 54.1067 41.3475C53.7168 41.0922 53.2843 40.8937 52.8306 40.7732C49.7679 39.9579 45.9183 38.7598 42.9335 36.7038C43.3802 36.0019 43.3376 35.0945 42.8272 34.4422L41.5227 32.7549C40.991 32.0743 40.0906 31.812 39.2753 32.1097C39.1335 31.5638 39.0626 30.9967 39.0626 30.4295V29.8694C40.197 29.678 40.9555 28.6004 40.757 27.4661C40.6082 26.6011 39.9276 25.9205 39.0626 25.7717V23.5313C39.0484 22.8933 38.4175 22 37.0563 22C35.1066 22 32.1645 22.1701 29.754 22.6452C26.5637 23.2761 24.8835 24.3112 24.7559 25.7433H24.7488V33.4C24.7488 34.2153 24.4297 35.378 24.054 36.718C24.0185 36.8314 23.9902 36.9519 23.9547 37.0724L23.9122 37.2355C23.9122 37.2426 23.9051 37.2568 23.9051 37.2639C23.7137 37.9516 23.5223 38.696 23.3521 39.4758C23.345 39.5042 23.3379 39.5396 23.3308 39.5751C23.3167 39.6531 23.2954 39.7381 23.2812 39.8232C23.267 39.9083 23.2529 39.9721 23.2387 40.043L23.2174 40.1706C23.1961 40.284 23.1749 40.3975 23.1536 40.5109V40.518C22.8062 42.6023 22.7779 44.8072 23.6995 46.8277C23.8838 47.2247 24.0965 47.6076 24.3376 47.9691L24.3447 47.9762C24.3801 48.0329 24.4226 48.0897 24.4652 48.1464L24.4864 48.1606C24.5219 48.2102 24.5644 48.2669 24.5999 48.3165L24.6282 48.352L24.7346 48.4938L24.77 48.5363C24.8055 48.5788 24.8409 48.6214 24.8764 48.6639L24.9189 48.7135C24.9544 48.7561 24.9898 48.7915 25.0253 48.8341L25.0749 48.8908C25.1103 48.9333 25.1458 48.9688 25.1883 49.0113L25.2379 49.068V50.0606C23.0118 50.5568 21.6081 52.7617 22.0973 54.9878C22.5864 57.2139 24.7984 58.6177 27.0245 58.1285C28.7189 57.7528 30.0021 56.3561 30.229 54.6333H31.3775C31.6753 56.8949 33.7525 58.4901 36.0141 58.1923C37.8716 57.9513 39.332 56.4908 39.5731 54.6333H40.7216C41.0194 56.8949 43.0966 58.4901 45.3582 58.1923C47.2156 57.9513 48.6761 56.4908 48.9171 54.6333H50.0657C50.3634 56.8949 52.4407 58.4901 54.7022 58.1923C56.9638 57.8945 58.559 55.8173 58.2612 53.5557C58.0556 51.9393 56.9142 50.5994 55.3616 50.1385ZM39.5234 33.1803C39.9134 32.9605 40.4026 33.0597 40.672 33.4142L41.9764 35.1015C42.2813 35.4986 42.2033 36.0586 41.8134 36.3635C41.7779 36.3918 41.7425 36.4131 41.707 36.4344L35.9645 39.6814C35.0641 40.1919 33.9227 39.9083 33.3555 39.0434C32.7671 38.1359 33.0223 36.9236 33.9298 36.3351C33.9652 36.3139 34.0007 36.2926 34.0361 36.2713L39.5234 33.1803ZM38.7152 26.8138C39.2682 26.8138 39.7149 27.2605 39.7149 27.8135C39.7149 27.8489 39.7149 27.8914 39.7078 27.9269C39.6369 28.4373 39.2044 28.8131 38.6869 28.8131H32.8592V26.8138H38.7152ZM35.1421 23.1202L36.2197 23.0847C36.5033 23.0776 36.7869 23.0776 37.0634 23.0776C37.6164 23.0776 37.8716 23.3187 37.9567 23.4675C37.9779 23.503 37.9921 23.5526 37.985 23.5952V25.4739C37.985 25.6157 37.8716 25.7362 37.7227 25.7362H33.1145C32.9727 25.7362 32.8522 25.6228 32.8522 25.4739V25.3746C32.8522 25.2328 32.7387 25.1123 32.5898 25.1123H27.7264C27.5846 25.1123 27.4641 25.2258 27.4641 25.3746V25.4739C27.4641 25.6157 27.3506 25.7362 27.2018 25.7362H26.2659C26.1241 25.7362 26.0036 25.6228 26.0036 25.4739C26.0036 25.4101 26.0249 25.3534 26.0603 25.3108C27.0458 24.0914 30.9521 23.3045 35.1421 23.1202ZM31.7816 26.5161V29.1179C31.7816 29.2952 31.6398 29.437 31.4626 29.4299H31.016C30.8387 29.4299 30.704 29.2881 30.704 29.1179V26.5161C30.704 26.3388 30.8458 26.197 31.016 26.197H31.4626C31.6398 26.197 31.7816 26.3388 31.7816 26.5161ZM29.6264 26.5232V29.1038C29.6264 29.281 29.4775 29.4299 29.3003 29.4299H28.8749C28.6977 29.4299 28.5488 29.281 28.5488 29.1038V26.5232C28.5488 26.3459 28.6977 26.197 28.8749 26.197H29.3003C29.4775 26.197 29.6264 26.3459 29.6264 26.5232ZM26.11 26.8138H27.1947C27.3435 26.8138 27.4712 26.9343 27.4712 27.0903V28.5366C27.4712 28.6855 27.3506 28.8131 27.1947 28.8131H26.11C25.9611 28.8131 25.8335 28.6926 25.8335 28.5366V27.0903C25.8335 26.9414 25.954 26.8138 26.11 26.8138ZM25.8335 33.393V30.2026C25.8335 30.0325 25.9753 29.8907 26.1454 29.8907H27.1663C27.3365 29.8907 27.4783 30.0325 27.4712 30.2026C27.4712 30.3728 27.613 30.5146 27.7831 30.5075H32.5544C32.7245 30.5075 32.8663 30.3728 32.8663 30.2026C32.8663 30.0325 33.0081 29.8907 33.1783 29.8907H37.6943C37.8645 29.8907 38.0063 30.0325 38.0063 30.2026V30.4295C38.0063 31.0959 38.0914 31.7553 38.2615 32.4004C38.297 32.5351 38.2331 32.6769 38.1126 32.7478L33.5115 35.3284C32.051 36.1508 31.5264 38.0012 32.3488 39.4616C33.1712 40.9221 35.0216 41.4467 36.482 40.6243C36.4891 40.6243 36.4891 40.6172 36.4962 40.6172L41.9339 37.5404C42.0403 37.4836 42.1679 37.4907 42.26 37.5545C44.1175 38.8519 46.2798 39.8161 48.3925 40.5605C48.5627 40.6314 48.8179 40.7307 49.144 40.837C49.7466 41.0426 49.7254 40.9859 50.2216 41.156C50.5336 41.2624 50.9944 41.4467 51.2709 41.4751C51.4481 41.4893 51.6183 41.5318 51.7884 41.5814C52.0933 41.6807 52.4407 41.7799 52.547 41.8083C53.0716 41.9855 54.9929 43.2971 54.9929 44.9986C54.9929 45.7005 54.7731 46.3811 54.3549 46.9482C54.3336 46.9766 54.3194 46.9979 54.2981 47.0262L54.2485 47.09C54.2131 47.1326 54.1776 47.1751 54.1422 47.2176C54.128 47.2318 54.1067 47.2531 54.0925 47.2673C54.0642 47.2956 54.0429 47.324 54.0146 47.3453L53.9649 47.3949C53.9366 47.4232 53.9082 47.4516 53.8728 47.4729L53.8302 47.5083C53.7877 47.5438 53.7522 47.5792 53.7097 47.6076L53.6955 47.6147C53.2843 47.9266 52.8022 48.1393 52.2918 48.2314H52.2847C52.2209 48.2456 52.1642 48.2527 52.1075 48.2598H52.0791C52.0295 48.2669 51.9798 48.2669 51.9302 48.274H51.8877C51.8239 48.274 51.7601 48.2811 51.7033 48.2811H41.7425C41.7212 48.2811 41.707 48.2811 41.6858 48.274L36.4537 47.2885C35.6525 47.1397 34.8231 47.2105 34.0574 47.5012C33.9014 47.565 33.7171 47.487 33.6604 47.324C33.6391 47.2744 33.632 47.2247 33.6391 47.1751C33.9156 44.9348 33.2563 42.4818 31.7674 40.4187C30.2007 38.2493 27.9462 36.8243 25.5995 36.4627C25.4294 36.4415 25.3088 36.2855 25.3301 36.1154C25.3301 36.1012 25.3372 36.0941 25.3372 36.0799C25.6208 35.0661 25.8335 34.1515 25.8335 33.393ZM24.5786 38.9654L24.5857 38.9512L24.607 38.8661C24.7204 38.4053 24.8409 37.9516 24.9615 37.512C27.1947 37.6963 29.3853 39.0079 30.8954 41.0852C32.5119 43.3184 33.0365 46.0549 32.3063 48.3094H26.0178L25.9256 48.2102C23.4443 45.5091 23.8484 41.9855 24.5786 38.9654ZM26.1383 57.1501C24.451 57.1501 23.0827 55.7819 23.0827 54.0945C23.0827 52.5277 24.2667 51.2162 25.8193 51.0531H25.8335H25.8547L25.9894 51.046C26.0391 51.046 26.0887 51.046 26.1454 51.046C27.8327 51.046 29.201 52.4143 29.201 54.1016C29.1939 55.7889 27.8256 57.1501 26.1383 57.1501ZM35.4824 57.1501C33.7951 57.1501 32.4268 55.7819 32.4268 54.0945C32.4268 52.4072 33.7951 51.0389 35.4824 51.0389C37.1697 51.0389 38.538 52.4072 38.538 54.0945C38.5309 55.7819 37.1697 57.1431 35.4824 57.1501ZM44.8265 57.1501C43.1391 57.1501 41.7708 55.7819 41.7779 54.0945C41.785 52.4072 43.1462 51.0389 44.8335 51.046C46.5209 51.046 47.8821 52.4143 47.8821 54.1016C47.8821 55.7819 46.5138 57.1501 44.8265 57.1501ZM51.0086 51.4288C50.9944 51.4501 50.9731 51.4714 50.9589 51.4927C50.9448 51.5139 50.9164 51.5494 50.888 51.5777C50.8597 51.6061 50.8526 51.6203 50.8384 51.6415C50.8242 51.6628 50.7959 51.7053 50.7746 51.7337L50.7321 51.7975C50.7108 51.833 50.6895 51.8613 50.6683 51.8968C50.6541 51.918 50.6399 51.9393 50.6328 51.9606C50.6116 51.996 50.5903 52.0386 50.569 52.074C50.5619 52.0882 50.5477 52.1094 50.5407 52.1236C50.5123 52.1803 50.4769 52.2371 50.4556 52.2938V52.3009C50.4272 52.3576 50.3989 52.4143 50.3776 52.471C50.3705 52.4923 50.3634 52.5136 50.3563 52.5348C50.3421 52.5774 50.3209 52.6128 50.3067 52.6553L50.2783 52.7262C50.2642 52.7617 50.25 52.7971 50.2429 52.8397C50.2358 52.868 50.2287 52.8964 50.2216 52.9177C50.2145 52.9389 50.2004 52.9886 50.1933 53.024C50.1862 53.0595 50.1791 53.0807 50.172 53.1091C50.1649 53.1374 50.1578 53.18 50.1436 53.2154C50.1295 53.2509 50.1295 53.2721 50.1295 53.3005C50.1295 53.3289 50.1153 53.3714 50.1082 53.4068C50.1082 53.421 50.1011 53.4352 50.1011 53.4494L49.9948 53.5415H49.0164L48.9101 53.4494C48.9101 53.4352 48.903 53.421 48.903 53.4068C48.8959 53.3714 48.8888 53.3359 48.8817 53.3005C48.8746 53.2651 48.8746 53.2438 48.8675 53.2154C48.8604 53.1871 48.8533 53.1445 48.8392 53.1091L48.8179 53.024C48.8108 52.9886 48.7966 52.9531 48.7895 52.9177C48.7824 52.8822 48.7754 52.8609 48.7683 52.8397C48.7541 52.8042 48.7399 52.7688 48.7328 52.7262C48.7257 52.705 48.7186 52.6766 48.7045 52.6553C48.6903 52.6128 48.6761 52.5774 48.6548 52.5348C48.6477 52.5136 48.6406 52.4923 48.6265 52.471C48.6052 52.4143 48.5768 52.3576 48.5485 52.3009V52.2938C48.5201 52.2371 48.4918 52.1803 48.4634 52.1236L48.4351 52.074C48.4138 52.0386 48.3925 51.996 48.3712 51.9606C48.3571 51.9393 48.3429 51.918 48.3358 51.8968L48.272 51.7975C48.2578 51.7762 48.2436 51.755 48.2295 51.7337C48.2153 51.7124 48.1869 51.6699 48.1656 51.6415L48.116 51.5777C48.0948 51.5494 48.0735 51.521 48.0451 51.4927L47.9955 51.4288L47.9246 51.3438L47.8679 51.28C47.8395 51.2516 47.8183 51.2233 47.7899 51.202L47.7332 51.1453C47.7048 51.1169 47.6765 51.0956 47.6552 51.0673L47.5985 51.0106C47.5701 50.9822 47.5418 50.9609 47.5134 50.9326L47.4567 50.883C47.4212 50.8546 47.3929 50.8333 47.3574 50.805C47.3433 50.7908 47.322 50.7766 47.3007 50.7624C47.2582 50.7341 47.2227 50.7057 47.1802 50.6774L47.1447 50.6561C47.0951 50.6206 47.0384 50.5852 46.9817 50.5497L46.9462 50.5285C46.9037 50.5001 46.8612 50.4788 46.8115 50.4505C46.7903 50.4363 46.769 50.4292 46.7477 50.415L46.6343 50.3583L46.5634 50.3229L46.4571 50.2732L46.3791 50.2449L46.2727 50.2024L46.1947 50.174L46.0884 50.1385L46.0104 50.1102C45.975 50.1031 45.9395 50.0889 45.9041 50.0818L45.819 50.0606L45.7127 50.0322L45.6276 50.018L45.5141 49.9968L45.4291 49.9826C45.3865 49.9755 45.3511 49.9755 45.3085 49.9684C45.2802 49.9684 45.2589 49.9613 45.2306 49.9613C45.188 49.9542 45.1384 49.9542 45.0959 49.9542L45.0321 49.9471C44.9612 49.9471 44.8974 49.94 44.8265 49.94C44.7556 49.94 44.6918 49.94 44.6209 49.9471L44.5571 49.9542C44.5145 49.9542 44.4649 49.9613 44.4223 49.9613C44.394 49.9613 44.3727 49.9684 44.3444 49.9684C44.3018 49.9755 44.2664 49.9755 44.2238 49.9826L44.1388 49.9968L44.0253 50.018L43.9403 50.0322C43.9048 50.0393 43.8694 50.0464 43.8339 50.0606L43.7488 50.0818C43.7134 50.0889 43.6779 50.1031 43.6425 50.1102L43.5645 50.1385L43.4582 50.174L43.3802 50.2024L43.2738 50.2449L43.1959 50.2732L43.0895 50.3229L43.0186 50.3583L42.9052 50.415C42.8839 50.4221 42.8626 50.4363 42.8414 50.4505C42.7988 50.4718 42.7563 50.5001 42.7067 50.5285L42.6712 50.5497C42.6145 50.5852 42.5649 50.6206 42.5082 50.6561L42.4727 50.6774C42.4302 50.7057 42.3947 50.7341 42.3522 50.7624L42.2955 50.805C42.26 50.8333 42.2317 50.8546 42.1962 50.883L42.1395 50.9326C42.1111 50.9609 42.0828 50.9822 42.0544 51.0106L41.9977 51.0673C41.9694 51.0956 41.941 51.1169 41.9197 51.1453L41.863 51.202C41.8347 51.2303 41.8134 51.2587 41.785 51.28C41.7567 51.3012 41.7496 51.3225 41.7283 51.3438L41.6574 51.4288L41.6078 51.4927C41.5865 51.521 41.5652 51.5494 41.5369 51.5777L41.4873 51.6415L41.4235 51.7337L41.3809 51.7975L41.3171 51.8968C41.3029 51.918 41.2888 51.9393 41.2817 51.9606C41.2604 51.996 41.2391 52.0386 41.2179 52.074L41.1895 52.1236C41.1611 52.1803 41.1257 52.2371 41.1044 52.2938V52.3009C41.0761 52.3576 41.0477 52.4143 41.0264 52.471C41.0193 52.4923 41.0123 52.5136 40.9981 52.5348C40.9839 52.5774 40.9626 52.6128 40.9485 52.6553C40.9414 52.6766 40.9343 52.705 40.9201 52.7262C40.9059 52.7617 40.8917 52.7971 40.8846 52.8397C40.8776 52.868 40.8705 52.8964 40.8634 52.9177C40.8563 52.9389 40.8421 52.9886 40.835 53.024L40.8138 53.1091C40.8067 53.1445 40.7996 53.18 40.7854 53.2154C40.7712 53.2509 40.7712 53.2721 40.7712 53.3005C40.7712 53.3289 40.757 53.3714 40.7499 53.4068C40.7499 53.421 40.7429 53.4352 40.7429 53.4494L40.6365 53.5415H39.6723L39.566 53.4494L39.5589 53.4068C39.5518 53.3714 39.5447 53.3289 39.5376 53.2934L39.5234 53.2083C39.5164 53.1729 39.5093 53.1374 39.4951 53.0949C39.4809 53.0524 39.4809 53.0382 39.4738 53.0169C39.4667 52.9815 39.4526 52.9389 39.4455 52.9035C39.4384 52.8751 39.4313 52.8539 39.4242 52.8255C39.41 52.79 39.3958 52.7475 39.3887 52.7121C39.3817 52.6908 39.3746 52.6624 39.3604 52.6412C39.3462 52.5986 39.3249 52.5561 39.3108 52.5136C39.3037 52.4923 39.2966 52.4781 39.2895 52.4568C39.2399 52.3363 39.1831 52.2229 39.1193 52.1094C39.1123 52.0953 39.1052 52.074 39.091 52.0598C39.0697 52.0173 39.0484 51.9818 39.0201 51.9393C39.0059 51.918 38.9917 51.9039 38.9846 51.8826C38.9634 51.8471 38.9421 51.8117 38.9208 51.7762C38.9067 51.755 38.8925 51.7337 38.8783 51.7124C38.857 51.677 38.8358 51.6486 38.8074 51.6203L38.7578 51.5565C38.7365 51.5281 38.7152 51.4997 38.6869 51.4714C38.6585 51.443 38.6514 51.4288 38.6373 51.4076C38.6231 51.3863 38.5876 51.3509 38.5664 51.3225L38.5096 51.2658C38.4813 51.2374 38.46 51.2091 38.4317 51.1878C38.4033 51.1665 38.3962 51.1524 38.3749 51.1311C38.3537 51.1098 38.3182 51.0815 38.297 51.0531L38.2402 50.9964C38.2119 50.968 38.1835 50.9468 38.1552 50.9184L38.0984 50.8688L37.9992 50.7908C37.985 50.7766 37.9637 50.7624 37.9496 50.7482C37.907 50.7199 37.8716 50.6915 37.829 50.6632L37.7936 50.6419C37.7369 50.6065 37.6872 50.571 37.6305 50.5356L37.5951 50.5143C37.5525 50.4859 37.51 50.4647 37.4604 50.4363L37.3966 50.408C37.3611 50.3867 37.3257 50.3725 37.2831 50.3512L37.2122 50.3158C37.1768 50.3016 37.1413 50.2803 37.1059 50.2662L37.0279 50.2378L36.9216 50.1953L36.8436 50.1669L36.7372 50.1315L36.6593 50.1031L36.5529 50.0747C36.5246 50.0676 36.4962 50.0606 36.4678 50.0535L36.3544 50.0251L36.2693 50.0109C36.2339 50.0038 36.1913 49.9968 36.1559 49.9897L36.0708 49.9755L35.9503 49.9613L35.8723 49.9542C35.8298 49.9471 35.7802 49.9471 35.7376 49.9471L35.6738 49.94C35.6029 49.94 35.5391 49.9329 35.4682 49.9329C35.3973 49.9329 35.3335 49.9329 35.2626 49.94L35.1988 49.9471C35.1563 49.9471 35.1066 49.9542 35.0641 49.9542L34.9861 49.9613L34.8656 49.9755L34.7805 49.9897C34.7451 49.9968 34.7025 50.0038 34.6671 50.0109L34.582 50.0251C34.5466 50.0322 34.5111 50.0393 34.4686 50.0535C34.426 50.0677 34.4119 50.0676 34.3835 50.0747L34.2772 50.1031L34.1992 50.1315L34.0928 50.1669L34.0148 50.1953L33.9085 50.2378L33.8305 50.2662C33.7951 50.2803 33.7596 50.2945 33.7242 50.3158L33.6533 50.3512L33.5611 50.4292L33.4973 50.4576C33.4548 50.4859 33.4122 50.5072 33.3626 50.5356L33.3272 50.5568C33.2704 50.5923 33.2208 50.6277 33.1641 50.6632L33.1286 50.6844C33.0861 50.7128 33.0436 50.7412 33.0081 50.7695C32.9939 50.7837 32.9727 50.7979 32.9585 50.8121C32.923 50.8404 32.8947 50.8617 32.8592 50.89C32.838 50.9042 32.8238 50.9255 32.8025 50.9397C32.7742 50.968 32.7458 50.9893 32.7175 51.0177C32.6891 51.046 32.682 51.0531 32.6607 51.0744L32.5757 51.1524L32.5189 51.2091C32.4906 51.2374 32.4693 51.2658 32.441 51.2871L32.3842 51.3438C32.3559 51.3721 32.3346 51.4005 32.3133 51.4288L32.2637 51.4927C32.2424 51.521 32.2141 51.5494 32.1928 51.5777L32.1432 51.6415C32.1219 51.6699 32.1007 51.7053 32.0794 51.7337C32.0652 51.755 32.051 51.7762 32.0369 51.7975C32.0156 51.833 31.9943 51.8684 31.973 51.9039L31.9376 51.9606C31.9163 52.0031 31.888 52.0386 31.8667 52.0811C31.8596 52.0953 31.8454 52.1094 31.8383 52.1307C31.7745 52.2442 31.7178 52.3576 31.6682 52.4781C31.6611 52.4923 31.654 52.5136 31.6469 52.5348C31.6327 52.5774 31.6115 52.6199 31.5973 52.6624C31.5902 52.6837 31.5831 52.705 31.576 52.7333C31.5618 52.7688 31.5477 52.8113 31.5335 52.8468C31.5264 52.8751 31.5193 52.8964 31.5122 52.9248C31.498 52.9602 31.491 52.9956 31.4839 53.0382C31.4768 53.0665 31.4697 53.0949 31.4626 53.1162C31.4555 53.1374 31.4484 53.1871 31.4342 53.2296L31.4201 53.3147C31.413 53.3501 31.4059 53.3856 31.3988 53.4281C31.3988 53.4423 31.3917 53.4565 31.3917 53.4706L31.2924 53.5628H30.3283L30.2219 53.4706L30.2148 53.4352C30.2077 53.3998 30.2006 53.3572 30.1936 53.3218C30.1865 53.2934 30.1794 53.2721 30.1794 53.2438C30.1723 53.2083 30.1652 53.1658 30.151 53.1303L30.1298 53.0595C30.1156 53.0169 30.1085 52.9744 30.0943 52.9389C30.0872 52.9177 30.0801 52.8964 30.073 52.8751C30.0589 52.8184 30.0376 52.7688 30.0163 52.7192L30.0092 52.6979C29.988 52.6341 29.9596 52.5774 29.9383 52.5206C29.9312 52.5065 29.9242 52.4923 29.9171 52.4781C29.8958 52.4356 29.8816 52.393 29.8604 52.3505L29.832 52.2938C29.8107 52.2583 29.7965 52.2229 29.7753 52.1803C29.7611 52.1591 29.754 52.1378 29.7398 52.1165C29.7186 52.0811 29.6973 52.0456 29.6831 52.0173C29.6689 51.996 29.6548 51.9747 29.6406 51.9535C29.6193 51.918 29.598 51.8897 29.5768 51.8542L29.5342 51.7904C29.513 51.755 29.4846 51.7266 29.4633 51.6912C29.4492 51.6699 29.435 51.6557 29.4208 51.6344C29.3924 51.599 29.3712 51.5706 29.3428 51.5352C29.3286 51.521 29.3145 51.4997 29.3003 51.4856C29.2719 51.4501 29.2365 51.4076 29.201 51.3721L29.1727 51.3438C29.1301 51.2941 29.0876 51.2516 29.038 51.202L29.0238 51.1878C28.9812 51.1524 28.9458 51.1098 28.9033 51.0744L28.8607 51.0389C28.8253 51.0106 28.7969 50.9822 28.7615 50.9538L28.7047 50.9113C28.6764 50.883 28.6409 50.8617 28.6126 50.8333L28.5559 50.7908C28.5275 50.7695 28.4921 50.7482 28.4566 50.7199L28.3928 50.6774L28.2936 50.6135L28.2297 50.5781C28.1943 50.5568 28.1589 50.5356 28.1234 50.5143L28.0667 50.4788L27.9462 50.415L27.8965 50.3867C27.7831 50.33 27.6626 50.2803 27.5421 50.2378L27.4853 50.2165C27.4428 50.2024 27.4003 50.1882 27.3577 50.174L27.2868 50.1527C27.2443 50.1385 27.2088 50.1315 27.1663 50.1173C27.145 50.1102 27.1167 50.1031 27.0883 50.096C27.0529 50.0889 27.0103 50.0747 26.9749 50.0676L26.8969 50.0535C26.8615 50.0464 26.8189 50.0393 26.7835 50.0322C26.7551 50.0251 26.7268 50.0251 26.7055 50.018L26.585 50.0038L26.507 49.9968C26.4644 49.9897 26.4219 49.9897 26.3794 49.9897L26.3085 49.9826H26.2943V49.5076C26.2943 49.4509 26.3439 49.4012 26.4006 49.4012H33.1074C33.1357 49.4012 33.157 49.3871 33.1783 49.3729L33.3059 49.2523C34.0857 48.5079 35.1704 48.1889 36.2268 48.3945L41.5794 49.4012H41.6007H51.675C51.7459 49.4012 51.8097 49.4012 51.8735 49.3941L51.9515 49.387C51.9869 49.387 52.0295 49.38 52.0649 49.38C52.1004 49.38 52.1358 49.3729 52.1642 49.3729L52.2422 49.3658C52.9015 49.2807 53.5325 49.0467 54.0854 48.6781L54.2556 48.7703V49.8762C54.2556 49.9329 54.206 49.9826 54.1493 49.9826C54.0784 49.9826 54.0146 49.9826 53.9437 49.9897L53.8798 49.9968C53.8373 49.9968 53.7877 50.0038 53.7451 50.0038L53.6672 50.0109L53.5466 50.0251L53.4616 50.0393L53.3481 50.0606L53.2631 50.0747C53.2276 50.0818 53.1922 50.0889 53.1567 50.1031L53.0716 50.1244C53.0362 50.1315 53.0007 50.1456 52.9653 50.1527L52.8873 50.1811C52.8519 50.1953 52.8164 50.2024 52.781 50.2165L52.703 50.2449C52.6675 50.2591 52.6321 50.2732 52.5966 50.2874L52.5186 50.3158L52.4123 50.3654L52.3414 50.4009C52.306 50.415 52.2705 50.4363 52.228 50.4576L52.1642 50.4859C52.1216 50.5143 52.0791 50.5356 52.0295 50.5639L51.994 50.5852C51.9373 50.6206 51.8877 50.6561 51.831 50.6915L51.7955 50.7199C51.753 50.7482 51.7175 50.7766 51.675 50.805C51.6537 50.8191 51.6395 50.8333 51.6183 50.8475C51.5828 50.8759 51.5545 50.8971 51.519 50.9255L51.4623 50.9751C51.4339 51.0035 51.4056 51.0247 51.3772 51.0531L51.356 51.0673C51.3276 51.0956 51.2992 51.1169 51.278 51.1453L51.2142 51.2091C51.1858 51.2374 51.1645 51.2658 51.1362 51.2871L51.0795 51.3509C51.0653 51.3792 51.0369 51.4005 51.0086 51.4288ZM54.1705 57.1501C52.4832 57.1501 51.1149 55.7819 51.1149 54.0945C51.1149 52.4072 52.4832 51.0389 54.1705 51.0389C54.2202 51.0389 54.2698 51.0389 54.3123 51.0389C54.3478 51.0389 54.3761 51.046 54.4116 51.046H54.4541C54.4966 51.046 54.5321 51.0531 54.5746 51.0602H54.5888C54.6313 51.0673 54.6739 51.0744 54.7164 51.0815C54.7377 51.0886 54.759 51.0885 54.7873 51.0956H54.7944C56.4463 51.4359 57.5097 53.0524 57.1694 54.7042C56.8787 56.1222 55.6239 57.1431 54.1776 57.1431L54.1705 57.1501Z" fill="white" stroke="white" stroke-width="0.4"/>
<path d="M26.1169 55.492C26.8882 55.492 27.5135 54.8667 27.5135 54.0954C27.5135 53.324 26.8882 52.6987 26.1169 52.6987C25.3455 52.6987 24.7202 53.324 24.7202 54.0954C24.7202 54.8667 25.3455 55.492 26.1169 55.492Z" fill="white" stroke="white" stroke-width="0.4"/>
<path d="M35.4684 55.492C36.2398 55.492 36.8651 54.8667 36.8651 54.0954C36.8651 53.324 36.2398 52.6987 35.4684 52.6987C34.6971 52.6987 34.0718 53.324 34.0718 54.0954C34.0718 54.8667 34.6971 55.492 35.4684 55.492Z" fill="white" stroke="white" stroke-width="0.4"/>
<path d="M44.8263 55.492C45.5977 55.492 46.223 54.8667 46.223 54.0954C46.223 53.324 45.5977 52.6987 44.8263 52.6987C44.055 52.6987 43.4297 53.324 43.4297 54.0954C43.4297 54.8667 44.055 55.492 44.8263 55.492Z" fill="white" stroke="white" stroke-width="0.4"/>
<path d="M54.1706 55.492C54.9419 55.492 55.5672 54.8667 55.5672 54.0954C55.5672 53.324 54.9419 52.6987 54.1706 52.6987C53.3992 52.6987 52.7739 53.324 52.7739 54.0954C52.7739 54.8667 53.3992 55.492 54.1706 55.492Z" fill="white" stroke="white" stroke-width="0.4"/>
</svg>
