<svg width="80" height="80" viewBox="0 0 80 80" fill="none" xmlns="http://www.w3.org/2000/svg">
<path d="M32.98 51.4331C32.2186 48.5104 29.6226 46.437 26.5955 46.3274C22.8161 46.3274 20 49.7982 20 52.8945C20 53.2964 20.3302 53.6252 20.7338 53.6252C21.1375 53.6252 21.4677 53.2964 21.4677 52.8945C21.6053 50.1362 23.8252 47.9258 26.5955 47.7888C29.3658 47.9258 31.5857 50.1362 31.7233 52.8945V54.1458L30.9711 53.9632C30.9802 53.8536 30.9894 53.7348 30.9894 53.6252C30.9986 51.3783 29.2924 49.4968 27.0541 49.2593C24.8067 49.0219 22.7519 50.5198 22.2841 52.7119C21.8163 54.9131 23.1005 57.1052 25.247 57.7902C27.3935 58.4752 29.7143 57.434 30.6225 55.3789L32.2828 55.7899C32.3378 55.8082 32.4021 55.8173 32.4571 55.8173H46.3727C46.6387 55.8173 46.8864 55.6712 47.0148 55.4428L54.0506 42.7013L54.8212 47.323C51.6931 48.209 49.6751 51.2413 50.0787 54.4564C50.1245 54.8217 50.4364 55.0957 50.8033 55.0957C50.8309 55.0957 50.8676 55.0957 50.8951 55.0866C51.2987 55.0409 51.5831 54.6756 51.528 54.2737C51.5005 54.0636 51.4913 53.8444 51.4913 53.6344C51.4822 51.4149 52.9315 49.442 55.0597 48.7752L55.1789 49.5059C53.0232 50.2549 51.8124 52.5109 52.3719 54.7121C52.9407 56.9134 55.1055 58.3108 57.3438 57.9272C59.5912 57.5527 61.169 55.525 60.9855 53.2599C60.7929 50.9947 58.894 49.2593 56.6191 49.2593L55.1331 40.3905V40.3814L52.2068 23.6028C52.1426 23.2557 51.8399 23 51.4822 23H46.3544C45.9508 23 45.6205 23.3288 45.6205 23.7307C45.6205 24.1326 45.9508 24.4614 46.3544 24.4614H50.8676L53.647 40.3723L47.5285 51.4331H32.98V51.4331ZM45.9324 54.3559H33.1818V52.8945H46.7305L45.9324 54.3559ZM29.5951 53.5978C29.5951 55.2419 28.2558 56.5754 26.6046 56.5754C24.9535 56.5754 23.6234 55.2419 23.6234 53.5978C23.6234 51.9538 24.9627 50.6202 26.6138 50.6202C28.265 50.6202 29.5951 51.9538 29.5951 53.5978ZM59.582 53.6252C59.582 55.2693 58.2427 56.6028 56.5916 56.6028C54.9404 56.6028 53.6011 55.2693 53.6011 53.6252C53.6011 51.9812 54.9404 50.6476 56.5916 50.6476C58.2427 50.6476 59.582 51.9812 59.582 53.6252ZM28.0081 53.6252C28.0081 54.3925 27.3844 55.0227 26.6046 55.0227C25.8249 55.0227 25.2012 54.4016 25.2012 53.6252C25.2012 52.858 25.8249 52.2278 26.6046 52.2278C27.3844 52.2278 28.0081 52.8489 28.0081 53.6252ZM57.9951 53.6252C57.9951 54.3925 57.3713 55.0227 56.5916 55.0227C55.821 55.0227 55.1881 54.4016 55.1881 53.6252C55.1881 52.858 55.8119 52.2278 56.5916 52.2278C57.3621 52.2278 57.9951 52.8489 57.9951 53.6252Z" fill="white" stroke="white" stroke-width="0.2"/>
</svg>
