<svg width="32" height="32" viewBox="0 0 32 32" fill="none" xmlns="http://www.w3.org/2000/svg">
<circle cx="16" cy="16" r="16" fill="#FC8763"/>
<path d="M16 2C8.3 2 2 8.3 2 16C2 23.7 8.3 30 16 30C23.7 30 30 23.7 30 16C30 8.2 23.7 2 16 2ZM16 28.1C9.3 28.1 3.9 22.6 3.9 16C3.9 9.3 9.4 3.9 16 3.9C22.7 3.9 28.1 9.4 28.1 16C28.1 22.6 22.7 28.1 16 28.1Z" fill="white"/>
<path d="M20.6001 11.4001C20.2001 11.0001 19.7001 11.0001 19.3001 11.4001L16.0001 14.7001L12.7001 11.4001C12.3001 11.0001 11.8001 11.0001 11.4001 11.4001C11.0001 11.8001 11.0001 12.3001 11.4001 12.7001L14.7001 16.0001L11.4001 19.3001C11.0001 19.7001 11.0001 20.2001 11.4001 20.6001C11.6001 20.8001 11.8001 20.9001 12.1001 20.9001C12.4001 20.9001 12.6001 20.8001 12.8001 20.6001L16.1001 17.3001L19.4001 20.6001C19.6001 20.8001 19.8001 20.9001 20.1001 20.9001C20.3001 20.9001 20.6001 20.8001 20.8001 20.6001C21.2001 20.2001 21.2001 19.7001 20.8001 19.3001L17.5001 16.0001L20.8001 12.7001C20.9001 12.3001 20.9001 11.7001 20.6001 11.4001Z" fill="white"/>
</svg>
