<svg width="80" height="80" viewBox="0 0 80 80" fill="none" xmlns="http://www.w3.org/2000/svg">
<path d="M21.3869 46.5477L23.483 44.4521C23.1953 44.1645 23.1953 43.696 23.483 43.4002L27.6752 39.209C27.9629 38.9214 28.4314 38.9214 28.7273 39.209L38.6899 29.2488C38.4022 28.9612 38.4022 28.4928 38.6899 28.1969L42.8821 24.0058C43.1698 23.7181 43.6384 23.7181 43.9343 24.0058L46.5565 21.3842C49.7376 18.2039 54.8997 18.2039 58.0891 21.3925L58.6152 21.9184C61.7963 25.0988 61.7963 30.2596 58.607 33.4482L55.9848 36.0698L56.5109 36.5957C56.7986 36.8833 56.7986 37.3518 56.5109 37.6476L52.3187 41.8388C52.031 42.1264 51.5624 42.1264 51.2665 41.8388L50.7404 41.3128L40.7778 51.273L41.3039 51.799C41.5916 52.0866 41.5916 52.555 41.3039 52.8509L37.1117 57.042C36.824 57.3296 36.3555 57.3296 36.0595 57.042L35.5335 56.5161L33.4374 58.6117C30.2562 61.792 25.0859 61.8002 21.9047 58.6117L21.3787 58.0857C18.2057 54.8971 18.2057 49.7362 21.3869 46.5477ZM25.053 43.9261L27.1491 46.0217L30.2973 42.8742L28.2012 40.7787L25.053 43.9261ZM35.5417 50.2211L34.0868 48.7665C34.0457 48.7665 34.0128 48.7747 33.9717 48.7747C32.7469 48.7747 31.7605 47.7886 31.7523 46.5723C31.7523 46.5312 31.7523 46.4819 31.7523 46.4408L30.2973 44.9863L29.2452 46.0382L34.4895 51.2812L35.5417 50.2211ZM34.4895 47.0736C34.7772 46.786 34.7772 46.3176 34.4895 46.0217C34.2018 45.7341 33.7333 45.7341 33.4456 46.0217C33.1579 46.3093 33.1579 46.7778 33.4456 47.0736C33.7333 47.353 34.2018 47.353 34.4895 47.0736ZM40.26 28.7311L42.3561 30.8267L45.5043 27.6792L43.4082 25.5836L40.26 28.7311ZM46.0222 33.7523C45.6112 33.7523 45.2824 34.081 45.2824 34.4919C45.2824 34.9028 45.6112 35.2315 46.0222 35.2315C46.2194 35.2315 46.4085 35.1493 46.5482 35.0096C46.8359 34.722 46.8359 34.2536 46.5482 33.9577C46.4085 33.8345 46.2194 33.7523 46.0222 33.7523ZM47.6004 32.9223C48.0196 33.3414 48.2498 33.9002 48.2498 34.4919C48.2498 34.533 48.2416 34.5659 48.2416 34.607L49.6965 36.0615L50.7487 35.0096L45.5043 29.7666L44.4521 30.8185L45.9071 32.2731C46.54 32.2484 47.1565 32.4785 47.6004 32.9223ZM58.0562 31.8457C60.177 29.1913 59.9633 25.37 57.563 22.9621L57.0369 22.4361C54.4312 19.831 50.2061 19.831 47.6004 22.4361L44.9782 25.0577L47.0743 27.1533C47.362 27.4409 47.362 27.9093 47.0743 28.2052L46.5482 28.7311L51.7926 33.9742L52.3187 33.4482C52.6146 33.1688 53.0749 33.1688 53.3708 33.4482L54.9408 35.0179L57.0369 32.9223L58.0562 31.8457ZM54.9408 37.1134L52.8447 35.0179L49.6965 38.1653L51.7926 40.2609L54.9408 37.1134ZM49.6965 40.2609L48.1265 38.6913C47.8388 38.4037 47.8388 37.9352 48.1265 37.6394L48.6526 37.1134L47.6004 36.0615C46.7291 36.9326 45.3235 36.9326 44.4521 36.0615C43.5808 35.1904 43.5808 33.7852 44.4521 32.9141L43.4 31.8622L42.8739 32.3881C42.5862 32.6757 42.1177 32.6757 41.8218 32.3881L39.7257 30.2925L29.763 40.2527L31.8591 42.3483C32.1468 42.6359 32.1468 43.1043 31.8591 43.4002L31.3331 43.9261L32.3934 44.978C33.273 44.1398 34.6621 44.1398 35.5417 44.978C36.413 45.8491 36.413 47.2544 35.5417 48.1255L36.5856 49.1692L37.1117 48.6433C37.4076 48.3638 37.8679 48.3638 38.1639 48.6433L39.7339 50.2129L49.6965 40.2609ZM39.7339 52.3167L37.6378 50.2211L34.4895 53.3686L36.5856 55.4642L39.7339 52.3167ZM21.502 48.7665C19.8497 51.4045 20.2361 54.8314 22.4308 57.0338L22.9569 57.5598C25.5626 60.1648 29.7877 60.1648 32.3934 57.5598L34.4895 55.4642L32.9195 53.8945C32.6318 53.6069 32.6318 53.1385 32.9195 52.8426L33.4456 52.3167L28.2012 47.0736L27.6752 47.5996C27.3875 47.8872 26.9189 47.8872 26.623 47.5996L24.5269 45.504L22.4308 47.5996" fill="white"/>
</svg>
