<svg width="80" height="80" viewBox="0 0 80 80" fill="none" xmlns="http://www.w3.org/2000/svg">
<path d="M55.9967 48.5521C56.0565 48.6118 56.6656 47.5501 56.7014 47.4547C56.9045 46.9536 56.9881 46.4407 56.9881 45.9039C56.9881 41.8718 53.7036 38.5913 49.6667 38.5913H48.7351C44.722 38.5913 41.4256 36.3964 40.3388 33.0085C40.3388 33.0085 39.3236 29.8354 39.3236 29.8234C39.3236 29.7877 39.3355 24.0259 39.3355 24.0259C39.3355 23.4652 38.8817 23 38.3084 23H36.6602C33.6743 23 31.202 25.0637 30.6287 27.8551H27.0814C25.3855 27.8551 24 29.2389 24 30.9329V44.6036C24 47.4308 26.3051 49.7331 29.1357 49.7331H30.6406V51.8446H27.0814C25.3855 51.8446 24 53.2164 24 54.9223C24 56.6162 25.3855 58 27.0814 58H51.0402C54.3246 58 57 55.3279 57 52.0474V50.8187C57 49.924 56.6178 49.1128 55.9967 48.5521ZM46.5255 49.7331H51.0282C50.8969 50.0671 50.8252 50.4369 50.8252 50.8187V51.8446H46.5136L46.5255 49.7331ZM36.6602 25.0518H37.2812V27.9625C37.0185 27.8909 36.7438 27.8551 36.4571 27.8551H32.7546C33.2801 26.2209 34.8208 25.0518 36.6602 25.0518ZM27.0814 29.907H36.4452C36.7915 29.907 37.2334 30.0501 37.3648 30.4676L38.0575 32.6387H34.1401C33.5787 32.6387 33.1129 33.092 33.1129 33.6646C33.1129 34.2253 33.5668 34.6905 34.1401 34.6905H38.798C38.9533 35.0365 39.1325 35.3824 39.3355 35.7045L36.0271 36.5634C35.4777 36.7065 35.1553 37.2672 35.2986 37.816C35.418 38.2812 35.836 38.5794 36.2899 38.5794C36.3735 38.5794 36.4691 38.5675 36.5527 38.5436L40.7329 37.4581C41.0195 37.7444 41.3301 38.0187 41.6526 38.2812L39.0011 39.832C38.5114 40.1183 38.3442 40.7505 38.6308 41.2396C38.8219 41.5617 39.1683 41.7526 39.5147 41.7526C39.6938 41.7526 39.873 41.7048 40.0282 41.6094L43.6113 39.5099C44.2085 39.7962 44.8295 40.0228 45.4864 40.2018L43.5277 42.1581C43.1216 42.5637 43.1216 43.2079 43.5277 43.6135C43.7307 43.8163 43.9935 43.9117 44.2562 43.9117C44.519 43.9117 44.7818 43.8163 44.9848 43.6135L47.9826 40.6193C48.2334 40.6312 48.4843 40.6431 48.7351 40.6431H49.6667C52.5689 40.6431 54.9338 43.0051 54.9338 45.9039C54.9338 46.8463 54.2888 47.6813 53.2856 47.6813H33.3757C33.316 43.6612 30.0673 40.3926 26.0543 40.3091V30.9329C26.0543 30.3603 26.5201 29.907 27.0814 29.907ZM36.8035 49.7331H40.3626V51.8446H36.8035V49.7331ZM26.0543 44.6036V42.3609C28.9446 42.4444 31.2617 44.7945 31.3214 47.6813H29.1357C27.4397 47.6813 26.0543 46.2975 26.0543 44.6036ZM54.9457 52.0474C54.9457 54.1946 53.19 55.9482 51.0402 55.9482H27.0814C26.5081 55.9482 26.0543 55.483 26.0543 54.9223C26.0543 54.3497 26.5201 53.8964 27.0814 53.8964H31.6678C32.2291 53.8964 32.6949 53.4431 32.6949 52.8705V49.7331H34.7492V52.8705C34.7492 53.4312 35.203 53.8964 35.7763 53.8964H41.3898C41.9511 53.8964 42.4169 53.4431 42.4169 52.8705V49.7331H44.4712V52.8705C44.4712 53.4312 44.9251 53.8964 45.4984 53.8964H51.0402C52.0554 53.8964 52.8795 53.0733 52.8795 52.0593V50.8306C52.8795 50.258 53.3453 49.8047 53.9066 49.8047C54.4799 49.8047 54.9338 50.2699 54.9338 50.8306L54.9457 52.0474Z" fill="white"/>
</svg>
