<svg width="80" height="80" viewBox="0 0 80 80" fill="none" xmlns="http://www.w3.org/2000/svg">
<path d="M48.5977 23.3855C48.5977 21.5138 47.0701 20 45.2122 20C43.3405 20 41.8267 21.5276 41.8267 23.3855C41.8267 23.702 41.8955 24.8168 42.0056 26.4958C42.212 29.7574 42.5423 34.7531 42.6662 38.9505C42.3496 38.9918 42.1157 39.2671 42.1157 39.5836C42.1157 39.9139 42.3771 40.2029 42.7074 40.2304C42.7212 40.9323 42.735 41.6066 42.735 42.2259C42.735 43.3132 42.7074 44.4004 42.6662 45.4876C42.5285 48.9832 42.2258 52.3549 42.0193 54.5706C41.9092 55.7542 41.8404 56.5386 41.8404 56.8689C41.8404 58.7406 43.368 60.2544 45.2259 60.2544C47.0976 60.2544 48.6114 58.7268 48.6114 56.8689C48.6114 56.5386 48.5426 55.7542 48.4325 54.5706C48.2261 52.3411 47.9233 48.9832 47.7857 45.4876C47.7857 45.4876 47.7857 45.4876 47.7857 45.4738C47.7444 44.3866 47.7169 43.2856 47.7169 42.2122C47.7169 41.5929 47.7306 40.9185 47.7444 40.2167C48.0747 40.1891 48.3362 39.9139 48.3362 39.5698C48.3362 39.2395 48.0885 38.9781 47.7857 38.9368C47.9095 34.7393 48.2398 29.7436 48.4463 26.482C48.5288 24.8168 48.5977 23.702 48.5977 23.3855ZM45.2122 21.2799C46.3682 21.2799 47.3178 22.2295 47.3178 23.3855C47.3178 23.6607 47.2352 24.8718 47.1389 26.4132C46.9324 29.7023 46.6021 34.7118 46.4783 38.9505H45.859V37.0238C45.859 36.666 45.57 36.377 45.2122 36.377C44.8543 36.377 44.5653 36.666 44.5653 37.0238V38.9505H43.946C43.8222 34.7118 43.4919 29.7023 43.2855 26.4132C43.1891 24.8718 43.1065 23.6607 43.1065 23.3855C43.1065 22.2295 44.0424 21.2799 45.2122 21.2799ZM46.4645 44.8545H45.859V42.1984C45.859 41.8544 45.6113 41.5516 45.2672 41.5241C44.8819 41.4965 44.5653 41.7855 44.5653 42.1709V44.8683H43.9598C43.9873 43.9875 44.0011 43.1067 44.0011 42.2397C44.0011 41.6204 43.9873 40.9461 43.9736 40.2442H45.1984H46.437C46.4232 40.9461 46.4095 41.6204 46.4095 42.2397C46.4232 43.1067 46.437 43.9875 46.4645 44.8545ZM45.2122 58.9883C44.0561 58.9883 43.1065 58.0387 43.1065 56.8827C43.1065 56.6212 43.1891 55.7679 43.2855 54.7082C43.4781 52.6026 43.7671 49.4649 43.9185 46.1482H46.5196C46.671 49.4649 46.96 52.5889 47.1526 54.7082C47.249 55.7817 47.3315 56.6212 47.3315 56.8827C47.3178 58.0387 46.3682 58.9883 45.2122 58.9883Z" fill="white"/>
<path d="M56.2346 28.2709H55.7804V24.5413C56.0281 24.445 56.207 24.1835 56.1795 23.8945C56.152 23.5505 55.8492 23.3027 55.5052 23.3027H52.739C52.3949 23.3027 52.0922 23.5505 52.0646 23.8945C52.0371 24.1835 52.216 24.445 52.4637 24.5413V28.2709H52.0096C51.6793 28.2709 51.3765 28.5186 51.349 28.8489C51.3077 29.2342 51.6105 29.5508 51.9821 29.5508H53.4821V53.263H52.739C52.4087 53.263 52.1059 53.5107 52.0784 53.841C52.0371 54.2264 52.3399 54.5429 52.7115 54.5429H53.4821V56.2769C53.4821 56.6072 53.7299 56.91 54.0601 56.9375C54.4455 56.9788 54.762 56.676 54.762 56.3045V54.5429H55.5052C55.8355 54.5429 56.1382 54.2952 56.1658 53.9649C56.207 53.5796 55.9043 53.263 55.5327 53.263H54.762V29.5508H56.2621C56.6337 29.5508 56.9364 29.2342 56.8952 28.8489C56.8814 28.5186 56.5786 28.2709 56.2346 28.2709ZM53.7574 24.5964H54.4868V28.2709H53.7574V24.5964Z" fill="white"/>
<path d="M39.0924 23.3855C39.0924 21.5138 37.5648 20 35.7069 20C33.849 20 32.3076 21.5276 32.3076 23.3855C32.3076 23.702 32.3764 24.8168 32.4865 26.4958C32.693 29.7574 33.0233 34.7531 33.1471 38.9505C32.8306 38.9918 32.5966 39.2671 32.5966 39.5836C32.5966 39.9139 32.8581 40.2029 33.1884 40.2304C33.2022 40.9323 33.2159 41.6066 33.2159 42.2259C33.2159 43.2994 33.1884 44.4004 33.1471 45.4876C33.1471 45.4876 33.1471 45.4876 33.1471 45.5013C33.0095 48.9969 32.7067 52.3549 32.5003 54.5844C32.3902 55.7679 32.3214 56.5524 32.3214 56.8827C32.3214 58.7543 33.849 60.2682 35.7069 60.2682C37.5648 60.2682 39.0924 58.7406 39.0924 56.8827C39.0924 56.5524 39.0236 55.7679 38.9135 54.5844C38.707 52.3549 38.4043 48.9969 38.2666 45.5013C38.2254 44.4141 38.1978 43.3132 38.1978 42.2259C38.1978 41.6066 38.2116 40.9323 38.2254 40.2304C38.5557 40.2029 38.8171 39.9277 38.8171 39.5836C38.8171 39.2533 38.5694 38.9918 38.2666 38.9505C38.3905 34.7531 38.7208 29.7574 38.9272 26.4958C39.0236 24.8168 39.0924 23.702 39.0924 23.3855ZM35.6931 21.2799C36.8491 21.2799 37.7987 22.2295 37.7987 23.3855C37.7987 23.6607 37.7162 24.8718 37.6198 26.4132C37.4134 29.7023 37.0831 34.7118 36.9592 38.9505H36.3399V37.0238C36.3399 36.666 36.0509 36.377 35.6931 36.377C35.3353 36.377 35.0463 36.666 35.0463 37.0238V38.9505H34.427C34.3031 34.7118 33.9728 29.7023 33.7664 26.4132C33.6701 24.8718 33.5875 23.6607 33.5875 23.3855C33.5875 22.2295 34.5371 21.2799 35.6931 21.2799ZM36.9455 44.8545H36.3399V42.1984C36.3399 41.8544 36.0922 41.5516 35.7482 41.5241C35.3628 41.4965 35.0463 41.7855 35.0463 42.1709V44.8683H34.4408C34.4683 43.9875 34.482 43.1067 34.482 42.2397C34.482 41.6204 34.4683 40.9461 34.4545 40.2442H35.6794H36.918C36.9042 40.9461 36.8904 41.6204 36.8904 42.2397C36.9042 43.1067 36.918 43.9875 36.9455 44.8545ZM35.6931 58.9883C34.5371 58.9883 33.5875 58.0387 33.5875 56.8827C33.5875 56.6212 33.6701 55.7679 33.7664 54.7082C33.9591 52.6026 34.2481 49.4649 34.3995 46.1482H37.0005C37.1519 49.4649 37.4409 52.5889 37.6336 54.7082C37.7299 55.7817 37.8125 56.6212 37.8125 56.8827C37.7987 58.0387 36.8629 58.9883 35.6931 58.9883Z" fill="white"/>
<path d="M28.9269 28.2709H28.4452V24.5413C28.6791 24.445 28.8443 24.211 28.8443 23.9496C28.8443 23.5917 28.5553 23.3027 28.1975 23.3027H25.3625C25.0046 23.3027 24.7156 23.5917 24.7156 23.9496C24.7156 24.2248 24.8808 24.445 25.1147 24.5413V28.2709H24.6468C24.289 28.2709 24 28.5599 24 28.9177C24 29.2755 24.289 29.5645 24.6468 29.5645H26.1331V53.2768H25.3625C25.0046 53.2768 24.7156 53.5658 24.7156 53.9236C24.7156 54.2814 25.0046 54.5704 25.3625 54.5704H26.1331V56.332C26.1331 56.6898 26.4221 56.9788 26.78 56.9788C27.1378 56.9788 27.4268 56.6898 27.4268 56.332V54.5704H28.1975C28.5553 54.5704 28.8443 54.2814 28.8443 53.9236C28.8443 53.5658 28.5553 53.2768 28.1975 53.2768H27.4268V29.5508H28.9269C29.2847 29.5508 29.5737 29.2618 29.5737 28.9039C29.5599 28.5599 29.2709 28.2709 28.9269 28.2709ZM26.4221 24.5964H27.1515V28.2709H26.4221V24.5964Z" fill="white"/>
</svg>
