<svg width="80" height="80" viewBox="0 0 80 80" fill="none" xmlns="http://www.w3.org/2000/svg">
<path d="M56.5939 22.771C55.4538 21.6309 53.9264 21 52.3103 21C50.6943 21 49.1669 21.6309 48.0268 22.771C47.5619 23.2359 46.8646 24.0107 45.9127 25.0954C43.9203 27.3423 40.5776 31.1167 35.8402 35.843C31.1029 40.5804 27.3395 43.9231 25.0926 45.9154C24.019 46.8673 23.2442 47.5647 22.7682 48.0296C20.4106 50.3872 20.4106 54.228 22.7682 56.5967C23.9083 57.7367 25.4357 58.3676 27.0518 58.3676C28.6678 58.3676 30.1953 57.7367 31.3353 56.5967C31.8002 56.1318 32.4975 55.357 33.4494 54.2723C35.4418 52.0253 38.7845 48.2509 43.5219 43.5246C48.2592 38.7873 52.0226 35.4445 54.2695 33.4522C55.3431 32.5003 56.1179 31.803 56.5939 31.3381C57.734 30.198 58.3649 28.6705 58.3649 27.0545C58.3649 25.4385 57.734 23.9221 56.5939 22.771ZM42.6032 31.5041C42.9574 31.5041 43.3005 31.5927 43.6104 31.7587L40.7547 34.6144C40.3562 33.8728 40.4337 32.932 40.9871 32.2678C41.0425 32.2014 41.0978 32.1461 41.1642 32.0907C41.5516 31.7144 42.0608 31.5041 42.6032 31.5041ZM47.2852 38.2006C47.2188 38.256 47.1634 38.3113 47.097 38.3777C46.7207 38.6876 46.2447 38.8647 45.7467 38.8647C45.1822 38.8647 44.6619 38.6434 44.2635 38.2449L41.5295 35.511L44.4959 32.5446L47.2298 35.2785C48.0379 36.0865 48.06 37.3815 47.2852 38.2006ZM33.6044 40.5029C33.9586 40.5029 34.3017 40.5914 34.6116 40.7575L31.767 43.6021C31.601 43.3033 31.5124 42.9601 31.5124 42.5949C31.5124 42.0525 31.7116 41.5433 32.088 41.1559C32.1544 41.1006 32.2097 41.0453 32.2761 40.9788C32.6414 40.68 33.1063 40.5029 33.6044 40.5029ZM38.3639 47.1109C38.3085 47.1773 38.2532 47.2326 38.1868 47.299C37.7994 47.6643 37.2902 47.8746 36.7479 47.8746C36.1834 47.8746 35.6631 47.6532 35.2647 47.2547L32.5307 44.5208L35.4971 41.5544L38.2311 44.2884C39.0169 45.0521 39.0612 46.2807 38.3639 47.1109ZM32.5529 53.4864C31.612 54.549 30.9368 55.3127 30.4941 55.7554C29.5754 56.6741 28.3579 57.1833 27.0518 57.1833C25.7457 57.1833 24.5281 56.6741 23.6094 55.7554C21.7167 53.8627 21.7167 50.7746 23.6094 48.8818C24.0522 48.4391 24.8159 47.7639 25.8785 46.8231C27.0075 45.8269 28.5018 44.4876 30.317 42.8162C30.3502 43.425 30.5494 43.9895 30.8926 44.4876L30.7155 44.6647C30.483 44.8971 30.483 45.2735 30.7155 45.5059C30.8372 45.6277 30.9811 45.683 31.1361 45.683C31.291 45.683 31.446 45.6277 31.5567 45.5059L31.7006 45.362L34.4345 48.096C35.0101 48.6715 35.7628 49.0036 36.5597 49.0589C34.8883 50.852 33.549 52.3574 32.5529 53.4864ZM42.6696 42.6834C41.7287 43.6242 40.8543 44.5208 40.0242 45.3731C39.9356 44.6647 39.6257 43.9784 39.0833 43.425L36.3494 40.6911L36.4933 40.5472C36.7257 40.3147 36.7257 39.9384 36.4933 39.706C36.2609 39.4735 35.8845 39.4735 35.6521 39.706L35.475 39.8831C35.0322 39.5731 34.5231 39.385 33.9918 39.3296C34.8441 38.4995 35.7517 37.6251 36.6815 36.6842C37.6223 35.7434 38.4967 34.8468 39.3269 33.9946C39.3933 34.5148 39.5704 35.0239 39.8803 35.4777L39.7032 35.6548C39.4707 35.8873 39.4707 36.2636 39.7032 36.4961C39.8249 36.6178 39.9688 36.6732 40.1238 36.6732C40.2788 36.6732 40.4337 36.6178 40.5444 36.4961L40.6883 36.3522L43.4222 39.0861C43.9535 39.6174 44.6287 39.9384 45.3593 40.0269C44.507 40.8571 43.6104 41.7426 42.6696 42.6834ZM55.7416 30.4969C55.2989 30.9396 54.5351 31.6148 53.4725 32.5556C52.3435 33.5518 50.8493 34.8911 49.034 36.5625C48.9898 35.7877 48.6688 35.0239 48.0821 34.4373L45.3482 31.7033L45.4921 31.5595C45.7245 31.327 45.7245 30.9507 45.4921 30.7182C45.2596 30.4858 44.8833 30.4858 44.6509 30.7182L44.4738 30.8953C43.9867 30.5522 43.4112 30.353 42.8024 30.3198C44.4738 28.5045 45.802 27.0103 46.8092 25.8813C47.7501 24.8187 48.4253 24.0549 48.868 23.6122C49.7867 22.6935 51.0042 22.1843 52.3103 22.1843C53.6054 22.1843 54.834 22.6935 55.7527 23.6122C56.6714 24.5309 57.1805 25.7484 57.1805 27.0545C57.1805 28.3606 56.6603 29.5782 55.7416 30.4969Z" fill="white" stroke="white" stroke-width="0.4" stroke-miterlimit="10"/>
<path d="M37.1129 44.5542L35.5523 46.1149C35.3198 46.3473 35.3198 46.7237 35.5523 46.9561C35.674 47.0779 35.8179 47.1332 35.9729 47.1332C36.1278 47.1332 36.2828 47.0779 36.3935 46.9561L37.9541 45.3954C38.1866 45.163 38.1866 44.7867 37.9541 44.5542C37.7328 44.3218 37.3564 44.3218 37.1129 44.5542Z" fill="white" stroke="white" stroke-width="0.4" stroke-miterlimit="10"/>
<path d="M46.112 35.5562L44.5513 37.1168C44.3188 37.3493 44.3188 37.7256 44.5513 37.9581C44.673 38.0798 44.8169 38.1352 44.9719 38.1352C45.1269 38.1352 45.2818 38.0798 45.3925 37.9581L46.9532 36.3974C47.1856 36.1649 47.1856 35.7886 46.9532 35.5562C46.7207 35.3237 46.3444 35.3237 46.112 35.5562Z" fill="white" stroke="white" stroke-width="0.4" stroke-miterlimit="10"/>
</svg>
