<svg xmlns="http://www.w3.org/2000/svg" xmlns:xlink="http://www.w3.org/1999/xlink" viewBox="0 0 28.2 28.2"><defs><style>.cls-1{fill:#fc8763;}</style><symbol id="dsd" data-name="dsd" viewBox="0 0 28.2 28.2"><path class="cls-1" d="M14.1,0A14.1,14.1,0,1,0,28.2,14.1,14.08,14.08,0,0,0,14.1,0Zm4.6,17.4a.85.85,0,0,1,0,1.3,1,1,0,0,1-1.4,0L14,15.4l-3.3,3.3a.91.91,0,0,1-.7.3,1.08,1.08,0,0,1-.7-.3.85.85,0,0,1,0-1.3l3.3-3.3L9.3,10.8a.92.92,0,1,1,1.3-1.3l3.3,3.3,3.3-3.3a.92.92,0,1,1,1.3,1.3l-3.3,3.3Z"/><rect class="cls-1" x="2.85" y="11.21" width="1.86" height="5.84"/></symbol></defs><title>clean-search</title><g id="Слой_2" data-name="Слой 2"><g id="Слой_1-2" data-name="Слой 1"><use id="clean-search" width="28.2" height="28.2" xlink:href="#dsd"/></g></g></svg>