<svg xmlns="http://www.w3.org/2000/svg" xmlns:xlink="http://www.w3.org/1999/xlink" viewBox="0 0 28 28"><defs><style>.cls-1{fill:#fff;}.cls-2{fill:none;}</style><symbol id="Новый_символ_22" data-name="Новый символ 22" viewBox="0 0 28 28"><path class="cls-1" d="M14,0A14,14,0,1,0,28,14,14,14,0,0,0,14,0Zm0,26.1A12.1,12.1,0,1,1,26.1,14,12.14,12.14,0,0,1,14,26.1Z"/><path class="cls-1" d="M18.6,9.4a.85.85,0,0,0-1.3,0L14,12.7,10.7,9.4a.92.92,0,0,0-1.3,1.3L12.7,14,9.4,17.3a.85.85,0,0,0,0,1.3,1,1,0,0,0,1.4,0l3.3-3.3,3.3,3.3a.91.91,0,0,0,.7.3,1.08,1.08,0,0,0,.7-.3.85.85,0,0,0,0-1.3L15.5,14l3.3-3.3A1.48,1.48,0,0,0,18.6,9.4Z"/><rect class="cls-2" x="6.44" y="9.92" height="6.6"/></symbol></defs><title>close-card-control-navigation-clean</title><g id="Слой_2" data-name="Слой 2"><g id="Слой_1-2" data-name="Слой 1"><use id="close-card-control-navigation-clean" width="28" height="28" xlink:href="#Новый_символ_22"/></g></g></svg>