<svg xmlns="http://www.w3.org/2000/svg" xmlns:xlink="http://www.w3.org/1999/xlink" viewBox="0 0 28.2 28.2"><defs><style>.cls-1{fill:#fff;}</style><symbol id="zzscszcsz_1" data-name="zzscszcsz 1" viewBox="0 0 28.2 28.2"><path class="cls-1" d="M14.1,0A14.1,14.1,0,1,0,28.2,14.1,14.08,14.08,0,0,0,14.1,0Zm4.6,17.4a.85.85,0,0,1,0,1.3,1,1,0,0,1-1.4,0L14,15.4l-3.3,3.3a.91.91,0,0,1-.7.3,1.08,1.08,0,0,1-.7-.3.85.85,0,0,1,0-1.3l3.3-3.3L9.3,10.8a.92.92,0,1,1,1.3-1.3l3.3,3.3,3.3-3.3a.92.92,0,1,1,1.3,1.3l-3.3,3.3Z"/><rect class="cls-1" x="12.32" y="3.33" width="5.03" height="2.87"/></symbol></defs><title>close-card-control-navigation-fill</title><g id="Слой_2" data-name="Слой 2"><g id="Слой_1-2" data-name="Слой 1"><use id="close-card-control-navigation-fill" width="28.2" height="28.2" xlink:href="#zzscszcsz_1"/></g></g></svg>