<svg width="19" height="11" viewBox="0 0 19 11" fill="none" xmlns="http://www.w3.org/2000/svg">
<path d="M9.5 0C5.86985 0 2.57784 1.92896 0.148665 5.06211C-0.0495551 5.31881 -0.0495551 5.67742 0.148665 5.93411C2.57784 9.07104 5.86985 11 9.5 11C13.1302 11 16.4222 9.07104 18.8513 5.93789C19.0496 5.68119 19.0496 5.32258 18.8513 5.06589C16.4222 1.92896 13.1302 0 9.5 0ZM9.76041 9.37303C7.35067 9.52025 5.36069 7.59128 5.51227 5.24708C5.63665 3.31434 7.24962 1.74777 9.23959 1.62697C11.6493 1.47975 13.6393 3.40872 13.4877 5.75292C13.3595 7.68188 11.7465 9.24846 9.76041 9.37303ZM9.63992 7.58373C8.34177 7.66301 7.26905 6.62491 7.35456 5.3641C7.42063 4.32224 8.29124 3.48044 9.36397 3.41249C10.6621 3.33322 11.7348 4.37131 11.6493 5.63212C11.5794 6.67776 10.7088 7.51956 9.63992 7.58373Z" fill="#AAA9A9"/>
</svg>
