<svg xmlns="http://www.w3.org/2000/svg" xmlns:xlink="http://www.w3.org/1999/xlink" viewBox="0 0 19.5 19.05"><defs><style>.cls-1{fill:#fff;}</style><symbol id="Новый_символ_20" data-name="Новый символ 20" viewBox="0 0 19.5 19.05"><g id="Слой_1-2-2" data-name="Слой 1-2"><path class="cls-1" d="M19.5,9.56a.68.68,0,0,0-.7-.7H10.1a2.89,2.89,0,0,0-3.5-2.1,2.81,2.81,0,0,0-2.1,2.1H.7a.7.7,0,1,0,0,1.4H4.5A2.89,2.89,0,0,0,8,12.36a2.81,2.81,0,0,0,2.1-2.1h8.7A.68.68,0,0,0,19.5,9.56Zm-10.6,0a1.54,1.54,0,0,1-1.5,1.5,1.5,1.5,0,0,1,0-3h0A1.54,1.54,0,0,1,8.9,9.56Z"/><path class="cls-1" d="M19.5,16.16a.68.68,0,0,0-.7-.7H14.6a2.89,2.89,0,0,0-3.5-2.1A2.81,2.81,0,0,0,9,15.46H.6c-.4,0-.6.4-.6.8a.65.65,0,0,0,.6.6H9A2.89,2.89,0,0,0,12.5,19a2.81,2.81,0,0,0,2.1-2.1h4.2a.68.68,0,0,0,.7-.7Z"/><path class="cls-1" d="M19.5,3a.68.68,0,0,0-.7-.7H14.6A2.85,2.85,0,0,0,11.2.06,2.77,2.77,0,0,0,9,2.26H.7A.68.68,0,0,0,0,3H0a.68.68,0,0,0,.7.7H9a2.89,2.89,0,0,0,3.5,2.1,2.81,2.81,0,0,0,2.1-2.1h4.2a.68.68,0,0,0,.7-.7Z"/></g></symbol></defs><title>filter-fill</title><g id="Слой_2" data-name="Слой 2"><g id="Слой_1-2" data-name="Слой 1"><use id="filter-fill" width="19.5" height="19.05" xlink:href="#Новый_символ_20"/></g></g></svg>