<svg xmlns="http://www.w3.org/2000/svg" xmlns:xlink="http://www.w3.org/1999/xlink" viewBox="0 0 19.6 19.08"><defs><style>.cls-1{fill:#fff;}.cls-2{fill:none;}</style><symbol id="Новый_символ_21" data-name="Новый символ 21" viewBox="0 0 19.6 19.08"><path class="cls-1" d="M.7,10.29H9.4a2.89,2.89,0,0,0,3.5,2.1,2.81,2.81,0,0,0,2.1-2.1h3.8a.7.7,0,0,0,0-1.4H15a2.89,2.89,0,0,0-3.5-2.1,2.81,2.81,0,0,0-2.1,2.1H.7a.68.68,0,0,0-.7.7.75.75,0,0,0,.7.7Zm11.5-2.2a1.5,1.5,0,1,1-1.5,1.5h0A1.47,1.47,0,0,1,12.2,8.09Z"/><path class="cls-1" d="M.7,16.89H4.9A2.89,2.89,0,0,0,8.4,19a2.81,2.81,0,0,0,2.1-2.1h8.4c.4,0,.6-.4.6-.8a.65.65,0,0,0-.6-.6H10.5A2.89,2.89,0,0,0,7,13.39a2.81,2.81,0,0,0-2.1,2.1H.7c-.4,0-.6.4-.6.8S.4,16.79.7,16.89Zm7-2.2a1.5,1.5,0,1,1-1.5,1.5v-.1a1.45,1.45,0,0,1,1.5-1.4Z"/><path class="cls-1" d="M.7,3.59H4.9a2.89,2.89,0,0,0,3.5,2.1,2.81,2.81,0,0,0,2.1-2.1h8.4a.68.68,0,0,0,.7-.7h0a.68.68,0,0,0-.7-.7H10.5A2.89,2.89,0,0,0,7,.09a2.81,2.81,0,0,0-2.1,2.1H.7c-.4,0-.6.4-.6.8A.58.58,0,0,0,.7,3.59Zm7-2.2a1.54,1.54,0,0,1,1.5,1.5,1.5,1.5,0,0,1-3,0v-.1a1.52,1.52,0,0,1,1.5-1.4Z"/><rect class="cls-2" x="2.23" y="8.89" width="6.97" height="7.3"/></symbol></defs><title>filter-clean</title><g id="Слой_2" data-name="Слой 2"><g id="Слой_1-2" data-name="Слой 1"><use id="filter-clean" width="19.6" height="19.08" xlink:href="#Новый_символ_21"/></g></g></svg>