<svg width="60" height="81" viewBox="0 0 60 81" fill="none" xmlns="http://www.w3.org/2000/svg">
<path d="M48.9953 7.81689C46.8031 7.81689 45.0188 9.6012 45.0188 11.7934C45.0188 13.9855 46.8031 15.7698 48.9953 15.7698C51.1874 15.7698 52.9717 13.9855 52.9717 11.7934C52.9717 9.6012 51.1874 7.81689 48.9953 7.81689ZM48.9953 14.6337C47.4291 14.6337 46.1549 13.3595 46.1549 11.7934C46.1549 10.2272 47.4291 8.95303 48.9953 8.95303C50.5614 8.95303 51.8356 10.2272 51.8356 11.7934C51.8356 13.3595 50.5614 14.6337 48.9953 14.6337Z" fill="white" stroke="white" stroke-width="0.2"/>
<path d="M56.5971 4.19084C54.5395 2.1333 51.8037 1 48.8941 1C45.9839 1 43.2486 2.1333 41.1911 4.19084C37.3833 7.99803 36.9101 15.1614 40.1663 19.5014L48.8941 30.52L57.6088 19.519C60.8781 15.1614 60.4049 7.99803 56.5971 4.19084ZM56.6874 18.8549L48.8941 28.4557L41.0883 18.8373C38.1349 14.8995 38.5581 8.43033 41.9949 4.99409C43.8377 3.15127 46.2878 2.13614 48.8941 2.13614C51.5004 2.13614 53.9505 3.15127 55.7938 4.99409C59.2307 8.43033 59.6539 14.8995 56.6874 18.8549Z" fill="white" stroke="white" stroke-width="0.2"/>
<path d="M11.9953 57.8169C9.8031 57.8169 8.0188 59.6012 8.0188 61.7934C8.0188 63.9855 9.8031 65.7698 11.9953 65.7698C14.1874 65.7698 15.9717 63.9855 15.9717 61.7934C15.9717 59.6012 14.1874 57.8169 11.9953 57.8169ZM11.9953 64.6337C10.4291 64.6337 9.15493 63.3595 9.15493 61.7934C9.15493 60.2272 10.4291 58.953 11.9953 58.953C13.5614 58.953 14.8356 60.2272 14.8356 61.7934C14.8356 63.3595 13.5614 64.6337 11.9953 64.6337Z" fill="white" stroke="white" stroke-width="0.2"/>
<path d="M19.5971 54.1908C17.5396 52.1333 14.8037 51 11.8941 51C8.98388 51 6.24863 52.1333 4.19109 54.1908C0.383332 57.998 -0.0898676 65.1614 3.1663 69.5014L11.8941 80.52L20.6088 69.519C23.8781 65.1614 23.4049 57.998 19.5971 54.1908ZM19.6874 68.8549L11.8941 78.4557L4.08827 68.8373C1.13489 64.8995 1.5581 58.4303 4.99491 54.9941C6.83772 53.1513 9.2878 52.1361 11.8941 52.1361C14.5004 52.1361 16.9505 53.1513 18.7938 54.9941C22.2307 58.4303 22.6539 64.8995 19.6874 68.8549Z" fill="white" stroke="white" stroke-width="0.2"/>
<path d="M34.5 14.5C34.7761 14.5 35 14.2761 35 14C35 13.7239 34.7761 13.5 34.5 13.5V14.5ZM25.5 67.5C25.2239 67.5 25 67.7239 25 68C25 68.2761 25.2239 68.5 25.5 68.5V67.5ZM26.2881 68.5C26.5643 68.5 26.7881 68.2761 26.7881 68C26.7881 67.7239 26.5643 67.5 26.2881 67.5V68.5ZM29.4407 67.5C29.1645 67.5 28.9407 67.7239 28.9407 68C28.9407 68.2761 29.1645 68.5 29.4407 68.5V67.5ZM31.1516 68.471C31.4272 68.4536 31.6365 68.2162 31.6191 67.9406C31.6018 67.665 31.3643 67.4556 31.0887 67.473L31.1516 68.471ZM34.4533 66.8232C34.1912 66.9099 34.049 67.1928 34.1357 67.4549C34.2225 67.7171 34.5053 67.8593 34.7675 67.7725L34.4533 66.8232ZM36.4784 67.0807C36.7272 66.9609 36.8317 66.662 36.7118 66.4132C36.592 66.1645 36.2931 66.06 36.0444 66.1798L36.4784 67.0807ZM38.9129 64.3071C38.7031 64.4866 38.6785 64.8022 38.8581 65.012C39.0377 65.2218 39.3533 65.2463 39.5631 65.0668L38.9129 64.3071ZM40.8847 63.7779C41.0694 63.5727 41.0528 63.2565 40.8475 63.0718C40.6423 62.8871 40.3261 62.9037 40.1414 63.1089L40.8847 63.7779ZM42.0781 60.2868C41.9533 60.5331 42.0518 60.834 42.2981 60.9588C42.5444 61.0836 42.8453 60.9851 42.9701 60.7388L42.0781 60.2868ZM43.6932 59.0383C43.784 58.7775 43.6462 58.4925 43.3854 58.4018C43.1246 58.311 42.8396 58.4488 42.7488 58.7096L43.6932 59.0383ZM43.4293 55.3582C43.411 55.6337 43.6196 55.8719 43.8951 55.8902C44.1707 55.9084 44.4088 55.6999 44.4271 55.4243L43.4293 55.3582ZM44.4271 53.5757C44.4088 53.3001 44.1707 53.0916 43.8951 53.1098C43.6196 53.1281 43.411 53.3663 43.4293 53.6418L44.4271 53.5757ZM42.7488 50.2904C42.8396 50.5512 43.1246 50.689 43.3854 50.5982C43.6462 50.5075 43.784 50.2225 43.6932 49.9617L42.7488 50.2904ZM42.9701 48.2612C42.8453 48.0149 42.5444 47.9164 42.2981 48.0412C42.0518 48.166 41.9533 48.4669 42.0781 48.7132L42.9701 48.2612ZM40.1414 45.8911C40.3261 46.0963 40.6423 46.1129 40.8475 45.9282C41.0528 45.7435 41.0694 45.4273 40.8847 45.2221L40.1414 45.8911ZM39.5631 43.9332C39.3533 43.7536 39.0377 43.7782 38.8581 43.988C38.6785 44.1977 38.7031 44.5134 38.9129 44.6929L39.5631 43.9332ZM36.0444 42.8202C36.2931 42.94 36.592 42.8355 36.7118 42.5868C36.8317 42.338 36.7272 42.0391 36.4784 41.9193L36.0444 42.8202ZM34.7675 41.2275C34.5053 41.1407 34.2225 41.2829 34.1357 41.5451C34.049 41.8072 34.1912 42.0901 34.4533 42.1768L34.7675 41.2275ZM31.0887 41.527C31.3643 41.5444 31.6018 41.335 31.6191 41.0594C31.6365 40.7838 31.4272 40.5464 31.1516 40.529L31.0887 41.527ZM29.3689 40.473C29.0933 40.4556 28.8559 40.665 28.8385 40.9406C28.8211 41.2162 29.0305 41.4536 29.3061 41.471L29.3689 40.473ZM25.6901 40.7725C25.9523 40.8593 26.2351 40.7171 26.3219 40.4549C26.4086 40.1928 26.2664 39.9099 26.0043 39.8232L25.6901 40.7725ZM24.4133 39.1798C24.1645 39.06 23.8657 39.1645 23.7458 39.4132C23.6259 39.662 23.7305 39.9609 23.9792 40.0807L24.4133 39.1798ZM20.8945 38.0668C21.1043 38.2464 21.42 38.2218 21.5995 38.012C21.7791 37.8023 21.7546 37.4866 21.5448 37.3071L20.8945 38.0668ZM20.3162 36.1089C20.1315 35.9037 19.8153 35.8871 19.6101 36.0718C19.4048 36.2565 19.3882 36.5727 19.5729 36.7779L20.3162 36.1089ZM17.4875 33.7388C17.6123 33.9851 17.9132 34.0836 18.1595 33.9588C18.4059 33.834 18.5044 33.5331 18.3795 33.2868L17.4875 33.7388ZM17.7088 31.7096C17.618 31.4488 17.333 31.311 17.0722 31.4018C16.8114 31.4925 16.6736 31.7775 16.7644 32.0383L17.7088 31.7096ZM16.0305 28.4243C16.0488 28.6999 16.287 28.9084 16.5625 28.8902C16.838 28.8719 17.0466 28.6337 17.0283 28.3582L16.0305 28.4243ZM17.0283 26.6418C17.0466 26.3663 16.838 26.1281 16.5625 26.1098C16.287 26.0916 16.0488 26.3001 16.0305 26.5757L17.0283 26.6418ZM16.7644 22.9617C16.6736 23.2225 16.8114 23.5075 17.0722 23.5982C17.333 23.689 17.618 23.5512 17.7088 23.2904L16.7644 22.9617ZM18.3795 21.7132C18.5044 21.4669 18.4059 21.166 18.1595 21.0412C17.9132 20.9164 17.6123 21.0149 17.4875 21.2612L18.3795 21.7132ZM19.5729 18.2221C19.3882 18.4273 19.4048 18.7435 19.6101 18.9282C19.8153 19.1129 20.1315 19.0963 20.3162 18.8911L19.5729 18.2221ZM21.5448 17.6929C21.7546 17.5134 21.7791 17.1977 21.5995 16.988C21.42 16.7782 21.1043 16.7536 20.8945 16.9332L21.5448 17.6929ZM23.9792 14.9193C23.7305 15.0391 23.6259 15.338 23.7458 15.5868C23.8657 15.8355 24.1645 15.94 24.4133 15.8202L23.9792 14.9193ZM26.0043 15.1768C26.2664 15.0901 26.4086 14.8072 26.3219 14.5451C26.2351 14.2829 25.9523 14.1407 25.6901 14.2275L26.0043 15.1768ZM29.3061 13.529C29.0305 13.5464 28.8211 13.7838 28.8385 14.0594C28.8559 14.335 29.0933 14.5444 29.3689 14.527L29.3061 13.529ZM30.9407 14.5C31.2168 14.5 31.4407 14.2761 31.4407 14C31.4407 13.7239 31.2168 13.5 30.9407 13.5V14.5ZM33.7881 13.5C33.512 13.5 33.2881 13.7239 33.2881 14C33.2881 14.2761 33.512 14.5 33.7881 14.5V13.5ZM25.5 68.5H26.2881V67.5H25.5V68.5ZM29.4407 68.5H30.2288V67.5H29.4407V68.5ZM30.2288 68.5C30.5388 68.5 30.8464 68.4902 31.1516 68.471L31.0887 67.473C30.8045 67.4909 30.5178 67.5 30.2288 67.5V68.5ZM34.7675 67.7725C35.3559 67.5778 35.9272 67.3463 36.4784 67.0807L36.0444 66.1798C35.5318 66.4268 35.0006 66.6421 34.4533 66.8232L34.7675 67.7725ZM39.5631 65.0668C40.0315 64.6659 40.4731 64.2353 40.8847 63.7779L40.1414 63.1089C39.7588 63.534 39.3484 63.9343 38.9129 64.3071L39.5631 65.0668ZM42.9701 60.7388C43.2474 60.1915 43.4895 59.6237 43.6932 59.0383L42.7488 58.7096C42.5599 59.2523 42.3354 59.779 42.0781 60.2868L42.9701 60.7388ZM44.4271 55.4243C44.4473 55.1187 44.4576 54.8105 44.4576 54.5H43.4576C43.4576 54.7884 43.4481 55.0746 43.4293 55.3582L44.4271 55.4243ZM44.4576 54.5C44.4576 54.1895 44.4473 53.8813 44.4271 53.5757L43.4293 53.6418C43.4481 53.9254 43.4576 54.2116 43.4576 54.5H44.4576ZM43.6932 49.9617C43.4895 49.3763 43.2474 48.8085 42.9701 48.2612L42.0781 48.7132C42.3354 49.221 42.5599 49.7477 42.7488 50.2904L43.6932 49.9617ZM40.8847 45.2221C40.4731 44.7647 40.0315 44.3341 39.5631 43.9332L38.9129 44.6929C39.3484 45.0657 39.7588 45.466 40.1414 45.8911L40.8847 45.2221ZM36.4784 41.9193C35.9272 41.6537 35.3559 41.4222 34.7675 41.2275L34.4533 42.1768C35.0006 42.3579 35.5318 42.5732 36.0444 42.8202L36.4784 41.9193ZM31.1516 40.529C30.8464 40.5098 30.5388 40.5 30.2288 40.5V41.5C30.5178 41.5 30.8045 41.5091 31.0887 41.527L31.1516 40.529ZM30.2288 40.5C29.9399 40.5 29.6532 40.4909 29.3689 40.473L29.3061 41.471C29.6112 41.4902 29.9189 41.5 30.2288 41.5V40.5ZM26.0043 39.8232C25.4571 39.6421 24.9258 39.4268 24.4133 39.1798L23.9792 40.0807C24.5304 40.3463 25.1017 40.5778 25.6901 40.7725L26.0043 39.8232ZM21.5448 37.3071C21.1092 36.9343 20.6988 36.534 20.3162 36.1089L19.5729 36.7779C19.9846 37.2353 20.4261 37.6659 20.8945 38.0668L21.5448 37.3071ZM18.3795 33.2868C18.1222 32.779 17.8977 32.2523 17.7088 31.7096L16.7644 32.0383C16.9682 32.6237 17.2102 33.1915 17.4875 33.7388L18.3795 33.2868ZM17.0283 28.3582C17.0096 28.0746 17 27.7884 17 27.5H16C16 27.8105 16.0103 28.1187 16.0305 28.4243L17.0283 28.3582ZM17 27.5C17 27.2116 17.0096 26.9254 17.0283 26.6418L16.0305 26.5757C16.0103 26.8813 16 27.1895 16 27.5H17ZM17.7088 23.2904C17.8977 22.7477 18.1222 22.221 18.3795 21.7132L17.4875 21.2612C17.2102 21.8085 16.9682 22.3763 16.7644 22.9617L17.7088 23.2904ZM20.3162 18.8911C20.6988 18.466 21.1092 18.0657 21.5448 17.6929L20.8945 16.9332C20.4261 17.3341 19.9846 17.7647 19.5729 18.2221L20.3162 18.8911ZM24.4133 15.8202C24.9258 15.5732 25.4571 15.3579 26.0043 15.1768L25.6901 14.2275C25.1017 14.4222 24.5304 14.6537 23.9792 14.9193L24.4133 15.8202ZM29.3689 14.527C29.6532 14.5091 29.9399 14.5 30.2288 14.5V13.5C29.9189 13.5 29.6112 13.5098 29.3061 13.529L29.3689 14.527ZM30.2288 14.5H30.9407V13.5H30.2288V14.5ZM33.7881 14.5H34.5V13.5H33.7881V14.5ZM34.5 15C35.0523 15 35.5 14.5523 35.5 14C35.5 13.4477 35.0523 13 34.5 13V15ZM25.5 67C24.9477 67 24.5 67.4477 24.5 68C24.5 68.5523 24.9477 69 25.5 69V67ZM26.2881 69C26.8404 69 27.2881 68.5523 27.2881 68C27.2881 67.4477 26.8404 67 26.2881 67V69ZM29.4407 67C28.8884 67 28.4407 67.4477 28.4407 68C28.4407 68.5523 28.8884 69 29.4407 69V67ZM31.183 68.97C31.7342 68.9353 32.1529 68.4603 32.1181 67.9091C32.0834 67.3579 31.6084 66.9393 31.0572 66.974L31.183 68.97ZM34.2963 66.3485C33.7719 66.522 33.4875 67.0877 33.6611 67.612C33.8346 68.1363 34.4003 68.4207 34.9246 68.2472L34.2963 66.3485ZM36.6954 67.5312C37.193 67.2914 37.402 66.6938 37.1623 66.1962C36.9226 65.6987 36.3249 65.4897 35.8273 65.7294L36.6954 67.5312ZM38.5877 63.9272C38.1681 64.2863 38.1191 64.9176 38.4782 65.3372C38.8374 65.7568 39.4686 65.8058 39.8882 65.4467L38.5877 63.9272ZM41.2563 64.1124C41.6258 63.7019 41.5925 63.0696 41.182 62.7002C40.7715 62.3307 40.1392 62.364 39.7698 62.7745L41.2563 64.1124ZM41.6321 60.0608C41.3824 60.5534 41.5794 61.1552 42.0721 61.4048C42.5647 61.6544 43.1665 61.4574 43.4161 60.9648L41.6321 60.0608ZM44.1654 59.2027C44.347 58.6811 44.0713 58.1111 43.5498 57.9295C43.0282 57.748 42.4582 58.0236 42.2766 58.5452L44.1654 59.2027ZM42.9304 55.3251C42.8938 55.8762 43.311 56.3526 43.862 56.3891C44.4131 56.4256 44.8895 56.0085 44.926 55.4574L42.9304 55.3251ZM44.926 53.5426C44.8895 52.9915 44.4131 52.5744 43.862 52.6109C43.311 52.6474 42.8938 53.1238 42.9304 53.6749L44.926 53.5426ZM42.2766 50.4548C42.4582 50.9764 43.0282 51.252 43.5498 51.0705C44.0713 50.8889 44.347 50.3189 44.1654 49.7973L42.2766 50.4548ZM43.4161 48.0352C43.1665 47.5426 42.5647 47.3456 42.0721 47.5952C41.5794 47.8448 41.3824 48.4466 41.6321 48.9392L43.4161 48.0352ZM39.7698 46.2255C40.1392 46.636 40.7715 46.6693 41.182 46.2999C41.5925 45.9304 41.6258 45.2981 41.2563 44.8876L39.7698 46.2255ZM39.8882 43.5533C39.4686 43.1942 38.8374 43.2432 38.4782 43.6628C38.1191 44.0824 38.1681 44.7137 38.5877 45.0728L39.8882 43.5533ZM35.8273 43.2706C36.3249 43.5103 36.9226 43.3013 37.1623 42.8038C37.402 42.3062 37.193 41.7086 36.6954 41.4688L35.8273 43.2706ZM34.9246 40.7528C34.4003 40.5793 33.8346 40.8637 33.6611 41.388C33.4875 41.9123 33.7719 42.478 34.2963 42.6515L34.9246 40.7528ZM31.0572 42.026C31.6084 42.0607 32.0834 41.6421 32.1181 41.0909C32.1529 40.5397 31.7342 40.0647 31.183 40.03L31.0572 42.026ZM29.4004 39.974C28.8492 39.9393 28.3742 40.3579 28.3395 40.9091C28.3047 41.4603 28.7234 41.9353 29.2746 41.97L29.4004 39.974ZM25.533 41.2472C26.0574 41.4207 26.6231 41.1363 26.7966 40.612C26.9701 40.0877 26.6857 39.522 26.1614 39.3485L25.533 41.2472ZM24.6303 38.7294C24.1327 38.4897 23.5351 38.6987 23.2954 39.1962C23.0556 39.6938 23.2647 40.2914 23.7622 40.5312L24.6303 38.7294ZM20.5694 38.4467C20.989 38.8058 21.6203 38.7568 21.9794 38.3372C22.3385 37.9176 22.2895 37.2863 21.8699 36.9272L20.5694 38.4467ZM20.6879 35.7745C20.3184 35.364 19.6861 35.3307 19.2756 35.7002C18.8651 36.0696 18.8318 36.7019 19.2013 37.1124L20.6879 35.7745ZM17.0415 33.9648C17.2912 34.4574 17.8929 34.6544 18.3855 34.4048C18.8782 34.1552 19.0752 33.5534 18.8255 33.0608L17.0415 33.9648ZM18.181 31.5452C17.9995 31.0236 17.4295 30.748 16.9079 30.9295C16.3863 31.1111 16.1106 31.6811 16.2922 32.2027L18.181 31.5452ZM15.5316 28.4574C15.5682 29.0085 16.0445 29.4256 16.5956 29.3891C17.1467 29.3526 17.5638 28.8762 17.5273 28.3251L15.5316 28.4574ZM17.5273 26.6749C17.5638 26.1238 17.1467 25.6474 16.5956 25.6109C16.0445 25.5744 15.5682 25.9915 15.5316 26.5426L17.5273 26.6749ZM16.2922 22.7973C16.1106 23.3189 16.3863 23.8889 16.9079 24.0705C17.4295 24.252 17.9995 23.9764 18.181 23.4548L16.2922 22.7973ZM18.8255 21.9392C19.0752 21.4466 18.8782 20.8448 18.3855 20.5952C17.8929 20.3456 17.2912 20.5426 17.0415 21.0352L18.8255 21.9392ZM19.2013 17.8876C18.8318 18.2981 18.8651 18.9304 19.2756 19.2998C19.6861 19.6693 20.3184 19.636 20.6879 19.2255L19.2013 17.8876ZM21.8699 18.0728C22.2895 17.7137 22.3385 17.0824 21.9794 16.6628C21.6203 16.2432 20.989 16.1942 20.5694 16.5533L21.8699 18.0728ZM23.7622 14.4688C23.2647 14.7086 23.0556 15.3062 23.2954 15.8038C23.5351 16.3013 24.1327 16.5103 24.6303 16.2706L23.7622 14.4688ZM26.1614 15.6515C26.6857 15.478 26.9701 14.9123 26.7966 14.388C26.6231 13.8637 26.0574 13.5793 25.533 13.7528L26.1614 15.6515ZM29.2746 13.03C28.7234 13.0647 28.3047 13.5397 28.3395 14.0909C28.3742 14.6421 28.8492 15.0607 29.4004 15.026L29.2746 13.03ZM30.9407 15C31.493 15 31.9407 14.5523 31.9407 14C31.9407 13.4477 31.493 13 30.9407 13V15ZM33.7881 13C33.2359 13 32.7881 13.4477 32.7881 14C32.7881 14.5523 33.2359 15 33.7881 15V13ZM25.5 69H26.2881V67H25.5V69ZM29.4407 69H30.2288V67H29.4407V69ZM30.2288 69C30.5492 69 30.8674 68.9899 31.183 68.97L31.0572 66.974C30.7835 66.9912 30.5073 67 30.2288 67V69ZM34.9246 68.2472C35.5336 68.0457 36.1249 67.806 36.6954 67.5312L35.8273 65.7294C35.3341 65.967 34.8229 66.1742 34.2963 66.3485L34.9246 68.2472ZM39.8882 65.4467C40.3731 65.0317 40.8302 64.5859 41.2563 64.1124L39.7698 62.7745C39.4017 63.1833 39.0068 63.5685 38.5877 63.9272L39.8882 65.4467ZM43.4161 60.9648C43.7035 60.3977 43.9543 59.8094 44.1654 59.2027L42.2766 58.5452C42.0951 59.0667 41.8794 59.5727 41.6321 60.0608L43.4161 60.9648ZM44.926 55.4574C44.947 55.1408 44.9576 54.8215 44.9576 54.5H42.9576C42.9576 54.7774 42.9484 55.0525 42.9304 55.3251L44.926 55.4574ZM44.9576 54.5C44.9576 54.1785 44.947 53.8592 44.926 53.5426L42.9304 53.6749C42.9484 53.9475 42.9576 54.2226 42.9576 54.5H44.9576ZM44.1654 49.7973C43.9543 49.1906 43.7035 48.6023 43.4161 48.0352L41.6321 48.9392C41.8794 49.4273 42.0951 49.9333 42.2766 50.4548L44.1654 49.7973ZM41.2563 44.8876C40.8302 44.4141 40.3731 43.9683 39.8882 43.5533L38.5877 45.0728C39.0068 45.4315 39.4017 45.8167 39.7698 46.2255L41.2563 44.8876ZM36.6954 41.4688C36.1249 41.194 35.5336 40.9543 34.9246 40.7528L34.2963 42.6515C34.8229 42.8258 35.3341 43.033 35.8273 43.2706L36.6954 41.4688ZM31.183 40.03C30.8674 40.0101 30.5492 40 30.2288 40V42C30.5073 42 30.7835 42.0088 31.0572 42.026L31.183 40.03ZM30.2288 40C29.9504 40 29.6741 39.9912 29.4004 39.974L29.2746 41.97C29.5902 41.9899 29.9084 42 30.2288 42V40ZM26.1614 39.3485C25.6348 39.1742 25.1235 38.967 24.6303 38.7294L23.7622 40.5312C24.3327 40.806 24.924 41.0457 25.533 41.2472L26.1614 39.3485ZM21.8699 36.9272C21.4508 36.5685 21.0559 36.1833 20.6879 35.7745L19.2013 37.1124C19.6275 37.5859 20.0846 38.0317 20.5694 38.4467L21.8699 36.9272ZM18.8255 33.0608C18.5782 32.5727 18.3625 32.0667 18.181 31.5452L16.2922 32.2027C16.5034 32.8094 16.7542 33.3977 17.0415 33.9648L18.8255 33.0608ZM17.5273 28.3251C17.5092 28.0525 17.5 27.7774 17.5 27.5H15.5C15.5 27.8215 15.5106 28.1408 15.5316 28.4574L17.5273 28.3251ZM17.5 27.5C17.5 27.2226 17.5092 26.9475 17.5273 26.6749L15.5316 26.5426C15.5106 26.8592 15.5 27.1785 15.5 27.5H17.5ZM18.181 23.4548C18.3625 22.9333 18.5782 22.4273 18.8255 21.9392L17.0415 21.0352C16.7542 21.6023 16.5034 22.1906 16.2922 22.7973L18.181 23.4548ZM20.6879 19.2255C21.0559 18.8167 21.4508 18.4315 21.8699 18.0728L20.5694 16.5533C20.0846 16.9683 19.6275 17.4141 19.2013 17.8876L20.6879 19.2255ZM24.6303 16.2706C25.1236 16.033 25.6348 15.8258 26.1614 15.6515L25.533 13.7528C24.924 13.9543 24.3327 14.194 23.7622 14.4688L24.6303 16.2706ZM29.4004 15.026C29.6741 15.0088 29.9504 15 30.2288 15V13C29.9084 13 29.5902 13.0101 29.2746 13.03L29.4004 15.026ZM30.2288 15H30.9407V13H30.2288V15ZM33.7881 15H34.5V13H33.7881V15Z" fill="white"/>
</svg>
