<svg width="44" height="31" viewBox="0 0 44 31" fill="none" xmlns="http://www.w3.org/2000/svg">
<path d="M31.6 12.2C31.4 12.1 31.2 12 31.1 11.8C29.5 10.7 27.4 9.30002 25.2 7.40002C24.4 6.80002 23.8 6.10002 23.2 5.40002C21.4 3.30002 19.2 2.00002 16.5 1.40002C13.8 0.800019 10.9 1.30001 7.8 2.80001C5.3 4.00001 3.1 5.70001 1.8 6.80001C0.899995 7.60001 0.299995 8.80001 0.299995 10L0 16C0 16.2 0.0999939 16.5 0.399994 16.6C11.6 21.8 21 30.4 21.1 30.5C21.2 30.6 21.4 30.7 21.5 30.7L23 30.5C25 30.2 26.4 28.5 26.4 26.5V23.5C26.4 23.3 26.3 23.1 26.1 23C25.9 22.9 25.6 22.9 25.5 23.1L22.9 25.2L16.3 20.5C15.9 20.3 15.8 19.8 15.8 19.4L16.1 17.6L24.3 16.7C24.6 16.7 24.8 16.4 24.8 16.1V14.4L25.5 14.3C25.8 14.3 26 14 26 13.7V12.4C28.2 13.1 30 13.4 31.2 13.2C31.4 13.2 31.6 13 31.7 12.7C31.9 12.6 31.8 12.3 31.6 12.2Z" fill="#FC8763"/>
<path d="M43.1 12.2C42.9 12.1 42.7 12 42.6 11.8C41 10.7 38.9 9.30002 36.7 7.40002C35.9 6.80002 35.3 6.10002 34.7 5.40002C32.9 3.30002 30.7 2.00002 28 1.40002C25.3 0.800019 22.4 1.30001 19.3 2.80001C16.8 4.00001 14.6 5.70001 13.3 6.80001C12.4 7.60001 11.8 8.80001 11.8 10L11.5 16C11.5 16.2 11.6 16.5 11.9 16.6C23 21.8 32.4 30.4 32.5 30.5C32.6 30.6 32.8 30.7 32.9 30.7L34.4 30.5C36.4 30.2 37.8 28.5 37.8 26.5V23.5C37.8 23.3 37.7 23.1 37.5 23C37.3 22.9 37 22.9 36.9 23.1L34.3 25.2L27.8 20.8C27.4 20.6 27.3 20.1 27.3 19.7L27.6 17.9L35.8 17C36.1 17 36.3 16.7 36.3 16.4V14.7L37 14.6C37.3 14.6 37.5 14.3 37.5 14V12.7C39.7 13.4 41.5 13.7 42.7 13.5C42.9 13.5 43.1 13.3 43.2 13C43.4 12.6 43.3 12.3 43.1 12.2ZM35.2 15.6L27.9 16.4V16.3C28 15.8 28.4 15.5 28.9 15.4L35.2 14.6V15.6Z" fill="white"/>
<path d="M31.6 12.2C31.4 12.1 31.2 12 31.1 11.8C29.5 10.7 27.4 9.30002 25.2 7.40002C24.4 6.80002 23.8 6.10002 23.2 5.40002C21.4 3.30002 19.2 2.00002 16.5 1.40002C13.8 0.800019 10.9 1.30001 7.8 2.80001C5.3 4.00001 3.1 5.70001 1.8 6.80001C0.899995 7.60001 0.299995 8.80001 0.299995 10L0 16C0 16.2 0.0999939 16.5 0.399994 16.6C11.6 21.8 21 30.4 21.1 30.5C21.2 30.6 21.4 30.7 21.5 30.7L23 30.5C25 30.2 26.4 28.5 26.4 26.5V23.5C26.4 23.3 26.3 23.1 26.1 23C25.9 22.9 25.6 22.9 25.5 23.1L22.9 25.2L16.3 20.5C15.9 20.3 15.8 19.8 15.8 19.4L16.1 17.6L24.3 16.7C24.6 16.7 24.8 16.4 24.8 16.1V14.4L25.5 14.3C25.8 14.3 26 14 26 13.7V12.4C28.2 13.1 30 13.4 31.2 13.2C31.4 13.2 31.6 13 31.7 12.7C31.9 12.6 31.8 12.3 31.6 12.2Z" fill="#FC8763"/>
<path d="M31.6 12.2C31.4 12.1 31.2 12 31.1 11.8C29.5 10.7 27.4 9.30002 25.2 7.40002C24.4 6.80002 23.8 6.10002 23.2 5.40002C21.4 3.30002 19.2 2.00002 16.5 1.40002C13.8 0.800019 10.9 1.30001 7.8 2.80001C5.3 4.00001 3.1 5.70001 1.8 6.80001C0.899995 7.60001 0.299995 8.80001 0.299995 10L0 16C0 16.2 0.0999939 16.5 0.399994 16.6C11.6 21.8 21 30.4 21.1 30.5C21.2 30.6 21.4 30.7 21.5 30.7L23 30.5C25 30.2 26.4 28.5 26.4 26.5V23.5C26.4 23.3 26.3 23.1 26.1 23C25.9 22.9 25.6 22.9 25.5 23.1L22.9 25.2L16.3 20.5C15.9 20.3 15.8 19.8 15.8 19.4L16.1 17.6L24.3 16.7C24.6 16.7 24.8 16.4 24.8 16.1V14.4L25.5 14.3C25.8 14.3 26 14 26 13.7V12.4C28.2 13.1 30 13.4 31.2 13.2C31.4 13.2 31.6 13 31.7 12.7C31.9 12.6 31.8 12.3 31.6 12.2ZM23.7 15.6L16.4 16.4V16.3C16.5 15.8 16.9 15.5 17.4 15.4L23.7 14.6V15.6ZM25.8 11.1C25.3 10.9 24.8 10.7 24.3 10.5C24.2 10.5 23 10 21.6 9.80001C19.5 9.40001 18.2 9.70002 17.6 10.6C17.4 10.9 17.5 11.2 17.8 11.4C18.1 11.6 18.5 11.5 18.6 11.2C19.2 10.3 22.1 10.9 23.9 11.6C24.3 11.7 24.6 11.9 25 12V13.2L17.3 14.2C16.3 14.3 15.5 15.1 15.3 16.1L14.7 19.2C14.5 20.1 14.9 21 15.7 21.5L22.6 26.2C22.8 26.3 23.1 26.3 23.3 26.2L25.3 24.6V26.4C25.3 27.8 24.3 29 22.9 29.3L21.8 29.5C20.3 28.2 11.7 20.6 1.3 15.8L1.6 10.2C1.6 9.90002 1.7 9.60002 1.8 9.40002L11.7 14.7C11.8 14.7 11.9 14.8 12 14.8C12.2 14.8 12.4 14.7 12.5 14.5C12.7 14.2 12.6 13.9 12.3 13.7L2.39999 8.40002C2.49999 8.20002 2.7 8.10001 2.8 8.00001C3.1 7.70001 3.5 7.40002 3.8 7.20002L10.9 10.7C11 10.7 11.1 10.8 11.2 10.8C11.4 10.8 11.6 10.7 11.7 10.5C11.9 10.2 11.7 9.90002 11.4 9.70002L4.8 6.40002C10.5 2.30002 14.7 2.60002 16.4 2.90002C18.8 3.40002 20.9 4.60001 22.5 6.50001C23.1 7.20001 23.9 8.00002 24.7 8.60002C26.4 10.1 28.2 11.3 29.6 12.3C28.3 11.9 27.1 11.6 25.8 11.1Z" fill="white"/>
<path d="M34.3999 13C37.9999 13 40.8999 10.1 40.8999 6.5C40.8999 2.9 37.9999 0 34.3999 0C30.7999 0 27.8999 2.9 27.8999 6.5C27.8999 10.1 30.7999 13 34.3999 13Z" fill="#FC8763"/>
<path d="M34.3999 1C31.3999 1 28.8999 3.5 28.8999 6.5C28.8999 9.5 31.3999 12 34.3999 12C37.3999 12 39.8999 9.5 39.8999 6.5C39.7999 3.4 37.3999 1 34.3999 1ZM34.3999 11.1C31.8999 11.1 29.7999 9 29.7999 6.5C29.7999 4 31.8999 1.90001 34.3999 1.90001C36.8999 1.90001 38.9999 4 38.9999 6.5C38.9999 9 36.8999 11.1 34.3999 11.1Z" fill="white" stroke="white" stroke-width="0.25" stroke-miterlimit="10"/>
<path d="M32.97 5.16601L33.516 6.03401L34.006 5.69101V9.10001H35.056V4.20001H34.3L32.97 5.16601Z" fill="white"/>
</svg>
