<svg xmlns="http://www.w3.org/2000/svg" xmlns:xlink="http://www.w3.org/1999/xlink" viewBox="0 0 29.72 29.64"><defs><style>.cls-1{fill:#fff;}.cls-2{fill:none;}</style><symbol id="Новый_символ_17" data-name="Новый символ 17" viewBox="0 0 29.73 29.64"><g id="Слой_1-2-2" data-name="Слой 1-2"><path class="cls-1" d="M29.39,13.64a20.09,20.09,0,0,1-5.1-3.5A56.12,56.12,0,0,0,26,1a1,1,0,0,0-.4-1,.81.81,0,0,0-.9.3c-2.8,3.3-6.6,2.9-10.5,2.5S6.19,2,3,5.44a1.57,1.57,0,0,0-1.7-.5h-.1A1.65,1.65,0,0,0,.09,7h0l6,21.6a1.5,1.5,0,0,0,1.4,1H8l.5-.1a1.27,1.27,0,0,0,.9-.7,1.38,1.38,0,0,0,.1-1.1l-2-6.6c2.7-3.5,6.6-3.1,10.6-2.7s8.2.8,11.3-2.8a1.59,1.59,0,0,0,.3-1.3C29.69,13.94,29.59,13.74,29.39,13.64Zm-21,14.7c-.1.1-.2.2-.3.2l-.5.1c-.2.1-.5-.1-.6-.3L1,6.74a.68.68,0,0,1,.4-.8h.4a.75.75,0,0,1,.7.5l.1.2,3.1,11.1L8.59,28c-.1,0-.1.1-.2.3Zm20.3-13.5c-2.7,3.2-6.5,2.8-10.4,2.4s-8-.8-11.1,2.5L4.49,10l-1-3.6c2.7-3.4,6.6-3,10.6-2.6,3.8.4,7.8.8,10.8-2.3a82.76,82.76,0,0,1-1.6,8.4.91.91,0,0,0,.3,1,30.2,30.2,0,0,0,5.2,3.6A.37.37,0,0,1,28.69,14.84Z"/></g><rect class="cls-2" x="11.32" y="9.75" width="3.54" height="3.54"/></symbol></defs><title>navigation-requests-clean</title><g id="Слой_2" data-name="Слой 2"><g id="Слой_1-2" data-name="Слой 1"><use id="navigation-requests-clean" width="29.72" height="29.64" xlink:href="#Новый_символ_17"/></g></g></svg>