<svg xmlns="http://www.w3.org/2000/svg" xmlns:xlink="http://www.w3.org/1999/xlink" viewBox="0 0 20.59 20.72"><defs><style>.cls-1{fill:#fff;stroke:#ff8862;stroke-miterlimit:10;stroke-width:0.75px;}.cls-2{fill:none;}</style><symbol id="Новый_символ_42" data-name="Новый символ 42" viewBox="0 0 30.08 30.28"><path class="cls-1" d="M20,3.79a11.38,11.38,0,0,0-16.25,0A11.38,11.38,0,0,0,3.79,20a11.35,11.35,0,0,0,14.38,1.58h0l7.42,7.54A2.38,2.38,0,0,0,29,25.79l-7.57-7.36s0,0,0,0h0A11,11,0,0,0,20,3.79Zm-2,14.27A8.55,8.55,0,0,1,6,6,8.55,8.55,0,0,1,18.06,18.06Z"/><rect class="cls-2" x="7.97" y="12.02" width="7.07" height="3.12"/></symbol></defs><title>navigation-search-show</title><g id="Слой_2" data-name="Слой 2"><g id="Слой_1-2" data-name="Слой 1"><use id="navigation-search-show" width="30.08" height="30.28" transform="translate(0.12 0.12) scale(0.68)" xlink:href="#Новый_символ_42"/></g></g></svg>