<svg xmlns="http://www.w3.org/2000/svg" viewBox="0 0 43.31 29.7"><defs><style>.cls-1{fill:#fff;}.cls-2{fill:none;}</style></defs><title>navigation-users-clear</title><g id="Слой_2" data-name="Слой 2"><g id="Слой_1-2" data-name="Слой 1"><path class="cls-1" d="M43.1,11.2a1,1,0,0,1-.5-.4,63.34,63.34,0,0,1-5.9-4.4,12.61,12.61,0,0,1-2-2A11.93,11.93,0,0,0,28,.4a13.21,13.21,0,0,0-8.7,1.4L19,1.93a4.76,4.76,0,0,0,1.09.21.56.56,0,0,1,.46.67,12.77,12.77,0,0,1,7.21-1,10.67,10.67,0,0,1,6.1,3.6,14.69,14.69,0,0,0,2.2,2.1A57.37,57.37,0,0,0,41,11.2a27.19,27.19,0,0,1-3.8-1.1l-1.5-.6A17.16,17.16,0,0,0,33,8.8c-2.1-.4-3.4-.1-4,.8a.54.54,0,0,0,.2.8.52.52,0,0,0,.8-.2c.6-.9,3.5-.3,5.3.4.4.1.7.3,1.1.4v1.2l-7.7.9a2.33,2.33,0,0,0-2,1.9l-.6,3.1a2.15,2.15,0,0,0,1,2.3L34,25.1a.85.85,0,0,0,.7,0l2-1.6v1.8a3,3,0,0,1-2.4,2.9l-1.1.2A96.24,96.24,0,0,0,15.73,16.21a12.09,12.09,0,0,1-.32,1.18A96.89,96.89,0,0,1,32.5,29.5a.76.76,0,0,0,.4.2l1.5-.2a4,4,0,0,0,3.4-4v-3a.55.55,0,0,0-.3-.5c-.2-.1-.5-.1-.6.1l-2.6,2.1-6.5-4.4a1.17,1.17,0,0,1-.5-1.1l.3-1.8,8.2-.9a.56.56,0,0,0,.5-.6V13.7l.7-.1a.56.56,0,0,0,.5-.6V11.7a12.33,12.33,0,0,0,5.2.8c.2,0,.4-.2.5-.5S43.3,11.3,43.1,11.2Zm-7.9,3.4-7.3.8v-.1a1.17,1.17,0,0,1,1-.9l6.3-.8Z"/><path class="cls-1" d="M31.6,11.2a1,1,0,0,1-.5-.4,63.34,63.34,0,0,1-5.9-4.4,12.61,12.61,0,0,1-2-2,11.93,11.93,0,0,0-6.7-4A13.21,13.21,0,0,0,7.8,1.8a29.51,29.51,0,0,0-6,4A4.41,4.41,0,0,0,.3,9L0,15a.62.62,0,0,0,.4.6A92.58,92.58,0,0,1,21.1,29.5a.76.76,0,0,0,.4.2l1.5-.2a4,4,0,0,0,3.4-4v-3a.55.55,0,0,0-.3-.5c-.2-.1-.5-.1-.6.1l-2.6,2.1-6.6-4.7a1.17,1.17,0,0,1-.5-1.1l.3-1.8,8.2-.9a.56.56,0,0,0,.5-.6V13.4l.7-.1a.56.56,0,0,0,.5-.6V11.4a12.33,12.33,0,0,0,5.2.8c.2,0,.4-.2.5-.5C31.9,11.6,31.8,11.3,31.6,11.2Zm-7.9,3.4-7.3.8v-.1a1.17,1.17,0,0,1,1-.9l6.3-.8Zm2.1-4.5-1.5-.6a17.16,17.16,0,0,0-2.7-.7c-2.1-.4-3.4-.1-4,.8a.54.54,0,0,0,.2.8.52.52,0,0,0,.8-.2c.6-.9,3.5-.3,5.3.4.4.1.7.3,1.1.4v1.2l-7.7,1a2.33,2.33,0,0,0-2,1.9l-.6,3.1a2.15,2.15,0,0,0,1,2.3l6.9,4.7a.85.85,0,0,0,.7,0l2-1.6v1.8a3,3,0,0,1-2.4,2.9l-1.1.2c-1.5-1.3-10.1-8.9-20.5-13.7l.3-5.6a1.88,1.88,0,0,1,.2-.8l9.9,5.3c.1,0,.2.1.3.1a.55.55,0,0,0,.5-.3.54.54,0,0,0-.2-.8L2.4,7.4c.1-.2.3-.3.4-.4a7,7,0,0,1,1-.8l7.1,3.5c.1,0,.2.1.3.1a.55.55,0,0,0,.5-.3c.2-.3,0-.6-.3-.8L4.8,5.4c5.7-4.1,9.9-3.8,11.6-3.5a10.67,10.67,0,0,1,6.1,3.6,14.69,14.69,0,0,0,2.2,2.1,57.37,57.37,0,0,0,4.9,3.7C28.3,10.9,27.1,10.6,25.8,10.1Z"/><line class="cls-2" x1="40.19" x2="22.49"/><path class="cls-1" d="M31.6,11.2a1,1,0,0,1-.5-.4l-.36-.25a.26.26,0,0,1-.11-.07A58.46,58.46,0,0,1,25.2,6.4a12.61,12.61,0,0,1-2-2,11.93,11.93,0,0,0-6.7-4A13.21,13.21,0,0,0,7.8,1.8a29.51,29.51,0,0,0-6,4A4.41,4.41,0,0,0,.3,9L0,15a.62.62,0,0,0,.4.6A92.58,92.58,0,0,1,21.1,29.5a.76.76,0,0,0,.4.2l1.5-.2a4,4,0,0,0,3.4-4v-3a.55.55,0,0,0-.3-.5c-.2-.1-.5-.1-.6.1l-2.6,2.1-6.6-4.7a1.17,1.17,0,0,1-.5-1.1l.3-1.8,8.2-.9a.56.56,0,0,0,.5-.6V13.4l.7-.1a.56.56,0,0,0,.5-.6V11.4a12.33,12.33,0,0,0,5.2.8c.2,0,.4-.2.5-.5C31.9,11.6,31.8,11.3,31.6,11.2Zm-7.9,3.4-7.3.8v-.1a1.17,1.17,0,0,1,1-.9l6.3-.8Zm2.1-4.5-1.5-.6a17.16,17.16,0,0,0-2.7-.7c-2.1-.4-3.4-.1-4,.8a.54.54,0,0,0,.2.8.52.52,0,0,0,.8-.2c.6-.9,3.5-.3,5.3.4.4.1.7.3,1.1.4v1.2l-7.7,1a2.33,2.33,0,0,0-2,1.9l-.6,3.1a2.15,2.15,0,0,0,1,2.3l6.9,4.7a.85.85,0,0,0,.7,0l2-1.6v1.8a3,3,0,0,1-2.4,2.9l-1.1.2c-1.5-1.3-10.1-8.9-20.5-13.7l.3-5.6a1.88,1.88,0,0,1,.2-.8l9.9,5.3c.1,0,.2.1.3.1a.55.55,0,0,0,.5-.3.54.54,0,0,0-.2-.8L2.4,7.4c.1-.2.3-.3.4-.4a7,7,0,0,1,1-.8l7.1,3.5c.1,0,.2.1.3.1a.55.55,0,0,0,.5-.3c.2-.3,0-.6-.3-.8L4.8,5.4c5.7-4.1,9.9-3.8,11.6-3.5a10.67,10.67,0,0,1,6.1,3.6,14.69,14.69,0,0,0,2.2,2.1,57.37,57.37,0,0,0,4.9,3.7C28.3,10.9,27.1,10.6,25.8,10.1Z"/><path class="cls-1" d="M29.52.84A14.12,14.12,0,0,0,28,.4a13.21,13.21,0,0,0-8.7,1.4l-.53.27a4.21,4.21,0,0,1,1.48.55.46.46,0,0,1,.21.25A12.79,12.79,0,0,1,27.8,1.8c.37.08.72.17,1.07.28a5.51,5.51,0,0,1,.54-.73A.55.55,0,0,1,29.52.84Z"/><path class="cls-1" d="M43.1,11.2a1,1,0,0,1-.5-.4c-.79-.54-1.7-1.16-2.68-1.87a7.19,7.19,0,0,1-.74,1L41,11.2c-.86-.2-1.67-.4-2.5-.66a6.23,6.23,0,0,1-2.1,1.15v.51l-7.7.9a2.33,2.33,0,0,0-2,1.9l-.6,3.1a2.15,2.15,0,0,0,1,2.3L34,25.1a.85.85,0,0,0,.7,0l2-1.6v1.8a3,3,0,0,1-2.4,2.9l-1.1.2A96,96,0,0,0,15.79,16.24a3.37,3.37,0,0,1-.54,1.07A97.22,97.22,0,0,1,32.5,29.5a.76.76,0,0,0,.4.2l1.5-.2a4,4,0,0,0,3.4-4v-3a.55.55,0,0,0-.3-.5c-.2-.1-.5-.1-.6.1l-2.6,2.1-6.5-4.4a1.17,1.17,0,0,1-.5-1.1l.3-1.8,8.2-.9a.56.56,0,0,0,.5-.6V13.7l.7-.1a.56.56,0,0,0,.5-.6V11.7a12.33,12.33,0,0,0,5.2.8c.2,0,.4-.2.5-.5S43.3,11.3,43.1,11.2Zm-7.9,3.4-7.3.8v-.1a1.17,1.17,0,0,1,1-.9l6.3-.8Z"/><path class="cls-2" d="M39,3.07a.4.4,0,0,1,.16-.22A5.42,5.42,0,0,0,34.4,0a5.34,5.34,0,0,0-2.35.55,5.19,5.19,0,0,1,1,.59A4.38,4.38,0,0,1,34.4.9a4.6,4.6,0,0,1,4.07,2.56A.47.47,0,0,1,39,3.07Z"/></g></g></svg>