<svg xmlns="http://www.w3.org/2000/svg" viewBox="0 0 29.79 29.7"><defs><style>.cls-1{fill:#fff;}</style></defs><title>navigation-requests-fill</title><g id="Слой_2" data-name="Слой 2"><g id="Слой_1-2" data-name="Слой 1"><path class="cls-1" d="M29.45,13.66a20.47,20.47,0,0,1-5.15-3.53A56.13,56.13,0,0,0,26,1.05a.94.94,0,0,0-.41-1,.76.76,0,0,0-.9.3c-2.83,3.33-6.56,2.93-10.5,2.52S6.14,2.06,3,5.49A1.53,1.53,0,0,0,1.3,5H1.2A1.66,1.66,0,0,0,.09,7.1L6.14,28.69a1.42,1.42,0,0,0,1.41,1H8l.5-.1a1.26,1.26,0,0,0,.91-.71,1.4,1.4,0,0,0,.1-1.11L7.55,21.12c2.73-3.53,6.56-3.12,10.6-2.72s8.17.81,11.3-2.82a1.56,1.56,0,0,0,.3-1.32A.6.6,0,0,0,29.45,13.66Zm-21,14.73c-.1.1-.2.2-.3.2l-.51.1c-.2.1-.5-.1-.6-.3L1,6.8A.62.62,0,0,1,1.5,6h.3a.76.76,0,0,1,.71.5l.1.21L5.74,17.79l2.92,10.3C8.56,28.09,8.56,28.19,8.46,28.39Z"/></g></g></svg>