<svg xmlns="http://www.w3.org/2000/svg" viewBox="0 0 19 18.92"><defs><style>.cls-1{fill:#fff;}</style></defs><title>navigation-filter-fill</title><g id="Слой_2" data-name="Слой 2"><g id="Слой_1-2" data-name="Слой 1"><path class="cls-1" d="M18.3,0H.7A.68.68,0,0,0,0,.7,7.34,7.34,0,0,0,2.4,6.1L5.7,9a2.52,2.52,0,0,1,.9,2v7.2a.78.78,0,0,0,1.2.6l4.4-2.9a.71.71,0,0,0,.3-.6V11a2.52,2.52,0,0,1,.9-2l3.2-2.9A7.18,7.18,0,0,0,19,.7.68.68,0,0,0,18.3,0ZM9.5,15.9l-1.4,1V11A4.1,4.1,0,0,0,6.7,7.9L3.4,5A6,6,0,0,1,1.5,1.4h8"/></g></g></svg>