<svg width="44" height="31" viewBox="0 0 44 31" fill="none" xmlns="http://www.w3.org/2000/svg">
<path d="M43.1 12.2C42.9 12.1 42.7 12 42.6 11.8C41 10.7 38.9 9.29999 36.7 7.39999C35.9 6.79999 35.3 6.09999 34.7 5.39999C32.9 3.29999 30.7 1.99999 28 1.39999C25.3 0.799988 22.4 1.29999 19.3 2.79999C16.8 3.99999 14.6 5.69999 13.3 6.79999C12.4 7.59999 11.8 8.79999 11.8 9.99999L11.5 16C11.5 16.2 11.6 16.5 11.9 16.6C23.3 21.8 32.6 30.4 32.7 30.5C32.8 30.6 33 30.7 33.1 30.7L34.6 30.5C36.6 30.2 38 28.5 38 26.5V23.5C38 23.3 37.9 23.1 37.7 23C37.5 22.9 37.2 22.9 37.1 23.1L34.5 25.2L28 20.8C27.6 20.6 27.5 20.1 27.5 19.7L27.8 17.9L36 17C36.3 17 36.5 16.7 36.5 16.4V14.7L37.2 14.6C37.5 14.6 37.7 14.3 37.7 14V12.7C39.9 13.4 41.7 13.7 42.9 13.5C43.1 13.5 43.3 13.3 43.4 13C43.4 12.6 43.3 12.4 43.1 12.2ZM35.2 15.6L27.9 16.4V16.3C28 15.8 28.4 15.5 28.9 15.4L35.2 14.6V15.6Z" fill="white"/>
<path d="M31.6 12.2C31.4 12.1 31.2 12 31.1 11.8C29.5 10.7 27.4 9.3 25.2 7.4C24.4 6.8 23.8 6.1 23.2 5.4C21.4 3.3 19.2 2 16.5 1.4C13.8 0.800003 10.9 1.3 7.8 2.8C5.3 4 3.1 5.7 1.8 6.8C0.899999 7.6 0.299999 8.8 0.299999 10L0 16C0 16.2 0.0999977 16.5 0.399998 16.6C11.8 21.8 21.1 30.4 21.2 30.5C21.3 30.6 21.5 30.7 21.6 30.7L23.1 30.5C25.1 30.2 26.5 28.5 26.5 26.5V23.5C26.5 23.3 26.4 23.1 26.2 23C26 22.9 25.7 22.9 25.6 23.1L23 25.2L16.3 20.6C15.9 20.4 15.8 19.9 15.8 19.5L16.1 17.7L24.3 16.8C24.6 16.8 24.8 16.5 24.8 16.2V14.5L25.5 14.4C25.8 14.4 26 14.1 26 13.8V12.5C28.2 13.2 30 13.5 31.2 13.3C31.4 13.3 31.6 13.1 31.7 12.8C31.9 12.6 31.8 12.4 31.6 12.2Z" fill="#FC8763"/>
<path d="M43.1 12.2C42.9 12.1 42.7 12 42.6 11.8C41 10.7 38.9 9.3 36.7 7.4C35.9 6.8 35.3 6.1 34.7 5.4C32.9 3.3 30.7 2 28 1.4C25.3 0.800003 22.4 1.3 19.3 2.8C16.8 4 14.6 5.7 13.3 6.8C12.4 7.6 11.8 8.8 11.8 10L11.5 16C11.5 16.2 11.6 16.5 11.9 16.6C23.3 21.8 32.6 30.4 32.7 30.5C32.8 30.6 33 30.7 33.1 30.7L34.6 30.5C36.6 30.2 38 28.5 38 26.5V23.5C38 23.3 37.9 23.1 37.7 23C37.5 22.9 37.2 22.9 37.1 23.1L34.5 25.2L28 20.8C27.6 20.6 27.5 20.1 27.5 19.7L27.8 17.9L36 17C36.3 17 36.5 16.7 36.5 16.4V14.7L37.2 14.6C37.5 14.6 37.7 14.3 37.7 14V12.7C39.9 13.4 41.7 13.7 42.9 13.5C43.1 13.5 43.3 13.3 43.4 13C43.4 12.6 43.3 12.4 43.1 12.2ZM35.2 15.6L27.9 16.4V16.3C28 15.8 28.4 15.5 28.9 15.4L35.2 14.6V15.6ZM37.2 11.1C36.7 10.9 36.2 10.7 35.7 10.5C35.6 10.5 34.4 10 33 9.8C30.9 9.4 29.6 9.7 29 10.6C28.8 10.9 28.9 11.2 29.2 11.4C29.5 11.6 29.9 11.5 30 11.2C30.6 10.3 33.5 10.9 35.3 11.6C35.7 11.7 36 11.9 36.4 12V13.3L28.7 14.2C27.7 14.3 26.9 15.1 26.7 16.1L26.1 19.2C25.9 20.1 26.3 21 27.1 21.5L34 26.2C34.2 26.3 34.5 26.3 34.7 26.2L36.7 24.6V26.4C36.7 27.8 35.7 29 34.3 29.3L33.2 29.5C31.7 28.2 23.1 20.6 12.7 15.8L13 10.2C13 9.9 13.1 9.6 13.2 9.4L23.1 14.7C23.2 14.7 23.3 14.8 23.4 14.8C23.6 14.8 23.8 14.7 23.9 14.5C24.1 14.2 24 13.9 23.7 13.7L13.8 8.4C13.9 8.2 14.1 8.1 14.2 8C14.5 7.7 14.9 7.4 15.2 7.2L22.3 10.7C22.4 10.7 22.5 10.8 22.6 10.8C22.8 10.8 23 10.7 23.1 10.5C23.3 10.2 23.1 9.9 22.8 9.7L16.2 6.4C21.9 2.3 26.1 2.6 27.8 2.9C30.2 3.4 32.3 4.6 33.9 6.5C34.5 7.2 35.3 8 36.1 8.6C37.8 10.1 39.6 11.3 41 12.3C39.7 11.9 38.5 11.6 37.2 11.1Z" fill="white"/>
<path d="M31.6 12.2C31.4 12.1 31.2 12 31.1 11.8C29.5 10.7 27.4 9.3 25.2 7.4C24.4 6.8 23.8 6.1 23.2 5.4C21.4 3.3 19.2 2 16.5 1.4C13.8 0.800003 10.9 1.3 7.8 2.8C5.3 4 3.1 5.7 1.8 6.8C0.899999 7.6 0.299999 8.8 0.299999 10L0 16C0 16.2 0.0999977 16.5 0.399998 16.6C11.8 21.8 21.1 30.4 21.2 30.5C21.3 30.6 21.5 30.7 21.6 30.7L23.1 30.5C25.1 30.2 26.5 28.5 26.5 26.5V23.5C26.5 23.3 26.4 23.1 26.2 23C26 22.9 25.7 22.9 25.6 23.1L23 25.2L16.3 20.6C15.9 20.4 15.8 19.9 15.8 19.5L16.1 17.7L24.3 16.8C24.6 16.8 24.8 16.5 24.8 16.2V14.5L25.5 14.4C25.8 14.4 26 14.1 26 13.8V12.5C28.2 13.2 30 13.5 31.2 13.3C31.4 13.3 31.6 13.1 31.7 12.8C31.9 12.6 31.8 12.4 31.6 12.2Z" fill="#FC8763"/>
<path d="M31.6 12.2C31.4 12.1 31.2 12 31.1 11.8C29.5 10.7 27.4 9.3 25.2 7.4C24.4 6.8 23.8 6.1 23.2 5.4C21.4 3.3 19.2 2 16.5 1.4C13.8 0.800003 10.9 1.3 7.8 2.8C5.3 4 3.1 5.7 1.8 6.8C0.899999 7.6 0.299999 8.8 0.299999 10L0 16C0 16.2 0.0999977 16.5 0.399998 16.6C11.8 21.8 21.1 30.4 21.2 30.5C21.3 30.6 21.5 30.7 21.6 30.7L23.1 30.5C25.1 30.2 26.5 28.5 26.5 26.5V23.5C26.5 23.3 26.4 23.1 26.2 23C26 22.9 25.7 22.9 25.6 23.1L23 25.2L16.3 20.6C15.9 20.4 15.8 19.9 15.8 19.5L16.1 17.7L24.3 16.8C24.6 16.8 24.8 16.5 24.8 16.2V14.5L25.5 14.4C25.8 14.4 26 14.1 26 13.8V12.5C28.2 13.2 30 13.5 31.2 13.3C31.4 13.3 31.6 13.1 31.7 12.8C31.9 12.6 31.8 12.4 31.6 12.2ZM23.7 15.6L16.4 16.4V16.3C16.5 15.8 16.9 15.5 17.4 15.4L23.7 14.6V15.6ZM25.8 11.1C25.3 10.9 24.8 10.7 24.3 10.5C24.2 10.5 23 10 21.6 9.8C19.5 9.4 18.2 9.7 17.6 10.6C17.4 10.9 17.5 11.2 17.8 11.4C18.1 11.6 18.5 11.5 18.6 11.2C19.2 10.3 22.1 10.9 23.9 11.6C24.3 11.7 24.6 11.9 25 12V13.3L17.3 14.2C16.3 14.3 15.5 15.1 15.3 16.1L14.7 19.2C14.5 20.1 14.9 21 15.7 21.5L22.6 26.2C22.8 26.3 23.1 26.3 23.3 26.2L25.3 24.6V26.4C25.3 27.8 24.3 29 22.9 29.3L21.8 29.5C20.3 28.2 11.7 20.6 1.3 15.8L1.6 10.2C1.6 9.9 1.7 9.6 1.8 9.4L11.7 14.7C11.8 14.7 11.9 14.8 12 14.8C12.2 14.8 12.4 14.7 12.5 14.5C12.7 14.2 12.6 13.9 12.3 13.7L2.4 8.4C2.5 8.2 2.7 8.1 2.8 8C3.1 7.7 3.5 7.4 3.8 7.2L10.9 10.7C11 10.7 11.1 10.8 11.2 10.8C11.4 10.8 11.6 10.7 11.7 10.5C11.9 10.2 11.7 9.9 11.4 9.7L4.8 6.4C10.3 2 14.6 2.3 16.2 2.7C18.6 3.2 20.7 4.4 22.3 6.3C22.9 7 23.7 7.8 24.5 8.4C26.2 9.9 28 11.1 29.4 12.1C28.3 11.9 27.1 11.6 25.8 11.1Z" fill="white"/>
<path d="M34.4 13C37.9899 13 40.9 10.0899 40.9 6.5C40.9 2.91015 37.9899 0 34.4 0C30.8102 0 27.9 2.91015 27.9 6.5C27.9 10.0899 30.8102 13 34.4 13Z" fill="white"/>
<path d="M34.4 1C31.4 1 28.9 3.5 28.9 6.5C28.9 9.5 31.4 12 34.4 12C37.4 12 39.9 9.5 39.9 6.5C39.9 3.5 37.4 1 34.4 1ZM34.4 11.1C31.9 11.1 29.8 9 29.8 6.5C29.8 4 31.9 1.9 34.4 1.9C36.9 1.9 39 4 39 6.5C39 9 36.9 11.1 34.4 11.1Z" fill="#FC8763" stroke="#FC8763" stroke-width="0.25" stroke-miterlimit="10"/>
<path d="M36.6 6.1H34.8V4.2C34.8 3.9 34.6 3.7 34.3 3.7C34 3.7 33.8 3.9 33.8 4.2V6H32C31.7 6 31.5 6.2 31.5 6.5C31.5 6.8 31.7 7 32 7H33.8V8.8C33.8 9.1 34 9.3 34.3 9.3C34.6 9.3 34.8 9.1 34.8 8.8V7H36.6C36.9 7 37.1 6.8 37.1 6.5C37.1 6.2 36.9 6.1 36.6 6.1Z" fill="#FC8763" stroke="#FC8763" stroke-width="0.35" stroke-miterlimit="10"/>
</svg>
