<svg width="19" height="19" viewBox="0 0 19 19" fill="none" xmlns="http://www.w3.org/2000/svg">
<path d="M18.2536 0H0.746389C0.334778 0 0 0.334965 0 0.741315C0 2.80602 0.883593 4.78286 2.43125 6.15566L5.68024 9.04405C6.24552 9.54375 6.56932 10.2631 6.56932 11.0209V18.2583C6.56932 18.8514 7.2279 19.2028 7.72184 18.8733L12.1014 15.952C12.3099 15.8147 12.4307 15.5841 12.4307 15.337V11.0154C12.4307 10.2631 12.7545 9.53826 13.3198 9.03856L16.5687 6.15017C18.1109 4.77737 19 2.80053 19 0.735824C18.9945 0.334965 18.6597 0 18.2536 0ZM15.5754 5.04644L12.3264 7.93482C11.4483 8.72007 10.9434 9.84028 10.9434 11.0209V14.9416L8.05113 16.869V11.0209C8.05113 9.84028 7.54622 8.72007 6.66811 7.93482L3.41363 5.04644C2.37637 4.11842 1.7123 2.84995 1.5312 1.48263H17.4578C17.2822 2.84995 16.6181 4.11842 15.5754 5.04644Z" fill="white"/>
</svg>
