<svg xmlns="http://www.w3.org/2000/svg" xmlns:xlink="http://www.w3.org/1999/xlink" viewBox="0 0 29.72 29.64"><defs><style>.cls-1{fill:#fff;}</style><symbol id="Новый_символ_16" data-name="Новый символ 16" viewBox="0 0 29.73 29.64"><g id="Слой_1-2-2" data-name="Слой 1-2"><path class="cls-1" d="M29.39,13.64a20.09,20.09,0,0,1-5.1-3.5A56.12,56.12,0,0,0,26,1a1,1,0,0,0-.4-1,.81.81,0,0,0-.9.3c-2.8,3.3-6.6,2.9-10.5,2.5S6.19,2,3,5.44a1.57,1.57,0,0,0-1.7-.5h-.1A1.65,1.65,0,0,0,.09,7h0l6.1,21.6a1.5,1.5,0,0,0,1.4,1H8l.5-.1a1.27,1.27,0,0,0,.9-.7,1.38,1.38,0,0,0,.1-1.1l-2-6.6c2.7-3.5,6.6-3.1,10.6-2.7s8.2.8,11.3-2.8a1.59,1.59,0,0,0,.3-1.3A.52.52,0,0,0,29.39,13.64Zm-21,14.7c-.1.1-.2.2-.3.2l-.5.1c-.2.1-.5-.1-.6-.3L1,6.74a.68.68,0,0,1,.4-.8h.4a.75.75,0,0,1,.7.5l.1.2,3.1,11.1L8.59,28c-.1,0-.1.1-.2.3Z"/></g><rect class="cls-1" x="11.5" y="10.64" width="5.25" height="2.88"/></symbol></defs><title>navigation-requests-fill</title><g id="Слой_2" data-name="Слой 2"><g id="Слой_1-2" data-name="Слой 1"><use id="navigation-requests-fill" width="29.72" height="29.64" xlink:href="#Новый_символ_16"/></g></g></svg>