<svg xmlns="http://www.w3.org/2000/svg" viewBox="0 0 29.79 29.7"><defs><style>.cls-1{fill:#fff;}</style></defs><title>navigation-requests-fill-notify</title><g id="Слой_2" data-name="Слой 2"><g id="Слой_1-2" data-name="Слой 1"><path class="cls-1" d="M29.75,14.26a.6.6,0,0,0-.3-.6,20.47,20.47,0,0,1-5.15-3.53A56.13,56.13,0,0,0,26,1.05a.94.94,0,0,0-.41-1,.76.76,0,0,0-.9.3c-2.83,3.33-6.56,2.93-10.5,2.52S6.14,2.06,3,5.49A1.53,1.53,0,0,0,1.3,5H1.2A1.66,1.66,0,0,0,.09,7.1L6.14,28.69a1.42,1.42,0,0,0,1.41,1H8l.5-.1a1.26,1.26,0,0,0,.91-.71,1.4,1.4,0,0,0,.1-1.11L7.55,21.12a7.16,7.16,0,0,1,4.55-2.78c0-.1,0-.2,0-.3a6.6,6.6,0,0,1,13.2,0c0,.07,0,.14,0,.21a8.35,8.35,0,0,0,4.18-2.67A1.56,1.56,0,0,0,29.75,14.26ZM8.66,28.09c-.1,0-.1.1-.2.3s-.2.2-.3.2l-.51.1c-.2.1-.5-.1-.6-.3L1,6.8A.62.62,0,0,1,1.5,6h.3a.76.76,0,0,1,.71.5l.1.21L5.74,17.79Z"/><path class="cls-1" d="M13.78,15a5.76,5.76,0,1,0,7.9-2A5.82,5.82,0,0,0,13.78,15Zm9.7,2.9a4.8,4.8,0,1,1-4.8-4.8A4.94,4.94,0,0,1,23.48,17.94Z"/><path class="cls-1" d="M17.31,16.77l.55.86.49-.34V20.7h1V15.8h-.76Z"/></g></g></svg>