<svg width="30" height="30" viewBox="0 0 30 30" fill="none" xmlns="http://www.w3.org/2000/svg">
<path d="M29.1872 13.5375C27.2872 12.6375 25.5872 11.4375 24.0872 10.0375C24.8872 7.1375 25.4872 4.0375 25.7872 1.0375C25.8872 0.3375 25.4872 0.1375 25.3872 0.0375C24.9872 -0.0625 24.6872 0.0375 24.4872 0.3375C21.6872 3.6375 17.9872 3.2375 14.0872 2.8375C10.0872 2.4375 6.08722 2.0375 2.98722 5.4375C2.58722 4.9375 1.98722 4.7375 1.28722 4.9375H1.18722C0.287217 5.2375 -0.212783 6.1375 0.0872167 7.0375L6.08722 28.4375C6.28722 29.0375 6.78722 29.4375 7.48722 29.4375C7.58722 29.4375 7.78722 29.4375 7.88722 29.4375L8.38722 29.3375C8.78722 29.2375 9.08722 29.0375 9.28722 28.6375C9.48722 28.3375 9.48722 27.9375 9.38722 27.5375L7.48722 20.9375C10.1872 17.4375 13.9872 17.8375 17.9872 18.2375C21.9872 18.6375 26.0872 19.0375 29.1872 15.4375C29.4872 15.0375 29.5872 14.6375 29.4872 14.1375C29.4872 13.8375 29.3872 13.6375 29.1872 13.5375ZM8.38722 28.1375C8.28722 28.2375 8.18722 28.3375 8.08722 28.3375L7.58722 28.4375C7.38722 28.5375 7.08722 28.3375 6.98722 28.1375L0.987217 6.7375C0.887217 6.3375 1.08722 6.0375 1.48722 5.9375H1.58722C1.68722 5.9375 1.68722 5.9375 1.78722 5.9375C2.08722 5.9375 2.38722 6.1375 2.48722 6.4375L2.58722 6.6375L5.68722 17.6375L8.58722 27.8375C8.48722 27.8375 8.48722 27.9375 8.38722 28.1375ZM28.4872 14.7375C25.7872 17.9375 22.0872 17.5375 18.1872 17.1375C14.2872 16.7375 10.2872 16.3375 7.18722 19.6375L4.48722 10.0375L3.48722 6.4375C6.18722 3.0375 9.98722 3.4375 13.9872 3.8375C17.7872 4.2375 21.6872 4.6375 24.6872 1.5375C24.2872 4.3375 23.7872 7.1375 23.0872 9.8375C22.9872 10.1375 23.0872 10.5375 23.3872 10.8375C24.9872 12.2375 26.6872 13.4375 28.5872 14.4375C28.5872 14.4375 28.5872 14.6375 28.4872 14.7375Z" fill="white"/>
<path d="M18.7873 23.8375C22.3873 23.8375 25.3873 20.9375 25.3873 17.2375C25.3873 13.6375 22.4873 10.6375 18.7873 10.6375C15.1873 10.6375 12.1873 13.5375 12.1873 17.2375C12.2873 20.9375 15.1873 23.8375 18.7873 23.8375Z" fill="#FC8763"/>
<path d="M22.8872 13.1375C20.5872 10.8375 16.8872 10.8375 14.6872 13.1375C12.3872 15.4375 12.3872 19.1375 14.6872 21.3375C16.6872 23.3375 19.8872 23.5375 22.0872 22.0375C22.0872 22.2375 22.2872 22.4375 22.3872 22.6375L25.6872 25.9375C26.1872 26.4375 26.9872 26.4375 27.3872 25.9375C27.8872 25.4375 27.8872 24.6375 27.3872 24.2375L24.0872 20.9375C23.8872 20.7375 23.6872 20.6375 23.4872 20.6375C25.1872 18.3375 24.9872 15.1375 22.8872 13.1375ZM21.8872 20.3375C20.1872 22.0375 17.3872 22.0375 15.7872 20.3375C14.0872 18.6375 14.0872 15.8375 15.7872 14.2375C17.4872 12.5375 20.2872 12.5375 21.8872 14.2375C23.5872 15.8375 23.5872 18.6375 21.8872 20.3375Z" fill="white"/>
</svg>
