<svg xmlns="http://www.w3.org/2000/svg" xmlns:xlink="http://www.w3.org/1999/xlink" viewBox="0 0 29.72 29.64"><defs><style>.cls-1{fill:#fff;}.cls-2{fill:none;}</style><symbol id="Новый_символ_12" data-name="Новый символ 12" viewBox="0 0 29.72 29.64"><g id="Слой_1-2-2" data-name="Слой 1-2"><path class="cls-1" d="M29.69,14.24a.71.71,0,0,0-.3-.6,20.09,20.09,0,0,1-5.1-3.5A56.12,56.12,0,0,0,26,1a1,1,0,0,0-.4-1,.81.81,0,0,0-.9.3c-2.8,3.3-6.6,2.9-10.5,2.5S6.19,2,3,5.44a1.57,1.57,0,0,0-1.7-.5h-.1A1.65,1.65,0,0,0,.09,7h0l6,21.6a1.5,1.5,0,0,0,1.4,1h.4l.5-.1a1.27,1.27,0,0,0,.9-.7,1.38,1.38,0,0,0,.1-1.1l-2-6.6a7,7,0,0,1,4.5-2.8V18a6.6,6.6,0,0,1,13.2,0v.2a8.28,8.28,0,0,0,4.2-2.7A1.37,1.37,0,0,0,29.69,14.24ZM8.59,28c-.1,0-.1.1-.2.3s-.2.2-.3.2l-.5.1c-.2.1-.5-.1-.6-.3L.89,6.74a.68.68,0,0,1,.4-.8h.4a.75.75,0,0,1,.7.5l.1.2,3.1,11.1Z"/><path class="cls-1" d="M13.69,14.94a5.76,5.76,0,1,0,7.9-2A5.82,5.82,0,0,0,13.69,14.94Zm9.7,2.9a4.8,4.8,0,1,1-4.8-4.8h0a4.87,4.87,0,0,1,4.8,4.8Z"/><path class="cls-1" d="M17.29,16.74l.6.9.5-.3v3.4h1v-4.9h-.8Z"/></g></symbol><symbol id="Новый_символ_18" data-name="Новый символ 18" viewBox="0 0 29.72 29.64"><use width="29.72" height="29.64" xlink:href="#Новый_символ_12"/><rect class="cls-2" x="6.97" y="8.16" width="5.93" height="2.48"/></symbol><symbol id="Новый_символ_33" data-name="Новый символ 33" viewBox="0 0 29.72 29.64"><use id="navigation-requests-fill-notify" width="29.72" height="29.64" xlink:href="#Новый_символ_18"/><rect class="cls-2" x="9.97" y="12.74" width="4.16" height="4.16"/></symbol></defs><title>requests-navigation-active-fill-notify</title><g id="Слой_2" data-name="Слой 2"><g id="Слой_1-2" data-name="Слой 1"><use id="requests-navigation-active-fill-notify" width="29.72" height="29.64" xlink:href="#Новый_символ_33"/></g></g></svg>