<svg xmlns="http://www.w3.org/2000/svg" xmlns:xlink="http://www.w3.org/1999/xlink" viewBox="0 0 29.52 29.44"><defs><style>.cls-1{fill:#fff;}.cls-2{fill:none;}</style><symbol id="Новый_символ_36" data-name="Новый символ 36" viewBox="0 0 29.52 29.44"><path class="cls-1" d="M29.49,14.14a.6.6,0,0,0-.3-.6,20.09,20.09,0,0,1-5.1-3.5,54.94,54.94,0,0,0,1.7-9,.93.93,0,0,0-.4-1,.76.76,0,0,0-.9.3c-2.8,3.3-6.5,2.9-10.4,2.5S6.09,2,3,5.44a1.52,1.52,0,0,0-1.7-.5h-.1A1.65,1.65,0,0,0,.09,7l6,21.4a1.41,1.41,0,0,0,1.4,1h.4l.5-.1a1.27,1.27,0,0,0,.9-.7,1.38,1.38,0,0,0,.1-1.1l-1.9-6.6a7.16,7.16,0,0,1,4.78-2.82,8.46,8.46,0,0,1-.08-.88,6.6,6.6,0,0,1,13.2,0,6.49,6.49,0,0,1-.05.77,8.27,8.27,0,0,0,3.85-2.57A1.52,1.52,0,0,0,29.49,14.14ZM8.59,27.84c-.1,0-.1.1-.2.3s-.2.2-.3.2l-.5.1c-.2.1-.5-.1-.6-.3L1,6.74a.62.62,0,0,1,.5-.8h.3a.75.75,0,0,1,.7.5l.1.2,3.1,11Z"/><path class="cls-1" d="M22.89,13.14a5.8,5.8,0,0,0-8.2,8.2,5.91,5.91,0,0,0,7.4.7c0,.2.2.4.3.6l3.3,3.3a1.2,1.2,0,0,0,1.7-1.7l-3.3-3.3a.86.86,0,0,0-.6-.3A5.67,5.67,0,0,0,22.89,13.14Zm-1,7.2a4.31,4.31,0,1,1,0-6.1A4.29,4.29,0,0,1,21.89,20.34Z"/><rect class="cls-2" x="4.77" y="12.81" width="3.81" height="3.81"/></symbol></defs><title>requests-navigation-search-fill</title><g id="Слой_2" data-name="Слой 2"><g id="Слой_1-2" data-name="Слой 1"><use id="requests-navigation-search-fill" width="29.52" height="29.44" xlink:href="#Новый_символ_36"/></g></g></svg>