<svg xmlns="http://www.w3.org/2000/svg" xmlns:xlink="http://www.w3.org/1999/xlink" viewBox="0 0 29.48 29.24"><defs><style>.cls-1{fill:#fff;}</style><symbol id="Новый_символ_39" data-name="Новый символ 39" viewBox="0 0 29.48 29.24"><path class="cls-1" d="M29.24,13.54a20.09,20.09,0,0,1-5.1-3.5,54.94,54.94,0,0,0,1.7-9,.93.93,0,0,0-.4-1,.76.76,0,0,0-.9.3c-2.7,3.2-6.4,2.8-10.3,2.4s-8-.8-11.1,2.6a1.93,1.93,0,0,0-1.8-.6h-.1A1.74,1.74,0,0,0,0,6.84l6,21.4a1.41,1.41,0,0,0,1.4,1h.4l.5-.1a1.27,1.27,0,0,0,.9-.7,1.38,1.38,0,0,0,.1-1.1l-1.9-6.6a7.19,7.19,0,0,1,5-2.85,6.83,6.83,0,0,1-.09-.92,6.6,6.6,0,0,1,13.2,0,6,6,0,0,1-.05.75,8.15,8.15,0,0,0,3.6-2.48,1.52,1.52,0,0,0,.3-1.3C29.54,13.84,29.44,13.64,29.24,13.54ZM8.44,27.84a.19.19,0,0,1,0,.3c-.1.1-.2.2-.3.2l-.5.1c-.2.1-.5-.1-.6-.3L1,6.74a.62.62,0,0,1,.5-.8h.3a.75.75,0,0,1,.7.5l.1.2,3.1,11Z"/><path class="cls-1" d="M14.09,14A5.76,5.76,0,1,0,22,12,5.82,5.82,0,0,0,14.09,14Zm9.7,2.9a4.8,4.8,0,1,1-4.8-4.8A4.94,4.94,0,0,1,23.79,16.88Z"/><path class="cls-1" d="M19.42,14.69v.92a.07.07,0,0,1-.07.07H16.12a.07.07,0,0,0-.07.07v2.58a.07.07,0,0,0,.07.06h3.23a.07.07,0,0,1,.07.07v.95a.07.07,0,0,0,.12.05L21.9,17.1a.07.07,0,0,0,0-.1l-2.36-2.36A.07.07,0,0,0,19.42,14.69Z"/></symbol></defs><title>requests-navigation-active-fill</title><g id="Слой_2" data-name="Слой 2"><g id="Слой_1-2" data-name="Слой 1"><use id="requests-navigation-active-fill" width="29.48" height="29.24" xlink:href="#Новый_символ_39"/></g></g></svg>