<svg xmlns="http://www.w3.org/2000/svg" xmlns:xlink="http://www.w3.org/1999/xlink" viewBox="0 0 29.48 29.24"><defs><style>.cls-1{fill:#fff;}.cls-2{fill:none;}</style><symbol id="Новый_символ_34" data-name="Новый символ 34" viewBox="0 0 29.48 29.24"><path class="cls-1" d="M29.24,13.54a20.09,20.09,0,0,1-5.1-3.5,54.94,54.94,0,0,0,1.7-9,.93.93,0,0,0-.4-1,.76.76,0,0,0-.9.3c-2.7,3.2-6.4,2.8-10.3,2.4s-8-.8-11.1,2.6a1.93,1.93,0,0,0-1.8-.6h-.1A1.74,1.74,0,0,0,0,6.84l6,21.4a1.41,1.41,0,0,0,1.4,1h.4l.5-.1a1.27,1.27,0,0,0,.9-.7,1.38,1.38,0,0,0,.1-1.1l-1.9-6.6a7.2,7.2,0,0,1,4.77-2.82c0-.25-.06-.52-.07-.78,0,0,0-.06,0-.09a8.35,8.35,0,0,0-4.91,2.59L4.54,10l-1-3.6C6.24,3,10,3.44,14,3.84c3.8.4,7.7.8,10.7-2.3a76,76,0,0,1-1.6,8.3,1,1,0,0,0,.3,1,26.78,26.78,0,0,0,5.2,3.6.49.49,0,0,1-.1.3,7,7,0,0,1-3.21,2.2,1.27,1.27,0,0,1,0,.2c0,.22,0,.45,0,.66a8.14,8.14,0,0,0,3.83-2.56,1.52,1.52,0,0,0,.3-1.3C29.54,13.84,29.44,13.64,29.24,13.54Zm-23.5,4.1,2.7,10.2a.19.19,0,0,1,0,.3c-.1.1-.2.2-.3.2l-.5.1c-.2.1-.5-.1-.6-.3L1,6.74a.62.62,0,0,1,.5-.8h.3a.75.75,0,0,1,.7.5l.1.2Z"/><path class="cls-1" d="M13.84,14.24a5.76,5.76,0,1,0,7.9-2A5.82,5.82,0,0,0,13.84,14.24Zm9.5,2.9h-.5c-.1,0-.1,0-.1.1v.2h.6a4.49,4.49,0,0,1-.5,1.9l-.5-.3c-.1-.1-.3,0-.4.1s0,.3.1.4l.5.3a4.36,4.36,0,0,1-1.4,1.3l-.2-.4-.1-.1h-.1l-.1.1v.2l.2.4a4.14,4.14,0,0,1-1.9.5v-.6a.3.3,0,1,0-.6,0v.6a6.07,6.07,0,0,1-1.8-.5l.3-.4v-.1a.1.1,0,0,0-.1-.1c-.1,0-.2,0-.2.1l-.3.4a4.67,4.67,0,0,1-1.4-1.4l.5-.3.1-.1a.19.19,0,0,0,0-.3c.1-.3-.1-.3-.3-.3l-.5.3a3.92,3.92,0,0,1-.4-1.8h.6l.1-.1v-.1h-.6a4.49,4.49,0,0,1,.5-1.9l.5.3c.1.1.3,0,.4-.1s0-.3-.1-.4l-.5-.3a4.36,4.36,0,0,1,1.4-1.3l.2.4c0,.1.1.1.2.1l.1-.1v-.2l-.2-.4a4.14,4.14,0,0,1,1.9-.5v.6a.27.27,0,0,0,.3.3c.1,0,.2-.1.3-.1v-.8a6.07,6.07,0,0,1,1.8.5l-.3.4v.1a.1.1,0,0,0,.1.1h.2l.1-.1.3-.4a4.67,4.67,0,0,1,1.4,1.4l-.5.3c-.1.1-.2.3-.1.4s.3.2.4.1l.5-.3A12.1,12.1,0,0,0,23.34,17.14Z"/><path class="cls-1" d="M18.54,14.44l-.1,2.2c-.1.1-.2.1-.2.2a.37.37,0,0,0-.1.3l-1.9,1.1c-.2.1-.2.3-.1.5s.3.2.5.1l2-1.1a.67.67,0,0,0,.8-.3.61.61,0,0,0-.1-.8l.1-2.3a.43.43,0,0,0-.4-.4C18.64,14,18.54,14.24,18.54,14.44Z"/><rect class="cls-2" x="8.52" y="12.36" width="4.51" height="4.51"/></symbol></defs><title>requests-navigation-history-clean</title><g id="Слой_2" data-name="Слой 2"><g id="Слой_1-2" data-name="Слой 1"><use id="requests-navigation-history-clean" width="29.48" height="29.24" xlink:href="#Новый_символ_34"/></g></g></svg>