<svg xmlns="http://www.w3.org/2000/svg" xmlns:xlink="http://www.w3.org/1999/xlink" viewBox="0 0 29.73 29.64"><defs><style>.cls-1{fill:#fff;}.cls-2{fill:none;}</style><symbol id="Новый_символ_13" data-name="Новый символ 13" viewBox="0 0 29.73 29.64"><g id="Слой_1-2-2" data-name="Слой 1-2"><path class="cls-1" d="M29.69,14.24a.71.71,0,0,0-.3-.6,20.09,20.09,0,0,1-5.1-3.5A56.12,56.12,0,0,0,26,1a1,1,0,0,0-.4-1,.81.81,0,0,0-.9.3c-2.8,3.3-6.6,2.9-10.5,2.5S6.19,2,3,5.44a1.57,1.57,0,0,0-1.7-.5h-.1A1.65,1.65,0,0,0,.09,7h0l6.1,21.6a1.5,1.5,0,0,0,1.4,1H8l.5-.1a1.27,1.27,0,0,0,.9-.7,1.38,1.38,0,0,0,.1-1.1l-2-6.7a7,7,0,0,1,4.5-2.8v-.3a2,2,0,0,1,.1-.8,8.42,8.42,0,0,0-4.9,2.6L4.49,10l-1-3.6c2.7-3.4,6.6-3,10.6-2.6,3.8.4,7.8.8,10.8-2.3a82.76,82.76,0,0,1-1.6,8.4.91.91,0,0,0,.3,1,30.2,30.2,0,0,0,5.2,3.6.37.37,0,0,1-.1.3,7,7,0,0,1-3.5,2.3c0,.3.1.6.1.9v.2a8.28,8.28,0,0,0,4.2-2.7A2,2,0,0,0,29.69,14.24Zm-24,3.5L8.59,28c-.1,0-.1.1-.2.3s-.2.2-.3.2l-.5.1c-.2.1-.5-.1-.6-.3L.89,6.74a.68.68,0,0,1,.4-.8h.4a.75.75,0,0,1,.7.5l.1.2Z"/><path class="cls-1" d="M13.69,14.94a5.76,5.76,0,1,0,7.9-2A5.82,5.82,0,0,0,13.69,14.94Zm9.7,2.9a4.8,4.8,0,1,1-4.8-4.8h0a4.87,4.87,0,0,1,4.8,4.8Z"/><path class="cls-1" d="M17.29,16.74l.6.9.5-.3v3.4h1v-4.9h-.8Z"/></g></symbol><symbol id="Новый_символ_19" data-name="Новый символ 19" viewBox="0 0 29.73 29.64"><use width="29.73" height="29.64" xlink:href="#Новый_символ_13"/><rect class="cls-2" x="10.54" y="9.4" width="3.47" height="1.24"/></symbol><symbol id="Новый_символ_32" data-name="Новый символ 32" viewBox="0 0 29.73 29.64"><use id="navigation-requests-clean-notify" width="29.73" height="29.64" xlink:href="#Новый_символ_19"/><rect class="cls-2" x="5.83" y="13.18" width="3.27" height="3.27"/></symbol></defs><title>requests-navigation-active-clean-notify</title><g id="Слой_2" data-name="Слой 2"><g id="Слой_1-2" data-name="Слой 1"><use id="requests-navigation-active-clean-notify" width="29.73" height="29.64" xlink:href="#Новый_символ_32"/></g></g></svg>