<svg width="15" height="16" viewBox="0 0 15 16" fill="none" xmlns="http://www.w3.org/2000/svg">
<path d="M6.3455 3.45904L6.35255 3.43105C6.41646 3.22426 6.44456 3.00808 6.43559 2.79189C6.39647 2.36337 6.1259 1.99074 5.73061 1.82072C5.43844 1.69141 5.10567 1.68938 4.81201 1.81516C4.5005 1.95045 4.25792 2.20735 4.1408 2.52623C4.12819 2.56053 1.74898 8.96936 1.52061 9.58329L0.767969 10.2837C0.617184 10.4239 0.52838 10.6184 0.521007 10.8241C0.513633 11.0299 0.588224 11.2302 0.728536 11.3808L3.31421 14.1589L3.86819 14.7525C4.00775 14.9038 4.20214 14.9929 4.40796 15H4.43638C4.63237 15.0003 4.82109 14.9259 4.96418 14.792L5.47104 14.3202C5.48172 14.3085 5.49775 14.3032 5.51325 14.3064C6.30051 14.6789 7.23546 14.5324 7.87109 13.9369L11.6406 10.4284L13.2281 8.95141L14.1205 8.12033C14.3489 7.90692 14.4834 7.61155 14.494 7.29908C14.5181 6.7077 14.0994 6.19037 13.516 6.09045L13.6209 5.99289C13.8495 5.77959 13.9839 5.48411 13.9944 5.17164C14.0182 4.58015 13.5993 4.06293 13.0158 3.96333L13.3193 3.68089C13.7822 3.24649 13.8215 2.52484 13.4084 2.04278C13.2025 1.80693 12.9089 1.66609 12.5961 1.65294C12.2546 1.63349 11.9199 1.75404 11.6692 1.98668L11.603 2.04855C11.5801 1.80629 11.4822 1.57728 11.3229 1.39326C11.1173 1.15688 10.8236 1.01539 10.5107 1.00204C10.1693 0.982587 9.83471 1.10313 9.58411 1.33588L6.19001 4.49487C6.17794 4.50588 6.1602 4.5078 6.14609 4.49968C6.13188 4.49167 6.12461 4.47532 6.12793 4.45939L6.3455 3.45904ZM1.08599 10.6259L1.70837 10.0462L3.94941 12.4545C4.0023 12.511 4.04334 12.5776 4.06984 12.6504C4.09527 12.7207 4.10703 12.7953 4.10446 12.87C4.09912 13.0237 4.03287 13.1688 3.92023 13.2734L3.49673 13.6693L1.07007 11.0625C0.954125 10.9375 0.961285 10.7422 1.08599 10.6259ZM6.50825 4.83641L7.2905 4.10877L7.50059 4.33479C7.58918 4.42573 7.73419 4.42937 7.82706 4.34281C7.91992 4.25625 7.92666 4.11134 7.84213 4.01655L7.63203 3.79086L9.07565 2.44662L9.28575 2.67263C9.37434 2.76358 9.51935 2.76721 9.61222 2.68065C9.70519 2.59409 9.71181 2.44918 9.62728 2.35439L9.41719 2.1287L9.90182 1.67741C10.0593 1.53026 10.2704 1.45439 10.4855 1.46732C10.6716 1.47416 10.8467 1.55709 10.9699 1.69676C11.0892 1.83333 11.1511 2.01083 11.1424 2.19196C11.1374 2.38058 11.0565 2.55915 10.9181 2.68728L7.04727 6.28965C6.95291 6.37749 6.94757 6.52517 7.03552 6.61964C7.12336 6.714 7.27105 6.71924 7.36541 6.6314L11.2334 3.03052V3.02935L11.9873 2.32757C12.1449 2.18074 12.3558 2.10487 12.5708 2.11748C12.7574 2.1241 12.9331 2.20714 13.0566 2.34713C13.3056 2.63908 13.2819 3.07498 13.0027 3.33818L12.0103 4.26148L8.34107 7.67813C8.25409 7.76725 8.25238 7.90884 8.33701 8C8.42165 8.09115 8.56303 8.09992 8.65824 8.01998L12.3278 4.60387C12.6169 4.3349 13.0693 4.35103 13.3384 4.63989C13.6053 4.92981 13.5893 5.38045 13.3024 5.65071L12.5104 6.38818L12.5088 6.38956L9.63295 9.06714C9.53859 9.1552 9.53356 9.30309 9.62162 9.39735C9.70967 9.49171 9.85747 9.49673 9.95183 9.40868L12.8278 6.73057C13.1171 6.46223 13.5691 6.47837 13.8385 6.76679C14.1051 7.05682 14.0891 7.50725 13.8026 7.77762L13.08 8.44968L12.8698 8.22377C12.782 8.1293 12.6342 8.12396 12.5399 8.2118C12.4454 8.29965 12.44 8.44744 12.5279 8.54191L12.738 8.76792L11.4926 9.92718L11.2825 9.70127C11.1945 9.6068 11.0468 9.60146 10.9524 9.6893C10.8579 9.77714 10.8526 9.92493 10.9404 10.0194L11.1505 10.2454L7.55338 13.5954C7.057 14.0607 6.32659 14.1751 5.71169 13.8839C5.52372 13.7977 5.30219 13.8352 5.15312 13.9785L4.64626 14.4505C4.58759 14.5083 4.50691 14.5383 4.42473 14.5329C4.34288 14.5301 4.26551 14.4947 4.20994 14.4346L3.81476 14.0107L4.23933 13.6155C4.66154 13.221 4.68505 12.5594 4.2919 12.136L1.98921 9.66269C4.53331 2.81081 4.57883 2.68845 4.57883 2.68845C4.65107 2.49 4.80132 2.32971 4.99474 2.24497C5.17075 2.17038 5.36973 2.17187 5.54456 2.24913C5.78276 2.35098 5.94615 2.57485 5.97062 2.83272C5.97372 2.99675 5.95011 3.16015 5.90052 3.31649L5.67205 4.36022C5.62524 4.57566 5.72377 4.79666 5.91548 4.90587C6.10709 5.01498 6.34742 4.98709 6.5089 4.83684L6.50825 4.83641Z" fill="white" stroke="white" stroke-width="0.3"/>
</svg>
