<svg width="12" height="15" viewBox="0 0 12 15" fill="none" xmlns="http://www.w3.org/2000/svg">
<path d="M6.02602 3.5022C4.96409 3.5022 4.09975 4.36655 4.09975 5.42847C4.09975 6.4904 4.96409 7.35475 6.02602 7.35475C7.08795 7.35475 7.9523 6.4904 7.9523 5.42847C7.9523 4.36655 7.08795 3.5022 6.02602 3.5022ZM6.02602 6.80439C5.26735 6.80439 4.65011 6.18715 4.65011 5.42847C4.65011 4.6698 5.26735 4.05256 6.02602 4.05256C6.7847 4.05256 7.40194 4.6698 7.40194 5.42847C7.40194 6.18715 6.7847 6.80439 6.02602 6.80439Z" fill="#9C9C9C" stroke="#9C9C9C" stroke-width="0.2"/>
<path d="M9.70872 1.74565C8.71201 0.74894 7.38673 0.199951 5.97725 0.199951C4.56749 0.199951 3.24249 0.74894 2.24577 1.74565C0.401226 3.58992 0.171999 7.05998 1.74935 9.16237L5.97725 14.5L10.1988 9.1709C11.7825 7.05998 11.5533 3.58992 9.70872 1.74565ZM9.75248 8.84921L5.97725 13.5L2.19597 8.84068C0.765293 6.93312 0.970304 3.79934 2.63516 2.13476C3.52785 1.24207 4.71471 0.750316 5.97725 0.750316C7.23979 0.750316 8.42665 1.24207 9.31962 2.13476C10.9845 3.79934 11.1895 6.93312 9.75248 8.84921Z" fill="#9C9C9C" stroke="#9C9C9C" stroke-width="0.2"/>
</svg>
