<svg xmlns="http://www.w3.org/2000/svg" viewBox="0 0 43.31 29.83"><defs><style>.cls-1,.cls-2,.cls-3{fill:#fff;}.cls-1,.cls-3{stroke:#fff;stroke-miterlimit:10;}.cls-1{stroke-width:0.25px;}.cls-3{stroke-width:0.35px;}</style></defs><title>users-navigation-subscribe-fill</title><g id="Слой_2" data-name="Слой 2"><g id="Слой_1-2" data-name="Слой 1"><path class="cls-1" d="M34.4.12a5.55,5.55,0,0,0-5.5,5.5,5.5,5.5,0,0,0,11,0A5.55,5.55,0,0,0,34.4.12Zm0,10.11a4.66,4.66,0,0,1-4.6-4.61,4.6,4.6,0,0,1,9.2,0A4.66,4.66,0,0,1,34.4,10.23Z"/><path class="cls-2" d="M43.1,11.33a1.07,1.07,0,0,1-.5-.41c-.79-.54-1.7-1.15-2.68-1.86a6.5,6.5,0,1,1-10.15-8A12.13,12.13,0,0,0,28,.53a13.14,13.14,0,0,0-8.7,1.39c-.27.13-.53.27-.79.41,0,0,0,0,0,0,.25.55,1.43.44,2.09.7a3.22,3.22,0,0,1,1.33,1.12C23,5.39,24.19,6.4,25.32,7.54s2.4,2.87,4.17,3.33a.5.5,0,0,1-.26,1,5.69,5.69,0,0,1-2.13-1.1.48.48,0,0,1-.27.18c-.6.12-1.29,0-1.9.13a.48.48,0,0,1,.29.43c.1,1.52-1.37,1.24-2.4,1.28a13.69,13.69,0,0,0-3.4.77c1.55-.13,3.22.05,4.17.05a.51.51,0,0,1,.35.86.53.53,0,0,1-.43.75,12.27,12.27,0,0,1-1.92,0,.46.46,0,0,1-.21.1,4.07,4.07,0,0,1-.59.06.41.41,0,0,1-.27.13,6.86,6.86,0,0,1-1.11,0,.45.45,0,0,1-.45.32h-1a.44.44,0,0,1-.39-.21c-.29.09-.58.18-.9.25s-.76-.23-.61-.61a2.25,2.25,0,0,1,1-1.1,2,2,0,0,0-.48.23,4.35,4.35,0,0,0-1.28,2.85.48.48,0,0,1-.07.22A97.42,97.42,0,0,1,32.5,29.62a.78.78,0,0,0,.4.21l1.5-.21a4,4,0,0,0,3.4-4v-3a.55.55,0,0,0-.3-.5c-.2-.1-.5-.1-.6.1l-2.6,2.11-6.5-4.41a1.17,1.17,0,0,1-.5-1.09L27.6,17l8.2-.9a.55.55,0,0,0,.5-.6V13.83l.7-.11a.56.56,0,0,0,.5-.6V11.83a12.29,12.29,0,0,0,5.2.79c.2,0,.4-.2.5-.5S43.3,11.42,43.1,11.33Zm-7.9,3.39-7.3.8v-.1a1.17,1.17,0,0,1,1-.9l6.3-.8Z"/><path class="cls-2" d="M31.29,11.88a3,3,0,0,0-.52-.41L30.2,11a4.31,4.31,0,0,1-1-.89.42.42,0,0,1,0-.49c-1.22-.86-2.58-1.86-4-3.07a13,13,0,0,1-2-2,11.82,11.82,0,0,0-6.7-4A13.14,13.14,0,0,0,7.8,1.92a29.94,29.94,0,0,0-6,4A4.41,4.41,0,0,0,.3,9.12l-.3,6a.61.61,0,0,0,.4.6,92.58,92.58,0,0,1,20.7,13.9.78.78,0,0,0,.4.21l1.5-.21a4,4,0,0,0,3.4-4v-3a.55.55,0,0,0-.3-.5c-.2-.1-.5-.1-.6.1l-2.6,2.11-6.6-4.71a1.17,1.17,0,0,1-.5-1.1l.3-1.8,8.2-.89a.57.57,0,0,0,.5-.61v-1.7l.7-.1a.56.56,0,0,0,.5-.59V11.52a12.54,12.54,0,0,0,5.2.81.48.48,0,0,0,.37-.25A.49.49,0,0,1,31.29,11.88ZM23.7,14.72l-7.3.8v-.1a1.17,1.17,0,0,1,1-.9l6.3-.8Zm2.1-4.5-1.5-.6a17.16,17.16,0,0,0-2.7-.7c-2.1-.39-3.4-.09-4,.8a.54.54,0,0,0,.2.8.53.53,0,0,0,.8-.19c.6-.91,3.5-.31,5.3.39.4.11.7.3,1.1.4v1.21l-7.7,1a2.31,2.31,0,0,0-2,1.89l-.6,3.11a2.14,2.14,0,0,0,1,2.29l6.9,4.71a.94.94,0,0,0,.7,0l2-1.61v1.8a3,3,0,0,1-2.4,2.9l-1.1.2c-1.5-1.29-10.1-8.9-20.5-13.7l.3-5.59a1.88,1.88,0,0,1,.2-.8l9.9,5.3c.1,0,.2.09.3.09a.59.59,0,0,0,.3-1.09L2.4,7.53a1.57,1.57,0,0,1,.4-.41,7.67,7.67,0,0,1,1-.79l7.1,3.5c.1,0,.2.09.3.09a.53.53,0,0,0,.5-.3c.2-.29,0-.59-.3-.79L4.8,5.53c5.7-4.11,9.9-3.8,11.6-3.5a10.66,10.66,0,0,1,6.1,3.59,14.74,14.74,0,0,0,2.2,2.11,59.24,59.24,0,0,0,4.9,3.69C28.3,11,27.1,10.72,25.8,10.22Z"/><path class="cls-3" d="M36.7,5.16H32.1a.47.47,0,0,0-.5.5.47.47,0,0,0,.5.5h4.6a.47.47,0,0,0,.5-.5A.47.47,0,0,0,36.7,5.16Z"/></g></g></svg>