<svg xmlns="http://www.w3.org/2000/svg" xmlns:xlink="http://www.w3.org/1999/xlink" viewBox="0 0 43 30"><defs><style>.cls-1,.cls-2,.cls-3{fill:#fff;}.cls-1,.cls-3{stroke:#fff;stroke-miterlimit:10;}.cls-1{stroke-width:0.25px;}.cls-3{stroke-width:0.35px;}</style><symbol id="Новый_символ_2" data-name="Новый символ 2" viewBox="0 0 43 30"><g id="sfdfsd"><g id="Слой_1-2-2" data-name="Слой 1-2"><path class="cls-1" d="M34.19.12a5.54,5.54,0,1,0,5.46,5.54A5.48,5.48,0,0,0,34.19.12Zm0,10.16a4.63,4.63,0,1,1,4.57-4.62A4.59,4.59,0,0,1,34.19,10.28Z"/><path class="cls-2" d="M42.84,11.39a1,1,0,0,1-.5-.4,28,28,0,0,1-2.69-1.91,6.49,6.49,0,0,1-8.94,2.11,6.67,6.67,0,0,1-2.09-9A3.07,3.07,0,0,1,29.52,1a12.46,12.46,0,0,0-10.44.91c-.3.1-.49.3-.79.4h0c.2.6,1.39.4,2.08.7a2.79,2.79,0,0,1,1.3,1.11C22.76,5.36,24,6.36,25.05,7.57s2.38,2.92,4.17,3.32a.62.62,0,0,1,.4.6c0,.2-.4.4-.6.4a5.32,5.32,0,0,1-2.09-1.1c-.1.1-.2.2-.29.2-.6.1-1.3,0-1.89.1.2.1.3.2.3.4.09,1.51-1.4,1.21-2.39,1.31a12.83,12.83,0,0,0-3.38.8c1.49-.1,3.18.1,4.18.1a.48.48,0,0,1,.49.51c0,.1-.1.2-.1.3a.52.52,0,0,1-.3.7h-.19a6,6,0,0,1-1.89,0c-.1.1-.1.1-.2.1s-.4.1-.6.1a.35.35,0,0,1-.3.11H19.28a.46.46,0,0,1-.5.3h-1a.52.52,0,0,1-.4-.2,2.86,2.86,0,0,1-.89.2c-.3,0-.8-.2-.6-.61a2.17,2.17,0,0,1,1-1.1c-.2.1-.3.1-.5.2a6.58,6.58,0,0,0-1.19,3c0,.1,0,.2-.1.2A94.2,94.2,0,0,1,32.3,29.8a.52.52,0,0,0,.4.2l1.49-.2a4,4,0,0,0,3.38-4v-3a.58.58,0,0,0-.3-.51c-.2-.1-.5-.1-.6.11l-2.58,2.11L27.63,20a1.17,1.17,0,0,1-.5-1.1l.3-1.82,8.15-.9a.56.56,0,0,0,.5-.6h0V13.91l.69-.1a.57.57,0,0,0,.5-.61V11.89a12.87,12.87,0,0,0,5.17.81c.2,0,.4-.2.49-.5S43,11.49,42.84,11.39ZM35,14.81l-7.25.81v-.1a1.17,1.17,0,0,1,1-.91l6.26-.8Z"/><path class="cls-2" d="M31.11,12a1.76,1.76,0,0,0-.5-.4l-.6-.5a2.83,2.83,0,0,1-1-.91.45.45,0,0,1,0-.5c-1.19-.9-2.58-1.91-4-3.12a17.17,17.17,0,0,1-2-2,11.32,11.32,0,0,0-6.66-4A12.37,12.37,0,0,0,7.75,1.94a27,27,0,0,0-6,4A4.43,4.43,0,0,0,.3,9.18l-.3,6a.68.68,0,0,0,.4.61A93.21,93.21,0,0,1,21,29.8a.52.52,0,0,0,.4.2l1.49-.2a4,4,0,0,0,3.38-4v-3a.58.58,0,0,0-.3-.51c-.2-.1-.5-.1-.6.11l-2.58,2.11L16.2,19.74a1,1,0,0,1-.5-1.11l.3-1.81,8.15-.9a.56.56,0,0,0,.5-.61V13.6l.69-.1a.56.56,0,0,0,.5-.6V11.59A12.87,12.87,0,0,0,31,12.4a.52.52,0,0,0,.4-.2C31.31,12.1,31.21,12.1,31.11,12Zm-7.56,2.82-7.25.81v-.1a1.17,1.17,0,0,1,1-.91l6.26-.8Zm2.09-4.53-1.49-.6A26.45,26.45,0,0,0,21.47,9c-2.09-.41-3.38-.1-4,.8a.63.63,0,0,0,.1.81h.1a.48.48,0,0,0,.7-.1.1.1,0,0,1,.1-.1c.59-.91,3.47-.31,5.26.4.4.1.7.3,1.1.4V12.4l-7.66,1a2.32,2.32,0,0,0-2,1.91l-.6,3.12a2.19,2.19,0,0,0,1,2.32l6.86,4.72a.85.85,0,0,0,.7,0l2-1.61v1.81a3,3,0,0,1-2.38,2.92l-1.09.2c-1.49-1.3-10-8.95-20.38-13.78l.3-5.63a2,2,0,0,1,.2-.81l9.84,5.34c.1,0,.2.1.3.1a.65.65,0,0,0,.59-.61.55.55,0,0,0-.3-.5L2.39,7.57a.73.73,0,0,1,.39-.4,3.75,3.75,0,0,1,1-.81l7.05,3.52c.1,0,.2.1.3.1a.55.55,0,0,0,.5-.3c.2-.3,0-.6-.3-.8L4.77,5.56C10.44,1.43,14.61,1.73,16.3,2a10.58,10.58,0,0,1,6.06,3.62,14.48,14.48,0,0,0,2.19,2.11c1.59,1.31,3.18,2.51,4.87,3.72C28.13,11.09,26.93,10.79,25.64,10.28Z"/><path class="cls-3" d="M36.47,5.15H34.69V3.34a.5.5,0,0,0-1,0V5.15H31.9a.45.45,0,0,0-.49.41v.1a.45.45,0,0,0,.39.5h1.89V8a.5.5,0,1,0,1,0V6.16h1.78a.46.46,0,0,0,.5-.4v-.1c.1-.3-.1-.51-.5-.51Z"/></g></g></symbol></defs><title>users-navigation-users-fill</title><g id="Слой_2" data-name="Слой 2"><g id="Слой_1-2" data-name="Слой 1"><use id="users-navigation-users-fill" width="43" height="30" xlink:href="#Новый_символ_2"/></g></g></svg>