<svg xmlns="http://www.w3.org/2000/svg" viewBox="0 0 43.31 29.83"><defs><style>.cls-1,.cls-2,.cls-3{fill:#fff;}.cls-2,.cls-3{stroke:#fff;stroke-miterlimit:10;}.cls-2{stroke-width:0.25px;}.cls-3{stroke-width:0.35px;}</style></defs><title>users-navigation-subscribe-clean</title><g id="Слой_2" data-name="Слой 2"><g id="Слой_1-2" data-name="Слой 1"><path class="cls-1" d="M31.6,11.32a1,1,0,0,1-.5-.39,65.19,65.19,0,0,1-5.9-4.4,13,13,0,0,1-2-2,11.89,11.89,0,0,0-6.7-4A13.28,13.28,0,0,0,7.8,1.93a29.51,29.51,0,0,0-6,4A4.41,4.41,0,0,0,.3,9.12l-.3,6a.63.63,0,0,0,.4.61A92.35,92.35,0,0,1,21.1,29.62a.71.71,0,0,0,.4.21l1.5-.21a4,4,0,0,0,3.4-4v-3a.56.56,0,0,0-.3-.5c-.2-.1-.5-.1-.6.11l-2.6,2.1-6.6-4.71a1.17,1.17,0,0,1-.5-1.1l.3-1.79,8.2-.9a.57.57,0,0,0,.5-.6V13.52l.7-.09a.57.57,0,0,0,.5-.61v-1.3a12.17,12.17,0,0,0,5.2.8c.2,0,.4-.2.5-.5C31.9,11.73,31.8,11.43,31.6,11.32Zm-7.9,3.41-7.3.79v-.1a1.19,1.19,0,0,1,1-.9l6.3-.79Zm2.1-4.5-1.5-.61a16.5,16.5,0,0,0-2.7-.69c-2.1-.4-3.4-.1-4,.8a.53.53,0,0,0,.2.79.52.52,0,0,0,.8-.2c.6-.89,3.5-.3,5.3.41.4.09.7.29,1.1.39v1.2l-7.7,1a2.36,2.36,0,0,0-2,1.91l-.6,3.1a2.14,2.14,0,0,0,1,2.29l6.9,4.71a.94.94,0,0,0,.7,0l2-1.6v1.79a3,3,0,0,1-2.4,2.9l-1.1.2c-1.5-1.29-10.1-8.89-20.5-13.69l.3-5.61a1.92,1.92,0,0,1,.2-.8l9.9,5.3c.1,0,.2.11.3.11a.56.56,0,0,0,.5-.31.54.54,0,0,0-.2-.8L2.4,7.52c.1-.2.3-.29.4-.39a7.9,7.9,0,0,1,1-.81l7.1,3.5c.1,0,.2.11.3.11a.56.56,0,0,0,.5-.31c.2-.3,0-.6-.3-.8L4.8,5.53C10.5,1.42,14.7,1.72,16.4,2a10.67,10.67,0,0,1,6.1,3.6,14.69,14.69,0,0,0,2.2,2.1,57.37,57.37,0,0,0,4.9,3.7C28.3,11,27.1,10.73,25.8,10.23Z"/><path class="cls-1" d="M20.46,3A12.88,12.88,0,0,1,27.8,1.92c.37.08.72.18,1.07.29a6.79,6.79,0,0,1,.9-1.16A13.52,13.52,0,0,0,28,.52a13.21,13.21,0,0,0-8.7,1.4l-.53.27a4.23,4.23,0,0,1,1.48.56A.48.48,0,0,1,20.46,3Z"/><path class="cls-1" d="M43.1,11.32a1,1,0,0,1-.5-.4c-.79-.54-1.7-1.15-2.68-1.86a7.76,7.76,0,0,1-.74,1L41,11.32c-.86-.19-1.67-.4-2.5-.65a6.38,6.38,0,0,1-2.1,1.14v.51l-7.7.9a2.34,2.34,0,0,0-2,1.91l-.6,3.09a2.14,2.14,0,0,0,1,2.3l6.9,4.7a.85.85,0,0,0,.7,0l2-1.59v1.79a3,3,0,0,1-2.4,2.9l-1.1.2A96.69,96.69,0,0,0,15.79,16.37a3.43,3.43,0,0,1-.54,1.06A97,97,0,0,1,32.5,29.63a.82.82,0,0,0,.4.19l1.5-.19a4,4,0,0,0,3.4-4v-3a.53.53,0,0,0-.3-.5c-.2-.11-.5-.11-.6.09l-2.6,2.1-6.5-4.4a1.17,1.17,0,0,1-.5-1.1l.3-1.8,8.2-.89a.57.57,0,0,0,.5-.61v-1.7l.7-.1a.56.56,0,0,0,.5-.59V11.82a12.54,12.54,0,0,0,5.2.81c.2,0,.4-.21.5-.5S43.3,11.42,43.1,11.32Zm-7.9,3.4-7.3.8v-.1a1.19,1.19,0,0,1,1-.9l6.3-.8Z"/><path class="cls-2" d="M34.4.12a5.55,5.55,0,0,0-5.5,5.5,5.5,5.5,0,0,0,11,0A5.55,5.55,0,0,0,34.4.12Zm0,10.11a4.66,4.66,0,0,1-4.6-4.61,4.6,4.6,0,0,1,9.2,0A4.66,4.66,0,0,1,34.4,10.23Z"/><path class="cls-3" d="M36.7,5.12H32.1a.47.47,0,0,0-.5.5.47.47,0,0,0,.5.5h4.6a.47.47,0,0,0,.5-.5A.47.47,0,0,0,36.7,5.12Z"/></g></g></svg>