<svg xmlns="http://www.w3.org/2000/svg" xmlns:xlink="http://www.w3.org/1999/xlink" viewBox="0 0 43.27 29.7"><defs><style>.cls-1{fill:#fff;}.cls-2{fill:none;}</style><symbol id="Новый_символ_8" data-name="Новый символ 8" viewBox="0 0 43.27 29.7"><g id="Слой_1-2-2" data-name="Слой 1-2"><path class="cls-1" d="M43.1,11.2a1,1,0,0,1-.5-.4,64.56,64.56,0,0,1-5.9-4.4,18.88,18.88,0,0,1-2-2A11.93,11.93,0,0,0,28,.4a13.82,13.82,0,0,0-8.7,1.4l-.3.1a4.25,4.25,0,0,0,1.1.2.56.56,0,0,1,.5.6h0a12.84,12.84,0,0,1,7.2-1,10.67,10.67,0,0,1,6.1,3.6,14.46,14.46,0,0,0,2.2,2.1c1.6,1.3,3.2,2.5,4.9,3.7A23.76,23.76,0,0,1,37.2,10l-1.5-.6A26.81,26.81,0,0,0,33,8.7c-2.1-.4-3.4-.1-4,.8a.62.62,0,0,0,.1.8h.1a.48.48,0,0,0,.7-.1l.1-.1c.6-.9,3.5-.3,5.3.4.4.1.7.3,1.1.4v1.2l-7.7.9a2.33,2.33,0,0,0-2,1.9L26.1,18a2.15,2.15,0,0,0,1,2.3L34,25a.85.85,0,0,0,.7,0l2-1.6v1.8a3,3,0,0,1-2.4,2.9l-1.1.2A96.24,96.24,0,0,0,15.7,16.1l-.3,1.2A101.73,101.73,0,0,1,32.5,29.4a.52.52,0,0,0,.4.2l1.5-.2a4,4,0,0,0,3.4-4v-3a.55.55,0,0,0-.3-.5c-.2-.1-.5-.1-.6.1l-2.6,2.1-6.5-4.4a1,1,0,0,1-.5-1.1l.3-1.8,8.2-.9a.56.56,0,0,0,.5-.6V13.6l.7-.1a.56.56,0,0,0,.5-.6V11.6a13.18,13.18,0,0,0,5.2.8c.2,0,.4-.2.5-.5S43.3,11.3,43.1,11.2Zm-7.9,3.4-7.3.8v-.1a1.17,1.17,0,0,1,1-.9l6.3-.8Z"/><path class="cls-1" d="M31.6,11.2a1,1,0,0,1-.5-.4,64.56,64.56,0,0,1-5.9-4.4,18.88,18.88,0,0,1-2-2,11.93,11.93,0,0,0-6.7-4A13.82,13.82,0,0,0,7.8,1.8a27.29,27.29,0,0,0-6,4A4.41,4.41,0,0,0,.3,9L0,15a.68.68,0,0,0,.4.6A93.8,93.8,0,0,1,21.1,29.5a.52.52,0,0,0,.4.2l1.5-.2a4,4,0,0,0,3.4-4v-3a.55.55,0,0,0-.3-.5c-.2-.1-.5-.1-.6.1l-2.6,2.1-6.6-4.7a1,1,0,0,1-.5-1.1l.3-1.8,8.2-.9a.56.56,0,0,0,.5-.6V13.4l.7-.1a.56.56,0,0,0,.5-.6V11.4a13.18,13.18,0,0,0,5.2.8c.2,0,.4-.2.5-.5C31.9,11.6,31.8,11.3,31.6,11.2Zm-7.9,3.4-7.3.8v-.1a1.17,1.17,0,0,1,1-.9l6.3-.8Zm2.1-4.5-1.5-.6a26.81,26.81,0,0,0-2.7-.7c-2.1-.4-3.4-.1-4,.8a.62.62,0,0,0,.1.8h.1a.48.48,0,0,0,.7-.1l.1-.1c.6-.9,3.5-.3,5.3.4.4.1.7.3,1.1.4v1.2l-7.7,1a2.33,2.33,0,0,0-2,1.9l-.6,3.1a2.15,2.15,0,0,0,1,2.3l6.9,4.7a.85.85,0,0,0,.7,0l2-1.6v1.8a3,3,0,0,1-2.4,2.9l-1.1.2c-1.5-1.3-10.1-8.9-20.5-13.7l.3-5.6a1.88,1.88,0,0,1,.2-.8l9.9,5.3c.1,0,.2.1.3.1a.55.55,0,0,0,.5-.3.62.62,0,0,0-.1-.8h-.1L2.4,7.4c.1-.2.3-.3.4-.4a3.92,3.92,0,0,1,1-.8l7.1,3.5c.1,0,.2.1.3.1a.55.55,0,0,0,.5-.3c.2-.3,0-.6-.3-.8L4.8,5.4c5.7-4.1,9.9-3.8,11.6-3.5a10.67,10.67,0,0,1,6.1,3.6,14.46,14.46,0,0,0,2.2,2.1,57.2,57.2,0,0,0,4.9,3.7C28.3,10.9,27.1,10.6,25.8,10.1Z"/><line class="cls-2" x1="40.2" x2="22.5"/><path class="cls-1" d="M31.6,11.2a1,1,0,0,1-.5-.4l-.4-.2a.1.1,0,0,1-.1-.1,54.73,54.73,0,0,1-5.4-4.1,18.88,18.88,0,0,1-2-2,11.93,11.93,0,0,0-6.7-4A13.82,13.82,0,0,0,7.8,1.8a27.29,27.29,0,0,0-6,4A4.41,4.41,0,0,0,.3,9L0,15a.68.68,0,0,0,.4.6A93.8,93.8,0,0,1,21.1,29.5a.52.52,0,0,0,.4.2l1.5-.2a4,4,0,0,0,3.4-4v-3a.55.55,0,0,0-.3-.5c-.2-.1-.5-.1-.6.1l-2.6,2.1-6.6-4.7a1,1,0,0,1-.5-1.1l.3-1.8,8.2-.9a.56.56,0,0,0,.5-.6V13.4l.7-.1a.56.56,0,0,0,.5-.6V11.4a13.18,13.18,0,0,0,5.2.8c.2,0,.4-.2.5-.5C31.9,11.6,31.8,11.3,31.6,11.2Zm-7.9,3.4-7.3.8v-.1a1.17,1.17,0,0,1,1-.9l6.3-.8Zm2.1-4.5-1.5-.6a26.81,26.81,0,0,0-2.7-.7c-2.1-.4-3.4-.1-4,.8a.62.62,0,0,0,.1.8h.1a.48.48,0,0,0,.7-.1l.1-.1c.6-.9,3.5-.3,5.3.4.4.1.7.3,1.1.4v1.2l-7.7,1a2.33,2.33,0,0,0-2,1.9l-.6,3.1a2.15,2.15,0,0,0,1,2.3l6.9,4.7a.85.85,0,0,0,.7,0l2-1.6v1.8a3,3,0,0,1-2.4,2.9l-1.1.2c-1.5-1.3-10.1-8.9-20.5-13.7l.3-5.6a1.88,1.88,0,0,1,.2-.8l9.9,5.3c.1,0,.2.1.3.1a.55.55,0,0,0,.5-.3.62.62,0,0,0-.1-.8h-.1L2.4,7.4c.1-.2.3-.3.4-.4a3.92,3.92,0,0,1,1-.8l7.1,3.5c.1,0,.2.1.3.1a.55.55,0,0,0,.5-.3c.2-.3,0-.6-.3-.8L4.8,5.4c5.7-4.1,9.9-3.8,11.6-3.5a10.67,10.67,0,0,1,6.1,3.6,14.46,14.46,0,0,0,2.2,2.1,57.2,57.2,0,0,0,4.9,3.7C28.3,10.9,27.1,10.6,25.8,10.1Z"/><path class="cls-1" d="M29.5.8A8.33,8.33,0,0,0,28,.4a13.82,13.82,0,0,0-8.7,1.4l-.5.3a4.71,4.71,0,0,1,1.5.6c.1.1.2.1.2.2a13.11,13.11,0,0,1,7.3-1.1l1.1.3a4.23,4.23,0,0,1,.5-.7A.66.66,0,0,1,29.5.8Z"/><path class="cls-1" d="M43.1,11.2a1,1,0,0,1-.5-.4c-.8-.5-1.7-1.2-2.7-1.9a8.65,8.65,0,0,1-.7,1L41,11.2a18.24,18.24,0,0,1-2.5-.7,5.29,5.29,0,0,1-2.1,1.1v.5l-7.7.9a2.33,2.33,0,0,0-2,1.9L26.1,18a2.15,2.15,0,0,0,1,2.3L34,25a.85.85,0,0,0,.7,0l2-1.6v1.8a3,3,0,0,1-2.4,2.9l-1.1.2A95.5,95.5,0,0,0,15.8,16.1a5.36,5.36,0,0,1-.5,1.1A90.75,90.75,0,0,1,32.5,29.4a.52.52,0,0,0,.4.2l1.5-.2a4,4,0,0,0,3.4-4v-3a.55.55,0,0,0-.3-.5c-.2-.1-.5-.1-.6.1l-2.6,2.1-6.5-4.4a1,1,0,0,1-.5-1.1l.3-1.8,8.2-.9a.56.56,0,0,0,.5-.6V13.6l.7-.1a.56.56,0,0,0,.5-.6V11.6a13.18,13.18,0,0,0,5.2.8c.2,0,.4-.2.5-.5S43.3,11.3,43.1,11.2Zm-7.9,3.4-7.3.8v-.1a1.17,1.17,0,0,1,1-.9l6.3-.8Z"/><path class="cls-2" d="M39,3.1a.22.22,0,0,1,.2-.2A5.56,5.56,0,0,0,34.4,0,5.33,5.33,0,0,0,32,.6a8.79,8.79,0,0,1,1,.6A3.18,3.18,0,0,1,34.4,1a4.63,4.63,0,0,1,4.1,2.6C38.5,3.2,38.7,3,39,3.1Z"/></g></symbol></defs><title>users-navigation-friends-clean</title><g id="Слой_2" data-name="Слой 2"><g id="Слой_1-2" data-name="Слой 1"><use id="users-navigation-friends-clean" width="43.27" height="29.7" xlink:href="#Новый_символ_8"/></g></g></svg>