<svg xmlns="http://www.w3.org/2000/svg" xmlns:xlink="http://www.w3.org/1999/xlink" viewBox="0 0 43.29 29.83"><defs><style>.cls-1,.cls-2{fill:#fff;}.cls-1{stroke:#fff;stroke-miterlimit:10;stroke-width:0.25px;}</style><symbol id="Новый_символ_6" data-name="Новый символ 6" viewBox="0 0 43.29 29.82"><path class="cls-1" d="M34.4.12a5.55,5.55,0,0,0-5.5,5.5,5.5,5.5,0,0,0,11,0A5.55,5.55,0,0,0,34.4.12Zm0,10.11a4.66,4.66,0,0,1-4.6-4.61,4.6,4.6,0,0,1,9.2,0A4.66,4.66,0,0,1,34.4,10.23Z"/><path class="cls-2" d="M33,4.33l.5.9.5-.3v3.4h1.1v-5h-.8Z"/><path class="cls-2" d="M43.1,11.33a1.05,1.05,0,0,1-.5-.4c-.8-.5-1.7-1.2-2.7-1.9a6.56,6.56,0,0,1-5.5,3.1,6.49,6.49,0,0,1-6.5-6.5A6.42,6.42,0,0,1,29.8,1,12.09,12.09,0,0,0,28,.53a13.21,13.21,0,0,0-8.7,1.4c-.3.1-.5.3-.8.4h0c.3.5,1.4.4,2.1.7a3.48,3.48,0,0,1,1.3,1.1c1.1,1.2,2.3,2.2,3.4,3.4s2.4,2.9,4.2,3.3a.52.52,0,0,1-.3,1,5.42,5.42,0,0,1-2.1-1.1.77.77,0,0,1-.3.2c-.6.1-1.3,0-1.9.1.2.1.3.2.3.4.1,1.5-1.4,1.2-2.4,1.3a10.49,10.49,0,0,0-3.4.79,27.6,27.6,0,0,1,4.2.1.51.51,0,0,1,.3.9c.1.3,0,.71-.4.71H21.6c-.1,0-.1.1-.2.1a1.27,1.27,0,0,0-.6.1c-.1.1-.1.1-.3.1H19.4a.46.46,0,0,1-.5.3h-1a.5.5,0,0,1-.4-.21,2.68,2.68,0,0,1-.9.21c-.3.1-.8-.21-.6-.6a2.75,2.75,0,0,1,1-1.11c-.2.11-.4.11-.5.21a4.34,4.34,0,0,0-1.3,2.9c0,.1,0,.2-.1.2a98.18,98.18,0,0,1,17.3,12.2.76.76,0,0,0,.4.2l1.5-.2a4,4,0,0,0,3.4-4v-3a.55.55,0,0,0-.3-.5c-.2-.1-.5-.1-.6.1l-2.6,2.1-6.5-4.41a1.17,1.17,0,0,1-.5-1.09l.3-1.8,8.2-.9a.56.56,0,0,0,.5-.6v-1.7l.7-.1a.56.56,0,0,0,.5-.61V11.83a12.13,12.13,0,0,0,5.2.79c.2,0,.4-.2.5-.5C43.4,11.73,43.3,11.42,43.1,11.33Zm-7.9,3.4-7.3.79v-.1a1.17,1.17,0,0,1,1-.9l6.3-.79Z"/><path class="cls-2" d="M31.3,11.92c-.1-.2-.4-.3-.5-.4s-.4-.29-.6-.5-.8-.5-1-.9a.45.45,0,0,1,0-.5c-1.2-.89-2.6-1.89-4-3.1a12.2,12.2,0,0,1-2-2,11.93,11.93,0,0,0-6.7-4,13.21,13.21,0,0,0-8.7,1.4,29.51,29.51,0,0,0-6,4A4.41,4.41,0,0,0,.3,9.12l-.3,6a.63.63,0,0,0,.4.61A92.72,92.72,0,0,1,21.1,29.62a.78.78,0,0,0,.4.21l1.5-.21a4,4,0,0,0,3.4-4v-3a.55.55,0,0,0-.3-.5c-.2-.09-.5-.09-.6.1l-2.6,2.1-6.6-4.7a1.17,1.17,0,0,1-.5-1.1l.3-1.8,8.2-.9a.56.56,0,0,0,.5-.6v-1.7l.7-.1a.56.56,0,0,0,.5-.6v-1.3a12.33,12.33,0,0,0,5.2.8.76.76,0,0,0,.4-.2C31.5,12,31.4,12,31.3,11.92Zm-7.6,2.81-7.3.79v-.1a1.17,1.17,0,0,1,1-.9l6.3-.79Zm2.1-4.5-1.5-.61a17.16,17.16,0,0,0-2.7-.7c-2.1-.4-3.4-.1-4,.8a.54.54,0,0,0,.2.8.52.52,0,0,0,.8-.2c.6-.9,3.5-.3,5.3.4.4.1.7.3,1.1.4v1.2l-7.7,1a2.33,2.33,0,0,0-2,1.9l-.6,3.1a2.15,2.15,0,0,0,1,2.3l6.9,4.7a.85.85,0,0,0,.7,0l2-1.6v1.8a3,3,0,0,1-2.4,2.9l-1.1.2c-1.5-1.29-10.1-8.9-20.5-13.7l.3-5.6a1.88,1.88,0,0,1,.2-.8l9.9,5.31c.1,0,.2.1.3.1a.55.55,0,0,0,.5-.3.54.54,0,0,0-.2-.8L2.4,7.53c.1-.2.3-.3.4-.4a7,7,0,0,1,1-.8l7.1,3.5c.1,0,.2.1.3.1a.55.55,0,0,0,.5-.3c.2-.3,0-.6-.3-.8L4.8,5.53c5.7-4.1,9.9-3.8,11.6-3.5a10.67,10.67,0,0,1,6.1,3.6,14.69,14.69,0,0,0,2.2,2.1,57.37,57.37,0,0,0,4.9,3.7C28.3,11,27.1,10.73,25.8,10.23Z"/></symbol></defs><title>users-navigation-friends-fill-notify</title><g id="Слой_2" data-name="Слой 2"><g id="Слой_1-2" data-name="Слой 1"><use id="users-navigation-friends-fill-notify" width="43.29" height="29.83" xlink:href="#Новый_символ_6"/></g></g></svg>