<svg xmlns="http://www.w3.org/2000/svg" xmlns:xlink="http://www.w3.org/1999/xlink" viewBox="0 0 43.34 29.7"><defs><style>.cls-1{fill:none;}.cls-2,.cls-3{fill:#fff;}.cls-2{stroke:#fff;stroke-miterlimit:10;stroke-width:0.25px;}</style><symbol id="Новый_символ_7" data-name="Новый символ 7" viewBox="0 0 43.34 29.7"><path class="cls-1" d="M33,1.1A5.85,5.85,0,0,1,34.3.9a4.65,4.65,0,0,1,4.6,4.6v.4a2.7,2.7,0,0,1,.8.7,3.75,3.75,0,0,0,.1-1.1A5.55,5.55,0,0,0,34.3,0a5.45,5.45,0,0,0-2.2.5A7,7,0,0,1,33,1.1Z"/><path class="cls-2" d="M37.6,8.7a4.72,4.72,0,0,1-3.2,1.4,4.65,4.65,0,0,1-4.6-4.6,4.31,4.31,0,0,1,1.4-3.2,3,3,0,0,1-.5-.7,5.28,5.28,0,0,0-1.7,4A5.48,5.48,0,0,0,38.8,9,2.13,2.13,0,0,1,37.6,8.7Z"/><path class="cls-3" d="M43.1,11.2a1,1,0,0,1-.5-.4c-.8-.5-1.7-1.2-2.7-1.9A6.56,6.56,0,0,1,34.4,12a6.49,6.49,0,0,1-6.5-6.5A6.42,6.42,0,0,1,29.8.9,12.09,12.09,0,0,0,28,.4a13.21,13.21,0,0,0-8.7,1.4c-.3.1-.5.3-.8.4h0c.3.5,1.4.4,2.1.7A3.48,3.48,0,0,1,21.9,4c1.1,1.2,2.3,2.2,3.4,3.4s2.4,2.9,4.2,3.3a.52.52,0,0,1-.3,1,5.29,5.29,0,0,1-2.1-1.1.77.77,0,0,1-.3.2c-.6.1-1.3,0-1.9.1.2.1.3.2.3.4.1,1.5-1.4,1.2-2.4,1.3a10.51,10.51,0,0,0-3.4.8,27.6,27.6,0,0,1,4.2.1.51.51,0,0,1,.3.9c.1.3,0,.7-.4.7H21.6c-.1,0-.1.1-.2.1a1.27,1.27,0,0,0-.6.1c-.1.1-.1.1-.3.1H19.4a.46.46,0,0,1-.5.3h-1a.52.52,0,0,1-.4-.2,2.92,2.92,0,0,1-.9.2c-.3.1-.8-.2-.6-.6A2.66,2.66,0,0,1,17,14c-.2.1-.4.1-.5.2a4.34,4.34,0,0,0-1.3,2.9c0,.1,0,.2-.1.2A98.18,98.18,0,0,1,32.4,29.5a.76.76,0,0,0,.4.2l1.5-.2a4,4,0,0,0,3.4-4v-3a.55.55,0,0,0-.3-.5c-.2-.1-.5-.1-.6.1l-2.6,2.1-6.5-4.4a1.17,1.17,0,0,1-.5-1.1l.3-1.8,8.2-.9a.56.56,0,0,0,.5-.6V13.7l.7-.1a.56.56,0,0,0,.5-.6V11.7a12.33,12.33,0,0,0,5.2.8c.2,0,.4-.2.5-.5C43.4,11.6,43.3,11.3,43.1,11.2Zm-7.9,3.4-7.3.8v-.1a1.17,1.17,0,0,1,1-.9l6.3-.8Z"/><path class="cls-3" d="M31.3,11.8c-.1-.2-.4-.3-.5-.4s-.4-.3-.6-.5-.8-.5-1-.9a.45.45,0,0,1,0-.5c-1.2-.9-2.6-1.9-4-3.1a12.61,12.61,0,0,1-2-2,11.93,11.93,0,0,0-6.7-4A13.21,13.21,0,0,0,7.8,1.8a29.51,29.51,0,0,0-6,4A4.41,4.41,0,0,0,.3,9L0,15a.62.62,0,0,0,.4.6A92.58,92.58,0,0,1,21.1,29.5a.76.76,0,0,0,.4.2l1.5-.2a4,4,0,0,0,3.4-4v-3a.55.55,0,0,0-.3-.5c-.2-.1-.5-.1-.6.1l-2.6,2.1-6.6-4.7a1.17,1.17,0,0,1-.5-1.1l.3-1.8,8.2-.9a.56.56,0,0,0,.5-.6V13.4l.7-.1a.56.56,0,0,0,.5-.6V11.4a12.33,12.33,0,0,0,5.2.8.76.76,0,0,0,.4-.2C31.4,11.9,31.3,11.9,31.3,11.8Zm-7.6,2.8-7.3.8v-.1a1.17,1.17,0,0,1,1-.9l6.3-.8Zm2.1-4.5-1.5-.6a17.16,17.16,0,0,0-2.7-.7c-2.1-.4-3.4-.1-4,.8a.54.54,0,0,0,.2.8.52.52,0,0,0,.8-.2c.6-.9,3.5-.3,5.3.4.4.1.7.3,1.1.4v1.2l-7.7,1a2.33,2.33,0,0,0-2,1.9l-.6,3.1a2.15,2.15,0,0,0,1,2.3l6.9,4.7a.85.85,0,0,0,.7,0l2-1.6v1.8a3,3,0,0,1-2.4,2.9l-1.1.2c-1.5-1.3-10.1-8.9-20.5-13.7l.3-5.6a1.88,1.88,0,0,1,.2-.8l9.9,5.3c.1,0,.2.1.3.1a.55.55,0,0,0,.5-.3.54.54,0,0,0-.2-.8L2.4,7.4c.1-.2.3-.3.4-.4a7,7,0,0,1,1-.8l7.1,3.5c.1,0,.2.1.3.1a.55.55,0,0,0,.5-.3c.2-.3,0-.6-.3-.8L4.8,5.4c5.7-4.1,9.9-3.8,11.6-3.5a10.67,10.67,0,0,1,6.1,3.6,14.69,14.69,0,0,0,2.2,2.1,57.37,57.37,0,0,0,4.9,3.7C28.3,10.9,27.1,10.6,25.8,10.1Z"/><path class="cls-3" d="M43.1,11.2a1,1,0,0,1-.5-.4,63.34,63.34,0,0,1-5.9-4.4,12.61,12.61,0,0,1-2-2A11.93,11.93,0,0,0,28,.4a13.21,13.21,0,0,0-8.7,1.4,5.94,5.94,0,0,0-.8.4c2.2.4,3.4,2,4.9,3.7a14.46,14.46,0,0,0,4.3,3,6.11,6.11,0,0,1,2.1,1.8c.3.5-.3.9-.7.7A16.19,16.19,0,0,0,24.5,10c0,.1.1.1.1.2a.45.45,0,0,1,.6.3c.5,1.4.3,2.1-1.2,2.2-1,.1-1.9-.1-3,.1-.6.1-1.3.6-1.9.7-.4.1-1,0-1.3.1a5.94,5.94,0,0,0-.8.4l.1.1c.1,0,.2-.1.3-.1h1.1c1.2-.6,5.7-1.9,5.8.1.1,1.1-1.5.8-2.2.9s-1.6.3-2.5.4a19.42,19.42,0,0,1-2.4.2.37.37,0,0,1-.3-.1.88.88,0,0,1-.7-.1c-.2-.2-.2-.4-.1-.5a4.69,4.69,0,0,0-.9,2.2v.1A98.78,98.78,0,0,1,32.6,29.5a.76.76,0,0,0,.4.2l1.5-.2a4,4,0,0,0,3.4-4v-3a.55.55,0,0,0-.3-.5c-.2-.1-.5-.1-.6.1l-2.6,2.1-6.5-4.4a1.17,1.17,0,0,1-.5-1.1l.3-1.8,8.2-.9a.56.56,0,0,0,.5-.6V13.7l.7-.1a.56.56,0,0,0,.5-.6V11.7a12.33,12.33,0,0,0,5.2.8c.2,0,.4-.2.5-.5S43.3,11.3,43.1,11.2Zm-7.9,3.4-7.3.8v-.1a1.17,1.17,0,0,1,1-.9l6.3-.8Z"/><path class="cls-3" d="M31.6,11.2a1,1,0,0,1-.5-.4,63.34,63.34,0,0,1-5.9-4.4,12.61,12.61,0,0,1-2-2,11.93,11.93,0,0,0-6.7-4A13.21,13.21,0,0,0,7.8,1.8a29.51,29.51,0,0,0-6,4A4.41,4.41,0,0,0,.3,9L0,15a.62.62,0,0,0,.4.6A92.58,92.58,0,0,1,21.1,29.5a.76.76,0,0,0,.4.2l1.5-.2a4,4,0,0,0,3.4-4v-3a.55.55,0,0,0-.3-.5c-.2-.1-.5-.1-.6.1l-2.6,2.1-6.6-4.7a1.17,1.17,0,0,1-.5-1.1l.3-1.8,8.2-.9a.56.56,0,0,0,.5-.6V13.4l.7-.1a.56.56,0,0,0,.5-.6V11.4a12.33,12.33,0,0,0,5.2.8c.2,0,.4-.2.5-.5C31.9,11.6,31.8,11.3,31.6,11.2Zm-9.5,3.9c-.8.1-1.6.3-2.5.4a19.42,19.42,0,0,1-2.4.2.37.37,0,0,1-.3-.1.88.88,0,0,1-.7-.1.48.48,0,0,1,0-.7v-.2a.49.49,0,0,1,.8-.4c.1,0,.2-.1.3-.1h1.1c1.2-.6,5.7-1.9,5.8.1C24.3,15.3,22.7,15,22.1,15.1Zm3.7-5-1.5-.6a17.16,17.16,0,0,0-2.7-.7c-2.1-.4-3.4-.1-4,.8a.54.54,0,0,0,.2.8.52.52,0,0,0,.8-.2c.6-.9,3.5-.3,5.3.4.4.1.7.3,1.1.4v1.2l-7.7,1a2.33,2.33,0,0,0-2,1.9l-.6,3.1a2.15,2.15,0,0,0,1,2.3l6.9,4.7a.85.85,0,0,0,.7,0l2-1.6v1.8a3,3,0,0,1-2.4,2.9l-1.1.2c-1.5-1.3-10.1-8.9-20.5-13.7l.3-5.6a1.88,1.88,0,0,1,.2-.8l9.9,5.3c.1,0,.2.1.3.1a.55.55,0,0,0,.5-.3.54.54,0,0,0-.2-.8L2.4,7.4c.1-.2.3-.3.4-.4a7,7,0,0,1,1-.8l7.1,3.5c.1,0,.2.1.3.1a.55.55,0,0,0,.5-.3c.2-.3,0-.6-.3-.8L4.8,5.4c5.7-4.1,9.9-3.8,11.6-3.5a10.67,10.67,0,0,1,6.1,3.6,14.69,14.69,0,0,0,2.2,2.1,57.37,57.37,0,0,0,4.9,3.7C28.3,10.9,27.1,10.6,25.8,10.1Z"/><line class="cls-1" x1="33.1" x2="39"/></symbol></defs><title>users-navigation-friends-fill</title><g id="Слой_2" data-name="Слой 2"><g id="Слой_1-2" data-name="Слой 1"><use id="users-navigation-friends-fill" width="43.34" height="29.7" xlink:href="#Новый_символ_7"/></g></g></svg>