<svg xmlns="http://www.w3.org/2000/svg" xmlns:xlink="http://www.w3.org/1999/xlink" viewBox="0 0 43.27 29.93"><defs><style>.cls-1,.cls-2,.cls-3{fill:#fff;}.cls-2,.cls-3{stroke:#fff;stroke-miterlimit:10;}.cls-2{stroke-width:0.25px;}.cls-3{stroke-width:0.35px;}</style><symbol id="Новый_символ_1" data-name="Новый символ 1" viewBox="0 0 43.27 29.93"><g id="Слой_1-2-2" data-name="Слой 1-2"><path class="cls-1" d="M31.6,11.33a1.05,1.05,0,0,1-.5-.4c-2-1.4-4-2.8-5.9-4.4a18.88,18.88,0,0,1-2-2,11.93,11.93,0,0,0-6.7-4,13.82,13.82,0,0,0-8.7,1.4,27.29,27.29,0,0,0-6,4A4.41,4.41,0,0,0,.3,9.13l-.3,6a.68.68,0,0,0,.4.6A90.74,90.74,0,0,1,21.1,29.62a.53.53,0,0,0,.4.21l1.5-.21a4,4,0,0,0,3.4-4v-3a.55.55,0,0,0-.3-.5c-.2-.09-.5-.09-.6.1l-2.6,2.1-6.6-4.7a1,1,0,0,1-.5-1.1l.3-1.8,8.2-.9a.56.56,0,0,0,.5-.6v-1.7l.7-.1a.56.56,0,0,0,.5-.6v-1.3a13.18,13.18,0,0,0,5.2.8c.2,0,.4-.2.5-.5C31.9,11.73,31.8,11.42,31.6,11.33Zm-7.9,3.4-7.3.79v-.1a1.17,1.17,0,0,1,1-.9l6.3-.79Zm2.1-4.5-1.5-.61c-.9-.29-1.8-.5-2.7-.7-2.1-.4-3.4-.1-4,.8a.48.48,0,0,0,.1.7h.1a.48.48,0,0,0,.7-.1l.1-.1c.6-.9,3.5-.3,5.3.4.4.1.7.3,1.1.4v1.2l-7.7,1a2.33,2.33,0,0,0-2,1.9l-.6,3.1a2.15,2.15,0,0,0,1,2.3l6.9,4.7a.85.85,0,0,0,.7,0l2-1.6v1.8a3,3,0,0,1-2.4,2.91l-1.1.2c-1.5-1.3-10.1-8.91-20.5-13.7l.3-5.6a1.85,1.85,0,0,1,.2-.8l9.9,5.3c.1,0,.2.1.3.1a.55.55,0,0,0,.5-.3.62.62,0,0,0-.1-.8h-.1L2.4,7.43c.1-.2.3-.3.4-.4a3.92,3.92,0,0,1,1-.8l7.1,3.5c.1,0,.2.1.3.1a.55.55,0,0,0,.5-.3c.2-.3,0-.6-.3-.8L4.8,5.43c5.7-4.1,9.9-3.8,11.6-3.5a10.67,10.67,0,0,1,6.1,3.6,14.46,14.46,0,0,0,2.2,2.1,57.2,57.2,0,0,0,4.9,3.7A28.61,28.61,0,0,1,25.8,10.23Z"/><path class="cls-1" d="M20.5,3a13.11,13.11,0,0,1,7.3-1.1l1.1.3L29.8,1A12.09,12.09,0,0,0,28,.52a13.82,13.82,0,0,0-8.7,1.4l-.5.3a4.71,4.71,0,0,1,1.5.6A.22.22,0,0,1,20.5,3Z"/><path class="cls-1" d="M43.1,11.33a1.05,1.05,0,0,1-.5-.4A27.76,27.76,0,0,1,39.9,9a8.65,8.65,0,0,1-.7,1l1.8,1.3-2.5-.6a5.42,5.42,0,0,1-2.1,1.1v.5l-7.7.9a2.32,2.32,0,0,0-2,1.89l-.6,3.1a2.15,2.15,0,0,0,1,2.3l6.9,4.7a.85.85,0,0,0,.7,0l2-1.6v1.8a3,3,0,0,1-2.4,2.91l-1.1.2a90.33,90.33,0,0,0-17.4-12.1,5.61,5.61,0,0,1-.5,1.1,90.75,90.75,0,0,1,17.2,12.2.76.76,0,0,0,.4.2l1.5-.2a4,4,0,0,0,3.4-4v-3a.55.55,0,0,0-.3-.5c-.2-.1-.5-.1-.6.1l-2.6,2.09L27.8,20a1,1,0,0,1-.5-1.1l.3-1.8,8.2-.89a.56.56,0,0,0,.5-.61v-1.7l.7-.1a.56.56,0,0,0,.5-.6v-1.3a13.18,13.18,0,0,0,5.2.8c.2,0,.4-.2.5-.5S43.3,11.42,43.1,11.33Zm-7.9,3.4-7.3.79v-.1a1.17,1.17,0,0,1,1-.9l6.3-.79Z"/><path class="cls-2" d="M34.4.12a5.55,5.55,0,0,0-5.5,5.5,5.5,5.5,0,0,0,11,0A5.48,5.48,0,0,0,34.4.12Zm0,10.11a4.66,4.66,0,0,1-4.6-4.61,4.6,4.6,0,0,1,9.2,0A4.6,4.6,0,0,1,34.4,10.23Z"/><path class="cls-3" d="M36.7,5.12H34.9V3.33a.5.5,0,1,0-1,0V5.12H32.1a.46.46,0,0,0-.5.4v.1a.46.46,0,0,0,.4.5h1.9v1.8a.5.5,0,1,0,1,0V6.12h1.8a.46.46,0,0,0,.5-.39V5.62c.1-.29-.1-.5-.5-.5Z"/></g></symbol></defs><title>users-navigation-users-clean</title><g id="Слой_2" data-name="Слой 2"><g id="Слой_1-2" data-name="Слой 1"><use id="users-navigation-users-clean" width="43.27" height="29.93" xlink:href="#Новый_символ_1"/></g></g></svg>