<svg xmlns="http://www.w3.org/2000/svg" xmlns:xlink="http://www.w3.org/1999/xlink" viewBox="0 0 43.25 29.83"><defs><style>.cls-1,.cls-2,.cls-3{fill:#fff;}.cls-1,.cls-3{stroke:#fff;stroke-miterlimit:10;}.cls-1{stroke-width:0.25px;}.cls-3{stroke-width:0.35px;}</style><symbol id="Новый_символ_3" data-name="Новый символ 3" viewBox="0 0 43.25 29.82"><g id="Слой_1-2-2" data-name="Слой 1-2"><path class="cls-1" d="M34.4.12a5.55,5.55,0,0,0-5.5,5.5,5.5,5.5,0,0,0,11,0A5.48,5.48,0,0,0,34.4.12Zm0,10.11a4.66,4.66,0,0,1-4.6-4.61,4.6,4.6,0,0,1,9.2,0A4.6,4.6,0,0,1,34.4,10.23Z"/><path class="cls-2" d="M43.1,11.33a1.05,1.05,0,0,1-.5-.4A27.76,27.76,0,0,1,39.9,9a6.59,6.59,0,0,1-9,2.1,6.59,6.59,0,0,1-2.1-9A3.13,3.13,0,0,1,29.7,1a12.09,12.09,0,0,0-1.8-.5,12.6,12.6,0,0,0-8.7,1.4c-.3.1-.5.3-.8.4h0c.2.6,1.4.4,2.1.7a2.76,2.76,0,0,1,1.3,1.1c1.1,1.2,2.3,2.2,3.4,3.4s2.4,2.9,4.2,3.3a.62.62,0,0,1,.4.6.62.62,0,0,1-.6.4,5.42,5.42,0,0,1-2.1-1.1c-.1.1-.2.2-.3.2-.6.1-1.3,0-1.9.1.2.1.3.2.3.4.1,1.5-1.4,1.2-2.4,1.3a13,13,0,0,0-3.4.79c1.6-.1,3.2.1,4.2.1a.48.48,0,0,1,.5.5c0,.11-.1.21-.1.3a.52.52,0,0,1-.3.7h-.2a5.51,5.51,0,0,1-1.9,0c-.1.11-.1.11-.2.11s-.4.1-.6.1a.37.37,0,0,1-.3.1H19.4a.46.46,0,0,1-.5.3h-1a.53.53,0,0,1-.4-.21,2.94,2.94,0,0,1-.9.21c-.3.1-.8-.21-.6-.61A2.21,2.21,0,0,1,17,14c-.2.1-.3.1-.5.21a4.52,4.52,0,0,0-1.3,2.89c0,.1,0,.21-.1.21a94.77,94.77,0,0,1,17.3,12.2.55.55,0,0,0,.4.2l1.5-.2a4,4,0,0,0,3.4-4v-3a.54.54,0,0,0-.3-.5c-.2-.1-.5-.1-.6.09l-2.6,2.1-6.5-4.4a1.17,1.17,0,0,1-.5-1.1l.3-1.8,8.2-.9a.55.55,0,0,0,.5-.6h0v-1.7l.7-.1a.56.56,0,0,0,.5-.6v-1.3a13.18,13.18,0,0,0,5.2.8c.2,0,.4-.2.5-.5S43.3,11.42,43.1,11.33Zm-7.9,3.4-7.3.79v-.1a1.17,1.17,0,0,1,1-.9l6.3-.79Z"/><path class="cls-2" d="M31.3,11.92a1.76,1.76,0,0,0-.5-.4l-.6-.5a2.84,2.84,0,0,1-1-.9.44.44,0,0,1,0-.5c-1.2-.89-2.6-1.89-4-3.1a18,18,0,0,1-2-2,11.4,11.4,0,0,0-6.7-4,12.6,12.6,0,0,0-8.7,1.4,27.29,27.29,0,0,0-6,4A4.41,4.41,0,0,0,.3,9.12l-.3,6a.7.7,0,0,0,.4.61A93.42,93.42,0,0,1,21.1,29.62a.53.53,0,0,0,.4.21l1.5-.21a4,4,0,0,0,3.4-4v-3a.55.55,0,0,0-.3-.5c-.2-.09-.5-.09-.6.1l-2.6,2.1-6.6-4.7a1,1,0,0,1-.5-1.1l.3-1.8,8.2-.9a.56.56,0,0,0,.5-.6v-1.7l.7-.1a.56.56,0,0,0,.5-.6v-1.3a13.18,13.18,0,0,0,5.2.8.52.52,0,0,0,.4-.2C31.5,12,31.4,12,31.3,11.92Zm-7.6,2.81-7.3.79v-.1a1.17,1.17,0,0,1,1-.9l6.3-.79Zm2.1-4.5-1.5-.61c-.9-.29-1.8-.5-2.7-.7-2.1-.4-3.4-.1-4,.8a.62.62,0,0,0,.1.8h.1a.48.48,0,0,0,.7-.1.1.1,0,0,1,.1-.1c.6-.9,3.5-.3,5.3.4.4.1.7.3,1.1.4v1.2l-7.7,1a2.33,2.33,0,0,0-2,1.9l-.6,3.1a2.15,2.15,0,0,0,1,2.3l6.9,4.7a.85.85,0,0,0,.7,0l2-1.6v1.8a3,3,0,0,1-2.4,2.9l-1.1.2c-1.5-1.29-10.1-8.9-20.5-13.7l.3-5.6a1.88,1.88,0,0,1,.2-.8l9.9,5.31c.1,0,.2.1.3.1a.65.65,0,0,0,.6-.6.54.54,0,0,0-.3-.5L2.4,7.53a.78.78,0,0,1,.4-.4,3.92,3.92,0,0,1,1-.8l7.1,3.5c.1,0,.2.1.3.1a.55.55,0,0,0,.5-.3c.2-.3,0-.6-.3-.8L4.8,5.53c5.7-4.1,9.9-3.8,11.6-3.5a10.67,10.67,0,0,1,6.1,3.6,14.46,14.46,0,0,0,2.2,2.1c1.6,1.3,3.2,2.5,4.9,3.7C28.3,11,27.1,10.73,25.8,10.23Z"/><path class="cls-3" d="M36.7,5.12H32.1a.46.46,0,0,0-.5.4v.1a.46.46,0,0,0,.4.5h4.7a.46.46,0,0,0,.5-.39V5.62c.1-.2-.1-.39-.5-.5Z"/></g></symbol></defs><title>users-navigation-subscribes-fill</title><g id="Слой_2" data-name="Слой 2"><g id="Слой_1-2" data-name="Слой 1"><use id="users-navigation-subscribes-fill" width="43.25" height="29.83" xlink:href="#Новый_символ_3"/></g></g></svg>