<svg xmlns="http://www.w3.org/2000/svg" xmlns:xlink="http://www.w3.org/1999/xlink" viewBox="0 0 43.31 29.83"><defs><style>.cls-1,.cls-2{fill:#fff;}.cls-2{stroke:#fff;stroke-miterlimit:10;stroke-width:0.25px;}</style><symbol id="Новый_символ_5" data-name="Новый символ 5" viewBox="0 0 43.31 29.82"><path class="cls-1" d="M31.6,11.33a1.05,1.05,0,0,1-.5-.4,63.34,63.34,0,0,1-5.9-4.4,12.61,12.61,0,0,1-2-2,11.93,11.93,0,0,0-6.7-4,13.21,13.21,0,0,0-8.7,1.4,29.51,29.51,0,0,0-6,4A4.41,4.41,0,0,0,.3,9.13l-.3,6a.62.62,0,0,0,.4.6A93.1,93.1,0,0,1,21.1,29.62a.78.78,0,0,0,.4.21l1.5-.21a4,4,0,0,0,3.4-4v-3a.55.55,0,0,0-.3-.5c-.2-.09-.5-.09-.6.1l-2.6,2.1-6.6-4.7a1.17,1.17,0,0,1-.5-1.1l.3-1.8,8.2-.9a.56.56,0,0,0,.5-.6v-1.7l.7-.1a.56.56,0,0,0,.5-.6v-1.3a12.33,12.33,0,0,0,5.2.8c.2,0,.4-.2.5-.5C31.9,11.73,31.8,11.42,31.6,11.33Zm-7.9,3.4-7.3.79v-.1a1.17,1.17,0,0,1,1-.9l6.3-.79Zm2.1-4.5-1.5-.61a17.16,17.16,0,0,0-2.7-.7c-2.1-.4-3.4-.1-4,.8a.54.54,0,0,0,.2.8.52.52,0,0,0,.8-.2c.6-.9,3.5-.3,5.3.4.4.1.7.3,1.1.4v1.2l-7.7,1a2.33,2.33,0,0,0-2,1.9l-.6,3.1a2.15,2.15,0,0,0,1,2.3l6.9,4.7a.85.85,0,0,0,.7,0l2-1.6v1.8a3,3,0,0,1-2.4,2.9l-1.1.2c-1.5-1.29-10.1-8.9-20.5-13.7l.3-5.6a1.88,1.88,0,0,1,.2-.8l9.9,5.31c.1,0,.2.1.3.1a.55.55,0,0,0,.5-.3.54.54,0,0,0-.2-.8L2.4,7.53c.1-.2.3-.3.4-.4a7,7,0,0,1,1-.8l7.1,3.5c.1,0,.2.1.3.1a.55.55,0,0,0,.5-.3c.2-.3,0-.6-.3-.8L4.8,5.53c5.7-4.1,9.9-3.8,11.6-3.5a10.67,10.67,0,0,1,6.1,3.6,14.69,14.69,0,0,0,2.2,2.1,57.37,57.37,0,0,0,4.9,3.7C28.3,11,27.1,10.73,25.8,10.23Z"/><path class="cls-1" d="M20.4,3a13.06,13.06,0,0,1,7.3-1.1l1.1.3L29.7,1a12.09,12.09,0,0,0-1.8-.5,13.21,13.21,0,0,0-8.7,1.4,2.19,2.19,0,0,0-.5.3,4.71,4.71,0,0,1,1.5.6C20.4,2.83,20.4,2.92,20.4,3Z"/><path class="cls-1" d="M43.1,11.33a1.05,1.05,0,0,1-.5-.4c-.8-.5-1.7-1.2-2.7-1.9-.2.3-.5.7-.7,1,.6.5,1.3.9,1.8,1.3a18.24,18.24,0,0,1-2.5-.71,5.44,5.44,0,0,1-2.1,1.11v.6l-7.7.9a2.32,2.32,0,0,0-2,1.89l-.6,3.1a2.15,2.15,0,0,0,1,2.3l6.9,4.7a.85.85,0,0,0,.7,0l2-1.6v1.8a3,3,0,0,1-2.4,2.91l-1.1.2a101.25,101.25,0,0,0-17.4-12.2,5.06,5.06,0,0,1-.5,1.09,98.77,98.77,0,0,1,17.3,12.2.78.78,0,0,0,.4.21l1.5-.21a4,4,0,0,0,3.4-4v-3a.55.55,0,0,0-.3-.5c-.2-.09-.5-.09-.6.1l-2.7,2.1-6.5-4.4a1.17,1.17,0,0,1-.5-1.1l.3-1.8,8.2-.9a.56.56,0,0,0,.5-.6v-1.7l.7-.1a.56.56,0,0,0,.5-.6v-1.3a12.33,12.33,0,0,0,5.2.8c.2,0,.4-.2.5-.5S43.3,11.42,43.1,11.33Zm-7.9,3.4-7.3.79v-.1a1.17,1.17,0,0,1,1-.9l6.3-.79Z"/><path class="cls-2" d="M34.4.12a5.55,5.55,0,0,0-5.5,5.5,5.5,5.5,0,0,0,11,0A5.55,5.55,0,0,0,34.4.12Zm0,10.11a4.66,4.66,0,0,1-4.6-4.61,4.6,4.6,0,0,1,9.2,0A4.66,4.66,0,0,1,34.4,10.23Z"/><path class="cls-1" d="M33,4.23l.5.89.5-.29v3.4h1.1V3.33h-.8Z"/></symbol></defs><title>users-navigation-friends-clean-notify</title><g id="Слой_2" data-name="Слой 2"><g id="Слой_1-2" data-name="Слой 1"><use id="users-navigation-friends-clean-notify" width="43.31" height="29.83" xlink:href="#Новый_символ_5"/></g></g></svg>