<svg width="6" height="7" viewBox="0 0 6 7" fill="none" xmlns="http://www.w3.org/2000/svg">
<path d="M2.08636 0.952632C1.87894 0.94451 1.67665 1.01835 1.5233 1.15824L0.729518 1.89709C0.416087 2.18947 0.398668 2.68051 0.690512 2.99437L3.6455 6.16918C3.93777 6.48293 4.42892 6.50035 4.74278 6.20819L5.53645 5.46933C5.84935 5.17727 5.86677 4.68709 5.57546 4.37355L2.62047 1.19863C2.4824 1.0487 2.29005 0.960112 2.08636 0.952632ZM5.2958 4.79278C5.30969 4.83061 5.3161 4.87068 5.31471 4.91097C5.31321 4.95126 5.30392 4.9909 5.28735 5.02766C5.27068 5.06475 5.24696 5.09809 5.21736 5.12598L4.42358 5.86483C4.36298 5.91933 4.2838 5.94862 4.20226 5.9468C4.1203 5.94402 4.04282 5.90865 3.98704 5.84848L1.03237 2.67356C0.916422 2.54864 0.923261 2.35351 1.04776 2.23703L1.84143 1.49838C1.8705 1.47178 1.90448 1.45104 1.94156 1.43769C1.95097 1.43427 1.96165 1.43469 1.97127 1.43213C2.00216 1.42251 2.03432 1.4176 2.0667 1.41738C2.14728 1.41973 2.22347 1.45468 2.27797 1.51409L5.23296 4.68891C5.26064 4.71893 5.28201 4.75431 5.2958 4.79278Z" fill="white" stroke="white" stroke-width="0.3"/>
</svg>
